<svg width="130" height="33" viewBox="0 0 130 33" fill="none" xmlns="http://www.w3.org/2000/svg">
<path d="M13.1133 32.1668C10.4665 32.1668 8.16448 31.6886 6.20721 30.7322C4.24993 29.7536 2.74862 28.3746 1.70325 26.5953C0.65789 24.8159 0.135209 22.7474 0.135209 20.3898C0.135209 17.1203 0.746857 14.2177 1.97015 11.6822C3.21569 9.14659 4.89495 7.18932 7.00791 5.81033C9.12088 4.4091 11.4674 3.70848 14.0474 3.70848C16.4495 3.70848 18.2734 4.33125 19.5189 5.57679C20.7644 6.80009 21.3872 8.42374 21.3872 10.4477C21.3872 11.8045 21.1425 12.8943 20.6532 13.7173C20.1862 14.5402 19.5078 14.9517 18.6181 14.9517C17.9953 14.9517 17.506 14.8071 17.1502 14.518C16.7943 14.2288 16.6164 13.8062 16.6164 13.2502C16.6164 13.05 16.6608 12.683 16.7498 12.1492C16.8833 11.482 16.95 10.9482 16.95 10.5478C16.95 8.52382 15.8713 7.51182 13.7138 7.51182C12.2458 7.51182 10.8446 7.99002 9.51011 8.94642C8.17561 9.90281 7.09688 11.3152 6.27393 13.1835C5.45099 15.0295 5.03952 17.2315 5.03952 19.7893C5.03952 22.4583 5.78462 24.5268 7.27481 25.9947C8.76501 27.4404 10.9669 28.1633 13.8806 28.1633C15.3263 28.1633 16.7832 27.9854 18.2511 27.6295C19.7413 27.2514 21.3872 26.6842 23.1888 25.928C23.5224 25.7945 23.8004 25.7278 24.0229 25.7278C24.3787 25.7278 24.6456 25.8613 24.8236 26.1282C25.0015 26.3951 25.0905 26.7398 25.0905 27.1624C25.0905 28.5192 24.3565 29.52 22.8885 30.1651C21.3094 30.8545 19.6635 31.3661 17.9509 31.6997C16.2605 32.0111 14.648 32.1668 13.1133 32.1668ZM26.5767 32.1668C25.1977 32.1668 24.0967 31.6664 23.2738 30.6655C22.4508 29.6646 22.0393 28.3524 22.0393 26.7287C22.0393 24.9494 22.4508 23.2701 23.2738 21.6909C24.0967 20.0895 25.1866 18.8106 26.5433 17.8542C27.9223 16.8756 29.3791 16.3863 30.9138 16.3863C31.4031 16.3863 31.7256 16.4864 31.8813 16.6865C32.0593 16.8645 32.2038 17.1981 32.315 17.6874C32.7821 17.5985 33.2714 17.554 33.783 17.554C34.8728 17.554 35.4178 17.9432 35.4178 18.7217C35.4178 19.1887 35.2509 20.3008 34.9173 22.0579C34.4058 24.6157 34.15 26.3951 34.15 27.396C34.15 27.7296 34.2278 27.9965 34.3835 28.1967C34.5615 28.3968 34.7839 28.4969 35.0508 28.4969C35.4734 28.4969 35.9849 28.23 36.5855 27.6962C37.186 27.1402 37.9978 26.2505 39.0209 25.0272C39.2878 24.7158 39.5881 24.5601 39.9217 24.5601C40.2109 24.5601 40.4333 24.6936 40.589 24.9605C40.7669 25.2274 40.8559 25.5944 40.8559 26.0615C40.8559 26.9511 40.6446 27.6406 40.222 28.1299C39.3101 29.2643 38.3426 30.2207 37.3194 30.9991C36.2963 31.7776 35.3066 32.1668 34.3502 32.1668C33.6162 32.1668 32.9378 31.9222 32.315 31.4328C31.7145 30.9213 31.2586 30.2318 30.9472 29.3644C29.7906 31.2327 28.3338 32.1668 26.5767 32.1668ZM27.7777 28.7972C28.267 28.7972 28.7341 28.508 29.1789 27.9298C29.6238 27.3515 29.9463 26.5841 30.1465 25.6277L31.3809 19.489C30.4467 19.5113 29.5793 19.8671 28.7786 20.5566C28.0001 21.2239 27.3774 22.1135 26.9103 23.2256C26.4432 24.3377 26.2097 25.5165 26.2097 26.7621C26.2097 27.4516 26.3431 27.9631 26.61 28.2967C26.8992 28.6304 27.2884 28.7972 27.7777 28.7972ZM50.7888 24.5601C51.078 24.5601 51.3004 24.6936 51.4561 24.9605C51.634 25.2274 51.723 25.5944 51.723 26.0615C51.723 26.9511 51.5117 27.6406 51.0891 28.1299C50.1327 29.3087 49.0873 30.2763 47.953 31.0325C46.8409 31.7887 45.5731 32.1668 44.1497 32.1668C42.1924 32.1668 40.7355 31.2771 39.7791 29.4978C38.845 27.7185 38.3779 25.4164 38.3779 22.5917C38.3779 19.8782 38.7227 16.7866 39.4122 13.3169C40.1239 9.84721 41.1581 6.86681 42.5149 4.37573C43.8939 1.88466 45.5286 0.63912 47.4192 0.63912C48.4868 0.63912 49.3209 1.13956 49.9214 2.14044C50.5442 3.11908 50.8555 4.53143 50.8555 6.37749C50.8555 9.02426 50.1216 12.0936 48.6536 15.5856C47.1857 19.0775 45.195 22.5361 42.6817 25.9614C42.8374 26.8733 43.0932 27.5294 43.449 27.9298C43.8049 28.3079 44.272 28.4969 44.8503 28.4969C45.7622 28.4969 46.5629 28.2411 47.2524 27.7296C47.9419 27.1958 48.8204 26.295 49.888 25.0272C50.1549 24.7158 50.4552 24.5601 50.7888 24.5601ZM46.6852 3.94202C46.1737 3.94202 45.5954 4.86505 44.9504 6.71112C44.3053 8.55719 43.7382 10.8481 43.2489 13.5838C42.7595 16.3196 42.4926 18.9441 42.4482 21.4574C44.0273 18.8551 45.284 16.2528 46.2181 13.6505C47.1523 11.026 47.6194 8.63503 47.6194 6.47758C47.6194 4.78721 47.308 3.94202 46.6852 3.94202ZM53.3968 14.2511C52.4627 14.2511 51.7621 14.0398 51.295 13.6172C50.8279 13.1724 50.5944 12.5607 50.5944 11.7822C50.5944 11.0038 50.8946 10.3588 51.4952 9.84721C52.1179 9.31341 52.8853 9.04651 53.7972 9.04651C54.6201 9.04651 55.2874 9.24668 55.7989 9.64703C56.3105 10.0474 56.5663 10.6145 56.5663 11.3485C56.5663 12.2382 56.2771 12.9499 55.6989 13.4837C55.1206 13.9953 54.3532 14.2511 53.3968 14.2511ZM53.1299 32.1668C51.6842 32.1668 50.6277 31.6553 49.9605 30.6321C49.3155 29.609 48.993 28.2523 48.993 26.5619C48.993 25.561 49.1153 24.2821 49.36 22.7252C49.6269 21.146 49.9605 19.6781 50.3608 18.3213C50.561 17.6096 50.8279 17.1203 51.1615 16.8534C51.4952 16.5865 52.029 16.453 52.7629 16.453C53.8973 16.453 54.4644 16.8311 54.4644 17.5873C54.4644 18.1434 54.2531 19.4334 53.8305 21.4574C53.2967 23.904 53.0298 25.561 53.0298 26.4284C53.0298 27.0957 53.1188 27.6073 53.2967 27.9631C53.4747 28.319 53.7749 28.4969 54.1975 28.4969C54.5979 28.4969 55.0983 28.2189 55.6989 27.6629C56.2994 27.1068 57.1001 26.2283 58.101 25.0272C58.3679 24.7158 58.6681 24.5601 59.0018 24.5601C59.2909 24.5601 59.5133 24.6936 59.669 24.9605C59.8469 25.2274 59.9359 25.5944 59.9359 26.0615C59.9359 26.9511 59.7246 27.6406 59.302 28.1299C57.1001 30.8212 55.0427 32.1668 53.1299 32.1668ZM74.9856 21.7577C75.2747 21.7577 75.4971 21.9022 75.6528 22.1914C75.8085 22.4805 75.8864 22.8475 75.8864 23.2924C75.8864 23.8484 75.8085 24.2821 75.6528 24.5935C75.4971 24.8826 75.2525 25.0828 74.9189 25.194C73.5844 25.6611 72.1164 25.928 70.515 25.9947C70.0702 27.8408 69.225 29.331 67.9794 30.4653C66.7561 31.5996 65.3994 32.1668 63.9092 32.1668C61.6628 32.1668 60.028 31.3105 59.0049 29.5979C57.9818 27.8853 57.4702 25.4053 57.4702 22.158C57.4702 19.2888 57.8261 16.175 58.5378 12.8165C59.2495 9.43573 60.2838 6.56655 61.6405 4.20892C63.0195 1.82905 64.6543 0.63912 66.5448 0.63912C67.568 0.63912 68.3909 1.08396 69.0137 1.97363C69.6364 2.84105 69.9478 3.97538 69.9478 5.37661C69.9478 7.20044 69.6031 9.01314 68.9136 10.8147C68.2241 12.6163 67.0786 14.5069 65.4772 16.4864C66.9674 16.5976 68.1796 17.2204 69.1138 18.3547C70.0479 19.4668 70.604 20.8458 70.7819 22.4916C71.8273 22.4249 73.0728 22.2025 74.5185 21.8244C74.652 21.7799 74.8077 21.7577 74.9856 21.7577ZM65.7775 3.94202C65.3327 3.94202 64.8433 4.60927 64.3095 5.94378C63.798 7.25604 63.3198 9.0465 62.875 11.3152C62.4301 13.5838 62.0965 16.0638 61.8741 18.755C63.342 16.0638 64.5097 13.695 65.3771 11.6488C66.2668 9.58031 66.7117 7.74536 66.7117 6.14396C66.7117 5.43222 66.6227 4.8873 66.4448 4.50919C66.2891 4.13108 66.0666 3.94202 65.7775 3.94202ZM64.0426 28.6304C64.7321 28.6304 65.3438 28.3412 65.8776 27.7629C66.4114 27.1847 66.7673 26.3506 66.9452 25.2607C66.2557 24.7937 65.7219 24.182 65.3438 23.4258C64.9879 22.6696 64.81 21.8689 64.81 21.0237C64.81 20.7123 64.8545 20.2897 64.9434 19.7559H64.8433C63.9314 19.7559 63.1641 20.2119 62.5413 21.1238C61.9408 22.0135 61.6405 23.2145 61.6405 24.7269C61.6405 25.9947 61.8741 26.9622 62.3411 27.6295C62.8305 28.2967 63.3976 28.6304 64.0426 28.6304ZM75.3745 32.1668C74.5293 32.1668 73.9288 31.722 73.5729 30.8323C73.2393 29.9426 73.0724 28.5192 73.0724 26.5619C73.0724 23.6705 73.4839 20.9236 74.3069 18.3213C74.507 17.6763 74.8295 17.2092 75.2744 16.9201C75.7415 16.6087 76.3865 16.453 77.2094 16.453C77.6542 16.453 77.9656 16.5086 78.1436 16.6198C78.3215 16.731 78.4105 16.9423 78.4105 17.2537C78.4105 17.6096 78.2437 18.4103 77.91 19.6558C77.6876 20.5455 77.5097 21.324 77.3762 21.9912C77.2428 22.6585 77.1316 23.4814 77.0426 24.46C77.7766 22.5473 78.5995 20.9903 79.5114 19.7893C80.4233 18.5882 81.313 17.7319 82.1804 17.2204C83.0701 16.7088 83.8819 16.453 84.6159 16.453C86.0616 16.453 86.7845 17.1759 86.7845 18.6216C86.7845 18.9107 86.6844 19.6113 86.4842 20.7234C86.3063 21.6131 86.2173 22.1691 86.2173 22.3916C86.2173 23.17 86.4953 23.5593 87.0514 23.5593C87.6742 23.5593 88.4749 23.0699 89.4535 22.0913C89.7426 21.8022 90.0429 21.6576 90.3543 21.6576C90.6434 21.6576 90.8659 21.791 91.0215 22.0579C91.1995 22.3026 91.2884 22.6362 91.2884 23.0588C91.2884 23.8818 91.066 24.5268 90.6212 24.9938C89.9984 25.6389 89.2644 26.1949 88.4193 26.662C87.5963 27.1068 86.7178 27.3292 85.7836 27.3292C84.6048 27.3292 83.704 27.029 83.0812 26.4284C82.4807 25.8279 82.1804 25.0161 82.1804 23.993C82.1804 23.6593 82.2138 23.3257 82.2805 22.9921C82.325 22.5473 82.3473 22.247 82.3473 22.0913C82.3473 21.7354 82.2249 21.5575 81.9803 21.5575C81.6466 21.5575 81.2018 21.9356 80.6458 22.6918C80.112 23.4258 79.5782 24.4044 79.0444 25.6277C78.5106 26.851 78.0768 28.1411 77.7432 29.4978C77.4986 30.5432 77.2094 31.2549 76.8758 31.633C76.5644 31.9889 76.064 32.1668 75.3745 32.1668ZM92.2919 32.1668C90.9129 32.1668 89.812 31.6664 88.989 30.6655C88.1661 29.6646 87.7546 28.3524 87.7546 26.7287C87.7546 24.9494 88.1661 23.2701 88.989 21.6909C89.812 20.0895 90.9018 18.8106 92.2586 17.8542C93.6376 16.8756 95.0944 16.3863 96.6291 16.3863C97.1184 16.3863 97.4409 16.4864 97.5966 16.6865C97.7745 16.8645 97.9191 17.1981 98.0303 17.6874C98.4974 17.5985 98.9867 17.554 99.4983 17.554C100.588 17.554 101.133 17.9432 101.133 18.7217C101.133 19.1887 100.966 20.3008 100.633 22.0579C100.121 24.6157 99.8653 26.3951 99.8653 27.396C99.8653 27.7296 99.9431 27.9965 100.099 28.1967C100.277 28.3968 100.499 28.4969 100.766 28.4969C101.189 28.4969 101.7 28.23 102.301 27.6962C102.901 27.1402 103.713 26.2505 104.736 25.0272C105.003 24.7158 105.303 24.5601 105.637 24.5601C105.926 24.5601 106.149 24.6936 106.304 24.9605C106.482 25.2274 106.571 25.5944 106.571 26.0615C106.571 26.9511 106.36 27.6406 105.937 28.1299C105.025 29.2643 104.058 30.2207 103.035 30.9991C102.012 31.7776 101.022 32.1668 100.065 32.1668C99.3314 32.1668 98.6531 31.9222 98.0303 31.4328C97.4298 30.9213 96.9738 30.2318 96.6624 29.3644C95.5059 31.2327 94.049 32.1668 92.2919 32.1668ZM93.493 28.7972C93.9823 28.7972 94.4494 28.508 94.8942 27.9298C95.3391 27.3515 95.6616 26.5841 95.8617 25.6277L97.0962 19.489C96.162 19.5113 95.2946 19.8671 94.4939 20.5566C93.7154 21.2239 93.0926 22.1135 92.6256 23.2256C92.1585 24.3377 91.9249 25.5165 91.9249 26.7621C91.9249 27.4516 92.0584 27.9631 92.3253 28.2967C92.6144 28.6304 93.0037 28.7972 93.493 28.7972ZM118.739 24.5601C119.029 24.5601 119.251 24.6936 119.407 24.9605C119.585 25.2274 119.674 25.5944 119.674 26.0615C119.674 26.9511 119.462 27.6406 119.04 28.1299C118.083 29.3087 117.038 30.2763 115.904 31.0325C114.769 31.7887 113.468 32.1668 112 32.1668C107.463 32.1668 105.194 28.9751 105.194 22.5917C105.194 21.6131 105.228 20.6233 105.294 19.6225H103.993C103.326 19.6225 102.87 19.5001 102.625 19.2555C102.403 19.0108 102.292 18.6216 102.292 18.0878C102.292 16.8422 102.792 16.2195 103.793 16.2195H105.695C106.073 13.7729 106.651 11.5376 107.429 9.51358C108.208 7.48958 109.142 5.87705 110.232 4.676C111.344 3.47494 112.534 2.87442 113.802 2.87442C114.736 2.87442 115.47 3.28589 116.004 4.10883C116.537 4.93178 116.804 5.96602 116.804 7.21156C116.804 10.659 115.359 13.6617 112.467 16.2195H116.204C116.56 16.2195 116.815 16.2973 116.971 16.453C117.127 16.6087 117.205 16.8978 117.205 17.3204C117.205 18.8551 115.948 19.6225 113.435 19.6225H109.364C109.32 20.7345 109.298 21.602 109.298 22.2247C109.298 24.5379 109.565 26.1615 110.098 27.0957C110.655 28.0298 111.522 28.4969 112.701 28.4969C113.657 28.4969 114.502 28.2078 115.236 27.6295C115.97 27.0512 116.838 26.1838 117.839 25.0272C118.105 24.7158 118.406 24.5601 118.739 24.5601ZM112.901 6.07723C112.567 6.07723 112.189 6.49982 111.767 7.34501C111.366 8.16796 110.977 9.32453 110.599 10.8147C110.243 12.2827 109.943 13.9175 109.698 15.719C111.01 14.5847 111.989 13.3169 112.634 11.9157C113.301 10.4922 113.635 9.2022 113.635 8.04563C113.635 6.73336 113.39 6.07723 112.901 6.07723ZM128.901 25.561C129.19 25.561 129.412 25.6945 129.568 25.9614C129.746 26.2283 129.835 26.5953 129.835 27.0623C129.835 27.863 129.646 28.5525 129.268 29.1308C128.645 30.0872 127.822 30.8323 126.799 31.3661C125.798 31.8999 124.597 32.1668 123.196 32.1668C121.061 32.1668 119.404 31.5329 118.225 30.2651C117.046 28.9751 116.457 27.2403 116.457 25.0606C116.457 23.5259 116.779 22.1024 117.424 20.7902C118.069 19.4556 118.959 18.3992 120.093 17.6207C121.25 16.8422 122.551 16.453 123.997 16.453C125.287 16.453 126.321 16.8422 127.099 17.6207C127.878 18.3769 128.267 19.4112 128.267 20.7234C128.267 22.2581 127.711 23.5815 126.599 24.6936C125.509 25.7834 123.641 26.6509 120.994 27.2959C121.528 28.319 122.429 28.8305 123.696 28.8305C124.608 28.8305 125.353 28.6193 125.932 28.1967C126.532 27.7741 127.222 27.0623 128 26.0615C128.267 25.7278 128.567 25.561 128.901 25.561ZM123.429 19.7225C122.606 19.7225 121.906 20.2007 121.328 21.1571C120.772 22.1135 120.494 23.2701 120.494 24.6269V24.6936C121.806 24.3822 122.84 23.9151 123.596 23.2924C124.352 22.6696 124.731 21.9467 124.731 21.1238C124.731 20.7012 124.608 20.3676 124.364 20.1229C124.141 19.856 123.83 19.7225 123.429 19.7225Z" fill="white"/>
</svg>
