<svg version="1.2" xmlns="http://www.w3.org/2000/svg" viewBox="0 0 482 154" width="482" height="154">
	<title>Earth-svg</title>
	<defs>
		<clipPath clipPathUnits="userSpaceOnUse" id="cp1">
			<path d="m-103 0h684v705h-684z"/>
		</clipPath>
	</defs>
	<style>
		.s0 { fill: #00c2e9 } 
		.s1 { fill: #01be17 } 
		.s2 { fill: #4bc9ea } 
		.s3 { fill: #01da1c } 
		.s4 { fill: #0187b0 } 
		.s5 { fill: #21bce5 } 
		.s6 { fill: #019dd0 } 
		.s7 { fill: #4eda5f } 
		.s8 { fill: #02cb1a } 
		.s9 { fill: #70e17e } 
		.s10 { fill: #7fcde7 } 
		.s11 { fill: #35d547 } 
		.s12 { fill: #1cd031 } 
		.s13 { fill: #9be9a4 } 
		.s14 { fill: #9ad8ec } 
	</style>
	<g id="Clip-Path" clip-path="url(#cp1)">
		<g id="Layer">
			<path id="Layer" class="s0" d="m246.5 673c-171.2 0-309.5-138.3-309.5-309.5 0-171.2 138.3-309.5 309.5-309.5 171.2 0 309.5 138.3 309.5 309.5 0 171.2-138.3 309.5-309.5 309.5z"/>
			<path id="Layer" fill-rule="evenodd" class="s0" d="m409.6 98.4c8.3 4.2 16 9.3 23.3 14.9 5.6 4.4 11.4 8.4 16.6 13.2 8 6.9 15.8 14 23.1 21.6 5.2 5.4 10.1 11.2 15 17.1 4.3 5.1 8.3 10.3 12.1 15.7 3.7 5.8 7.9 11.2 11.5 17.1 0.3 0.5 0.5 1 0.8 1.5-1.3 0.2-1 1.2-0.8 2.2 2.4 12.1 4.2 24.1 5.9 36.2 1.4 10.5 2.4 21 3.2 31.7q1 12.9 1 25.8c0 8.2 0.2 16.1-0.3 24.2-0.3 5.3-0.5 10.5-0.7 15.8-0.1 2.8 0.2 5.7-0.8 8.4-2.6 0.5-5.3 1-7.6 1.9-5.1 1.8-9.5 4.4-11.2 10.1-2.4 7.3-4.8 14.4-7.5 21.5-3.2 8.5-7.1 16.7-13.2 23.7-7.4 8.4-16.9 11.7-27.8 8.6-12.3-3.5-35.2-8.8-47.5-13 1.5-2.7 1.1-5.8 1.1-8.6 0-2.2-0.3-4.6-0.8-6.8-0.3-1.4 0.7-3 0.3-4.7-0.6-3.3-1.5-6.6-1-10 0.2-1.4-1.2-2-0.8-3.6 1-3.9 1-3.9-2.7-5.4-0.7-0.2-1.2-0.5-1.9-0.7-5.8-2-11.2-4.9-15.8-9.1-9.3-8.8-12.5-20.5-13.5-32.6-0.9-10 1.2-19.7 3.5-29.3 0.6-2 1.6-4.1-1.5-4.9-0.3-0.2-0.7-0.7-0.8-1.2-2.2-3.5-3.6-7.4-5.8-11-1.3-2-2.5-4-3.9-6.1-1.8-2.8-2.7-6.4-5.6-8.8-0.1 0 0-0.3 0-0.5 0-1.5-0.8-2.3-1.7-3.4-1.3-1.5-3-2.8-4-4.9-0.7-1.1-1.4-2.5-3.1-2.5 0-1.2 0.5-2 0.9-3 0.8-3.6 2.2-7.1 2.2-11 4.2-5.4 4.4-11.9 4.2-18.3-0.2-4.1-95 4.2-95.5 0 0.5-0.3 94.7-13.4 94.7-13.9 0-6.1 0.5-12.3 1-18.4 0.5-9 12.8-17.8 15-26.4 3.8-14.9 12.1-27.2 22.6-38.2 4-4.2 8.8-7.8 13.5-11 1-1 3.2-1.9 4.3-3.9zm41.3 229.7c8.6-0.2 16.9-2 24.9-5.4 12.5-5.3 20-14.1 21.3-27.6 0.2-2.5 0.7-4.9 1.4-7.3 2-8.6 5.9-16.5 9.1-24.8 3.8-9.7 3.8-18.8-1.2-27.9-3.9-7-9.8-12.2-15.4-17.6-4-3.9-8.6-7.1-13.2-10.5-5.9-4.4-11.8-9.3-18.6-12.5-4.9-2.4 1.1 23.5-4.7 25.5-4.4-0.7 14.3 3.9 13.5 8.5-1 5.2-6.8-5.3-6 0 0.7 4.7 2.3 11.8 2.5 16.5 0.2 5.1-14.8 25.6-18 29-3.4 3.5-3.2 8.2-3.9 12.9q0 0.4-0.1 0.9 0 0 0 0c-1.5 9 12.6-2.4 16.7 5.7q0 0.1 0.1 0.2c1.8-1.5 3.6-3 5.2-2.2 5.9 3.2-20.6 37.9-13.6 36.6zm-8.4-40.3q0 0 0 0 0 0 0 0 0.1-0.5 0.1-0.9c0.9-6.8-6.8 14.6-2.1 6.6 1.1-1.8 1.6-3.7 2-5.7zm12 7.6c0.6 0.4 1.4 0.4 2.1 0-2.3-0.4-4.8-1.5-2.1 0zm2.1 0c1.9 0.4 3.6 0.4 2.7-1.7-0.9 0.7-1.8 1.4-2.7 1.7z"/>
			<path id="Layer" class="s1" d="m-52.5 439.2c0-0.2-0.1-0.2 0-0.3 0.7-0.4 0.5-0.9 0.4-1.6-0.5-2-0.9-4.2-1.4-6.2-1-4.9-1.3-9.8-2.9-14.8 0.2-4.2-0.6-8.4-1.1-12.6-1.1-7.7-1.1-15.4-1.7-23.1-0.4-4.9 0-9.8-0.2-14.9q0-0.7 0-1.5 0-0.2 0-0.5c0.2-1 0.5-2 0.5-2.9-0.2-6.9 0.9-13.7 1.5-20.6 0.9-10.5 2.7-20.8 4.9-31.2 1.4-6.7 3.3-13.5 4.8-20.3 0.1-0.7 0.1-1.7 1.3-1.8 0 0.5 0 1 0.5 1.5 2.9 2.9 6.5 4.7 9.8 6.6 1.4 0.8 2.9 0.1 3.4-1 1.6-3.8 3.9-6.8 6.3-9.9 4.2-5.4 7.9-11.1 12.7-16.2 2.9-3.1 5.7-6.3 8.6-9.5 2-2.4 4.4-4.4 6.4-6.6 4.3-4.7 9.7-8.4 14.6-12.5 1.3-1.2 3.5-1 4.4-3.1 0.5-1.1 1.5-1.5 2.5-2.3 2.7-2.1 5.3-4.1 8.1-5.8 3.6-2.2 7-4.7 10.7-6.6 3.9-1.7 7.1-4.4 11.2-6.1 3.2-1.3 6.2-3.2 9.3-4.5 2.5-1.1 5-1.9 7.4-2.9 3.9-1.9 8.1-3.4 12-4.6 4.1-1.2 7.8-3 12-3.9 3.7-0.8 7.3-2.2 11.2-2.5 1.9-0.2 4.7-0.5 5.4-1.7 1.4-2.2 2.9-2.1 4.7-2.2 1.4-0.2 2.6-0.5 3.9-0.7 4.3-0.5 18.7-1.2 22.9-1.7 2.7-0.3 3.2 0.3 2.4 2.9-2.2 5.7-3.6 11.8-5.5 17.8-1 3.2-1.5 6.6-1.8 9.9-0.2 1.7 0.3 2.4 2.2 2.4 2 0 4-0.7 6.1-0.5 1.7 8.8-4.6 16.9 1 23.9-0.5 1-1.4 1-2.4 1-1.5 0-3.2-0.3-4.7 0.2-2.4 0.8-3.2-0.5-4.4-2.1-2.7-3.9-4.9-7.9-6.3-12.5-0.2-0.7-0.3-2-1.3-1.9-1.6 0.4-2.9-0.1-4.4 0q-6.9 1.3-13.7 2.6c-0.9 0.1-2.1 0.5-2.2-0.9-0.6-3.2-2.2-2.8-4.4-1.8-0.4 0.1-0.9 0.1-1.2 0.3-7.6 2.4-15.4 4.1-22.5 8-6.1 3.2-9.5 7.9-11 14.4-0.5 1.8-1.5 2.8-3.1 3.5-3.2 1.2-6.2 2.7-8.8 4.6-4.7 3.4-9.9 6.4-14.3 10.3-1.2 1-2.1 2.4-3.3 3.2-3 2.2-6.1 4.6-8.8 7.1-3.2 3.2-6 6.8-9.3 10.2-1.7 1.7-3.3 3.4-4.9 5.2-0.8 1.2-1.7 2.6-3.2 3.1-4.5 1.3-9.1 3-14 3.5-1.2 0.2-2.1 0.9-2.2 1.7-1.4 4.1-4.8 6.8-6.6 10.7-1 2-1.7 4.2-3.1 6.1-3.2 4.6-4.9 9.8-7.1 14.7-1.5 3.2-2.5 7-4 10.2-2.1 4.7-2.6 9.6-4.3 14.4-1.6 4.5-1.8 9.6-3.2 14.3-1.3 5-0.6 10.2-2.3 15.1-0.2 0.5 0.1 1.4 0.1 1.9 0.2 1 0.4 2.2 0 3.2-2 6.3 0 12.7-0.6 19.1-0.4 3.9 1.1 7.8 0.8 11.9-0.3 3.4 0.7 4.5 3.9 5.4 1.9 0.5 3.7 1 5.4 1.5 0.7 0.2 1.5 0.5 1.4 1.5-0.4 2.6 1 4.8 1.3 7.1 0.5 3.6 2.4 7 1.7 10.7-1.2 0-2.2-0.2-3.4-0.2-0.8-0.3-1.8-0.6-2.7-0.8-4-1.4-8.3-2.4-12-4.6-4.1-3.4-8.8-6.4-13.4-9.8z"/>
			<path id="Layer" class="s2" d="m-23.5 454.1c1.1 0 2.2 0.2 3.3 0.2 6.8 1.5 13.6 2.3 20.5 2.8 4.2 0.4 7.8-1.8 11.4-3.5 4.5-0.5 7.9-3.1 10.9-6.4 0.6 1.3 1.2 2.7 1.7 4 1.9 3.9 2.7 8 4.9 11.7 0.9 1.7 2.1 3.2 2.6 5.1 1.2 3.5 0.5 3.5 4.2 2 1.2-0.5 1.4-0.2 2.2 0.9 1.4 1.6 1 4.5 3.7 5-0.6 1.4-2 2.6-2.3 4.1-2.4 3.9-2.7 8.1-1.2 12.4 1.5 4.2 4.2 7.6 7.1 10.8 6.4 6.8 14.2 12 21.3 17.9 6.9 5.8 14.4 10.9 20 17.8 5.5 6.9 8.8 14.2 3.2 23.4-1.5 2.3-2.6 5-3.1 7.9-1.8 11.5 2.2 21 9.7 29.5 3.4 3.9 7.1 7.4 10.6 11.1-4.9 0.6-9.3-2-14-2.3-3.4-0.2-6.6-2.6-10-3.2-5.2-1.1-9.5-3.8-14.5-5.3-1.7-0.5-3.4-0.3-4.9-1.2-4.4-2.5-9.3-3.9-13.7-6.4-5.6-3.2-11.5-5.6-16.8-9.3-4.2-3.1-9.5-4.8-13-9.2-0.4-0.5-1-0.5-1.7-0.5-0.4-2-1.7-2-3.2-1.8-7.1-7.3-13.2-15.4-19.1-23.7-10.7-14.6-19.7-30.2-27.4-46.2-3.4-7-6.8-13.9-9-21.4-0.2-0.5-0.2-1-0.4-1.5 7 0.5 13.9 1 20.9 0.9 2.5 0 3.2-1.2 2.3-3.4-2-5.4-4.4-10.7-5.7-16.4-0.2-1.6-1.7-3.6-0.5-5.8z"/>
			<path id="Layer" fill-rule="evenodd" class="s3" d="m556.7 359.8c0 1 0.9 1.4 1.4 1.9 4.2 3.9 6.6 8.8 7.1 14.5 1 10.5 0 20.9-2.2 31-2.4 12.2-5.8 24-10.2 35.7-1.8 5.3-4.9 8.7-10.6 9.2-8 0.3-15.8-1.4-23.6-2.9-5.2-1-10.3-2.6-15.7-2.4-3.7 0.2-8.4 3.4-8.4 7.5 0 1.8-0.2 3.7 0.1 5.4 1.7 8.6 1.2 17.1-0.7 25.5-4.7 21.5-13.2 41.5-25.2 60-3.7 5.6-7.4 11.3-13.2 15.2-4 2.7-7.2 3.4-10.8-1.9-2.7-3.7-6.6-5.9-11.1-5.4-3.1 0.4-6.5 0.9-9.4 2.2-0.5 0.2-1.1 0-1.6 0.4-6.1 2.2-12.4 3.9-18.5 5.5-12.5 3.6-25 5.1-37.7 0-5.8-2.3-11.7-2.5-17.6-0.3 0-0.8-0.3-2.2 0.2-2.7 2.8-3 3.9-7.3 7.1-10 1.2-1 1.8-2.2 1.7-3.9 0.8-0.1 1.5-0.3 2.3-0.5 8.5-1.5 17.1-0.7 25.6-1.3 4.9-0.4 9.6-0.9 14.4-1.9 9.9-2.4 19.9-4.9 30.1-7.3 11.5-2.7 22.1-7.1 29.7-16.6 4.8-5.9 9.3-11.8 11.5-19.3 2.1-6.9-0.6-13.2-4.2-16.6-2.9-2.8-6.7-4.4-10.3-6.1-5.9-2.5-12-4.9-17.6-8.2-1.9-1.2-3.2-3.1-5.4-3.9-3.1-2.6-5.6-5.5-8-8.5-4.2-5.4-6.9-11.7-11.5-16.9-1.8-2.1-3-4.9-5.9-6.1 0.2-1-0.5-1.4-1.2-2.1-2.3-2-5.2-3.5-8.1-4.4-2.9-0.8-3.5-2.7-3.5-5.2 0-1.9 1-3.4 1-5.1 0.1-4.9 0.3-10 0.5-14.9 0.5 0.2 1.2 0.4 1.7 0.5 11.8 2.2 23 6.1 34.3 10.2 7.3 2.7 14.2 6.1 21.7 8.3 8.8 2.7 17.2 1.8 24.5-3.9 5.4-4.4 9.5-10 12.7-16.1 5.2-10.2 8.4-21.3 12.3-32 1-3 2.1-6.1 4.8-8.1 4.7-3.9 10.5-5.1 16.2-5.8 11.3-0.6 21.8 1 31.3 7.3zm-0.8 36.9c0-3 0-5.9-0.5-8.8-0.9-4.1-1.7-8.3-3.6-12.2-2-4-4.9-7.3-8.3-10.1-3.5-2.9-7.9-4.9-12.5-4.6-8.3 0.5-14.7 4.6-18.8 11.8-3.5 6.3-5.2 13.4-6.8 20.4-1.8 7.7-4.5 15.2-9.4 21.8-2.1 2.5-4.4 4.9-6.6 7.4-2.9 3.3-5.6 6.5-7.3 10.5-2.7 6.3 1.5 13.1 8.3 12.9 4.1 0 7.6-2 11.5-2.7 5.9-1 11.7-1.5 17.6-0.9 5.2 0.6 10.5 1.9 15.9 1.7 5.7-0.1 10-2.5 12.3-7.9 5.1-12.5 7.7-25.7 8.2-39.3z"/>
			<path id="Layer" class="s4" d="m424.4 555.8c2.9-1.3 6.1-1.8 9.3-2.2 4.6-0.5 8.7 1.6 11.2 5.5 3.5 5 6.8 4.4 10.8 1.8 5.8-3.9 9.5-9.6 13.2-15.2 12-18.5 20.5-38.4 25.2-59.9 1.9-8.5 2.6-17 0.7-25.6-0.3-1.7-0.2-3.6-0.2-5.4 0-4.1 4.8-7.3 8.5-7.5 5.4-0.3 10.5 1.2 15.7 2.4 7.8 1.5 15.6 3.2 23.5 2.9-3.4 10-6.7 19.8-11 29.4-5.2 12.4-11.3 24.2-17.9 35.9-3.2 5.6-6.9 11-10.5 16.6-8.4 12.9-18.1 24.9-28.4 36.4-5.3 5.9-11 11.2-16.4 16.8-6.4 6.6-13.9 12.1-20.8 18.1-7.6 6.6-16.1 11.6-24.2 17.4-10 7.3-21.2 12.4-32 18.3-10.3 5.6-21.1 9.6-32 13.7-4.2-5.9-4.5-14.7-0.3-20.5 1.5-2.2 3.7-3.7 5.8-5.4 1.1-1 2.7-1.7 2.3-3.7-0.3-2.2-2-2.7-3.5-3.4-3.2-1.2-6.6-2-10-2.5-0.3-1.6 1-1.7 2-2.4 0.9-0.5 2.2-0.5 1.9-2.1 1.5-0.3 3 1.1 4.5 0.2 4.3-2.4 8.3-4.6 12.6-6.9 0.6-0.4 2-0.7 1.7-1.9-0.2-1-1.2-1.2-2.1-1.5-0.6-0.3-1.8-0.2-2-1.2-0.2-1 0.8-1.3 1.5-1.7 8.3-5.2 16.8-10.3 24.7-16.2 4.8-3.6 10-6.8 14.6-10.5 6.7-5.6 13.5-11.4 20.3-17 0.8-1 1.3-1.7 1.3-2.7z"/>
			<path id="Layer" class="s5" d="m18.9 573.8c0.5 0 1.2 0 1.7 0.5 3.4 4.2 8.6 6.1 13 9.1 5.1 3.7 11.2 6.1 16.8 9.3 4.4 2.6 9.3 3.9 13.7 6.5 1.5 1 3.4 0.8 4.9 1.2 4.9 1.3 9.3 4.2 14.5 5.2 3.4 0.7 6.6 2.9 10 3.2 4.8 0.4 9.2 2.9 14.1 2.4 0.6 0 1.2 0.3 1.7 0.7 2.2 1.8 4.9 3.2 7.6 4.4 7.1 2.8 14.4 4.7 21.8 1.1 0.2 0 0.3 0 0.3-0.1 3.8-0.4 6.3-2.4 8.5-5.3 2.4-3.2 3-6.9 4.1-10.6 3.5-0.2 4.7 2.2 5.7 5 1.5 4.3 1.2 4.4 5.9 3.8 7.8-1.2 15.8-1.7 23.4-4.3 0.6-0.1 1.3-0.1 1.5-1 0.2-0.8-0.7-1-1.4-1.3-4.5-2.9-8.6-6.5-11.5-11-1.3-2.1-0.3-4.4 2.1-3.9 2.3 0.5 4-0.9 6.2-0.9 2.7-0.1 5.3-1.5 8-1.7 1-0.1 2-0.5 1.8-1.8 2.6 0.6 4.9 1.5 7.5 1.8 9.8 1.4 19.6 0 29.2-1.2 8.7-1.1 17.3-2.7 25.9-4.2q12.7-2 25.4-4c6.6-0.7 13-1.2 19.6-0.9 4.1 0.2 8 1.2 11.5 3.1 0 0.6-0.1 1.1-0.6 1.8-3.3 4.4-8.5 6.4-11.4 11-0.1 0.4-0.8 0.4-1 0.5-2.4 1.9-5.4 2.9-6.3 6.1-2.5-2-5-3.9-8.2-4.7-6.1-1.7-12.2-1.2-18.5-0.4-4.2 0.4-8.4 1.6-12.5 2.8-11 3.2-21.7 6.9-32 11.6-10.5 4.9-21.5 9.2-32.1 13.7-3.4 1.4-7.3 2.6-7.3 7.3 0 0.2-0.3 0.5-0.7 0.7-2.8 2.9-2.8 3.2 0.5 5.4 1.2 0.9 2.6 1.2 3.9 1.4 6.3 1.2 12.7 2.2 19.1 2.8 5 0.6 10 1.2 14.9 1.7 0.9 0.2 1.6 0.4 2.4 0.5 2.9 0.6 3.9 1.9 3.7 5.1-5.9 0.7-11.6 2.2-17.6 3.2-0.5 0.2-1 0.2-1.2 0.7-0.1 0.9 0.7 1 1.2 1.4 0.5 0.3 1.6 0.3 1.4 1.2-0.2 0.8-1 0.8-1.5 0.8-4.6 0.9-9 1.9-13.6 2.4-11.5 1.3-22.8 3.5-34.3 4.5-1.2 0.2-2.7 0-3.4 1.6-6.4-1.6-12.3-4.3-18.6-6.5-10.2-3.5-20.3-7.2-29.8-12.3-10.5-5.6-21.3-10.9-31.1-17.8-8.1-5.8-16.6-10.8-24-17.3-6.8-5.9-13.9-11.3-20.3-17.7-4.8-4.8-9.3-9.7-13.9-14.4-0.7-0.9-0.7-1.5-0.7-2.2z"/>
			<path id="Layer" fill-rule="evenodd" class="s3" d="m127.3 82.4c-0.3-3.9 0.2-7.8 1.5-11.6 0.5-1.3 1.2-2 2.6-2.3 5.9-1.7 11.8-3.4 17.7-5.4 16.1-5.5 32.5-8.5 49.1-11.2 33.5-5.4 67.2-7.1 101-3.2 17.8 2 35.3 5.4 52.1 11.6 10.3 3.8 20.3 8 30.1 13.2 1.2 0.7 1.2 1.4 0.7 2.4-0.9 1.9-1.5 3.6-2.4 5.4-0.2 0.5-0.5 1.1 0 1.6-2 1-2.5 3.2-3.7 4.7-4.2 5.4-8.5 10.7-14.7 13.9-4.9 2.3-10.2 2.7-15.4 3.4-7.3 1-12.5 4.2-14.2 11.8-1.4 6.1-2.1 12.4-3.1 18.5-1 6.4-3.4 11.6-10.1 14-4.3 1.5-8.5 2.4-12.9 1-4.5-1.5-8.9-2.8-13.2-5q-0.2-0.3-0.5-0.6c-0.2-0.5-0.5-0.5-0.8-0.6-2.4-2.2-4.6-4.8-6.6-7.3-0.4-1.5-1.4-2.4-2.6-3.2-4.7-4.1-10.1-3.4-15.4-2.6q-2.1 0.4-4.2 1.1c9.1 22.5 45.4 99.2 39.5 122.6-5.6 22.2-135-37.7-139.4-38.6-3.2-0.7 3.7-43.9 0-62.9-1.5 0.2-3.2 0.7-4.9 0.5-1.7 0-2.7-0.7-2.6-2.5 0.2-0.4 0.4-0.7 0.6-0.9 7.2-8.1 25.7-37 31.6-46.2 1.2-1.7 3.1-3 2.9-5.2 1-2.2 7.9-3.9 6-4.8-2.2-1-4.6-1.2-6.9-1.2-12.2-0.3-24.4 0.9-36.7 0.6-4.4-0.2-8.8-0.9-13.2-1.7-2.1-0.4-3.9-1.7-6.1-1.9-0.2-0.2-0.4-0.3-0.4-0.5-2.5-1.9-4.4-4.1-5.4-6.9zm135 49.6c-1.5-3.6-2.2-5.8-2-6.1 1.6-1.8-5.7-4.9-15.3-8.2-0.2 1.7-0.8 3.4-1.5 5.1-2.8 6.8-6.6 13-10.5 19.3-3.3 5.3-6 10.8-6 17.3-0.2 1-12.5 65.7-11.5 65.7 4.2 0.2 29.1-14.6 33.3-14.4 2.9-8.7-8.3-56.9-6.4-62 1.8-4.9 5.2-8.3 9.3-11.2 3.3-2.3 6.8-4.2 10.6-5.5zm-19.4-22.9c-4.9-6.3-12.1-8.1-19.7-8.1-4.7 0-9.6 1.2-14 3-3.9 1.6 19.3 8 35.8 13.7 0.5-2.9 0-5.9-2.1-8.6zm75.9-50.6c-8.4-1.5-17.1-2-25.7-2.9-6.8-0.7-13.5-0.8-20.1-0.8-10.3-0.2-20.7-0.4-31 0.1-8.8 0.5-17.7 0.5-26.5 1.7-5.8 0.7-11.4 1.4-17.1 2.2-5.4 0.9-10.9 1.9-16.3 3.2-7.6 1.9-15.4 2.9-23.1 4.4-1.6 0.4-3.3 0.2-4.6 1.2-2.3 1.6-4.4 3.2-6.7 4.7 0.8-0.4 2.2-0.9 2.7-0.3 4.3 4.4 9.3 6.6 15.4 6.8 7.5 0.2 11.1 1.7 18.2 0 9.5-2.4 18.1-8.5 27.9-8 7.5 0.4 19.1 0.2 25.4 5.1 3.4 2.7 4.6 7 7.5 10.2 1.7 2 6.7 6.6 9.2 7.9q0.6-0.4 0.7-0.5c-0.4 0.3-6.3 4.6-5.9 5.3 2.5 3.9 5.4 7.4 8.8 10.6 5.7 5.3 13.2 4.8 20.6 7.3 6.3 2.2 11.8 2.3 18.4 3 5.3 0.5 6.2-4 11-6.4 4.9-2.3 3.9-4.2 7.5-8.4 6.1-7.3 7.1-13.7 14.4-19.7 3.2-2.8-0.7-3.2 2.2-6.4 2.2-2.5 3.7 1.7 4.5-1.7 0.2-0.8 1-1 2-1-1-4.6 1.8-13.1-2-14.4-5.9-1.7-11.6-2.4-17.4-3.2zm-171.1 13.8c-0.7 0.3-1 0.6-0.4 0.2q0.2-0.1 0.4-0.2zm195 4.8c-0.7-0.6-1-0.5-1.2-0.1 1.4 0.5 2.2 0.9 1.2 0.1zm-1.2-0.1c-1-0.3-2.3-0.8-3.3-0.9 0.2 1.3 0.7 2.2 1.7 2.7 1.5 0.8 1.3-1 1.6-1.8z"/>
			<path id="Layer" class="s6" d="m284.3 136.2c2.1 2.5 4.3 5.1 6.6 7.3 0.2 0.3 0.4 0.7 0.9 0.7q0 0.5 0.5 0.5c1.5 2.8 4.4 4.4 6.9 5.9 4.4 2.7 9.3 3.7 14.4 4.1 10.3 0.8 17.3-4.3 19-14.6 0.8-5.4 1.7-11 2.5-16.4 1.4-8.7 5.4-13.2 13.5-14.9 1.7-0.4 3.2-0.5 4.9-0.7 8.2-0.5 15.1-3.6 20.7-9.3 4-4.2 7.2-9.2 10-14.4 8.8 4.1 17.7 8.1 25.7 13.9-1.2 2-3.4 2.9-5.1 4-4.9 3.4-1 14.9-5 19.2-10.5 10.8-18.8 18.1-22.5 33.2-2.2 8.6 3.4 17 2.9 26-0.3 6.1-16.5 9.7-16.5 15.8 0 0.5 0 1.1-0.5 1.5-1-3.2-1.7-6.3-2.9-9.5-1.4-3.7-2.2-7.6-5.1-10.5-1.3-2-2.5-4.6-4.2-6.3-1.5-1.5-3-1.8-4.7-0.3-1.7 1.5-3.9 2.2-6 2.9-5 1.7-10.4 2.4-15.7 3.2-7.6 1-15 2-22.7 3.2-7.4 1.2-14.3 3.7-20.4 8-2.2 1.2-3.6 3.2-4.9 5.4-0.7 0-1.4 0-1.9-0.5-3.2-2.4-11 6.4-14.4 4.4-2.8-1.7-1.8-13.6-5-14.9-2.6-1.2-5.5-1.4-7.7-2.9-1.1-1.8-1.5-3.9-2.2-6.1-2.5-9.3-1.7-18.3 3.8-26.2 6.9-10 23-16.1 35.1-11.7z"/>
			<path id="Layer" class="s3" d="m-59.4 364.4q0 0.7 0 1.5c-0.5 0-0.8 0.3-1 0.9-0.5 3.7-1 7.2-1.5 11-1.2 8.2-2.4 16.5-3.4 24.8-0.2 1.9-1.4 4.1 0.3 6 2.2 2.2 4.2 4.5 6.4 6.9 0.6 0.7 1.1 1.4 2.1 1.2 1.5 4.7 1.8 9.8 2.9 14.7 0.5 2 0.8 4.2 1.3 6.3 0.2 0.7 0.2 1.2-0.3 1.5-6.8-5.6-12.2-12.5-18-19.1-0.6-0.7-0.8-1.5-1-2.4-1.5-17.1-1.5-34.4-0.7-51.5 1.1-21.8 3.6-43.5 7.8-64.8 3.1-15.1 6.8-29.9 11.7-44.5 6.1-18.5 13.7-36.1 22.8-53.2 3.3-5.9 6.8-11.5 10.4-17.1 8.1-12.8 17.4-24.5 27.7-35.5 5.4-5.8 11.2-10.8 16.9-16.3 7.6-7.2 16.4-12.8 24.9-18.9 10-7.1 20.8-12.5 31.8-18 0.5-0.3 1.2-0.5 1.7-1 3.4-2.7 6.9-2.5 10.5 0.2 0.6 0.5 1.5 1.2 2.7 1 0.3 1.2 1.5 1.5 2.3 2.2 5.6 4.2 8.2 9.8 8.3 16.8 0.2 5.2-1 10.5-0.1 15.7 0.6 4.9 1.3 9.8 3.2 14.4 0.5 1.2 1 2.4 1 3.7-4.2 0.2-8.5 1.2-12.7 1.9-1 0.2-1.5-0.5-1.9-1.2-1.1-2.4-2.5-4.7-3.7-7.1-1.2-4.2-2.5-8.3-3.7-12.5-1.2-3.9-3-7.8-6.4-10.4-5.3-4-11.4-3.5-17.3-1.8-11.1 3.2-19.9 10.3-28.1 18.1-10.3 9.8-19.6 20.5-27.9 32.2-7.8 10.8-14.9 22-21.3 33.6-4.6 8.3-8.8 16.8-13 25.3-0.4 0.5-1.2 1.1-0.2 2-7.4 15.2-14.2 30.6-18.3 47.1-2.2 2-2.7 4.5-2.5 7.4-0.2 0.7-0.3 1.4-0.5 1.9-1.2 0.1-1.2 1.1-1.4 1.8-1.6 6.8-3.3 13.6-4.7 20.3-2 10.4-3.9 20.7-4.9 31.2-0.7 6.9-1.7 13.7-1.5 20.6 0 1.1-0.4 1.9-0.5 2.9-0.5-0.2-0.5 0-0.2 0.2z"/>
			<path id="Layer" class="s0" d="m127.2 81.9c1 3 2.9 5.2 5.4 6.9 0.2 0.2 0.3 0.3 0.3 0.5 0.4 1.2 1.4 2 2.4 2.7 3.7 2.9 8.3 3.7 12.5 4.8 4.3 1 8.5 0.8 12.9 1 12.5 0.1 24.9-1.4 37.4 0 0.1 2.2-1 4-2.1 5.7-6 9.2-13 17.6-20.3 25.8-0.1 0.1-0.3 0.5-0.5 0.8-1 1.5-2 3.1-3.2 4.6-2.5 3.5-5.1 7.1-6.7 11.1-1.6 3.6-2.4 7.2-0.6 10.9 2.1 4 1.9 8.4 2.4 12.7-5.1 0-15.4 24.9-19.3 22.4-5.7-3.8-9.8-21.7-15.9-25.1-4.4 9.7-5.4-3.6-8.8-3.8q-3.8 0-7.6 0c-4.7-8.9-0.8-33.1 0-43.1 0.4-4.8 0.9-9.5-1-14.2-2.2-5.5-6.3-9.2-10.8-12.4 7.6-4.4 15.5-8.1 23.5-11.3z"/>
			<path id="Layer" class="s1" d="m334.9 661.6c-10.1 3.2-20.4 6.5-30.6 9.5-1.9 0.5-3.5 1-5.4 1.5-0.7 0-1.4-0.1-2 0-11.4 2.6-23 3.4-34.5 4.9-9.7 1.4-19.5 1.6-29.3 1.9-4.4 0.2-6.9-3.6-5.6-7.8 0.9-2.4 2.5-3.9 4.4-5.6 4.2-3.5 9.3-5.6 14.2-7.9 6.4-3.1 11.4-7.6 14.9-13.7 2.9-4.8 5.8-9.3 10-13.2 3-2.9 6.8-4.6 10.6-4.4 11.5 0.3 22.7-2.1 33.9-3.8 6.9-1 13.7-0.6 20.1 2.7 5.8 3.1 6.6 6.3 4.2 11.4-3.7 7.8-3.5 15.9-4.4 24 0 0.4-0.1 0.4-0.5 0.5z"/>
			<path id="Layer" class="s3" d="m335.6 661.5c0.9-8.2 0.7-16.3 4.4-24.1 2.4-5.1 1.5-8.3-4.2-11.3-6.5-3.4-13.2-3.6-20.2-2.7-11.3 1.5-22.3 4-33.8 3.7-3.9-0.2-7.6 1.5-10.6 4.4-4.1 3.9-7.2 8.5-10 13.2-3.6 6.1-8.5 10.5-14.9 13.7-4.9 2.4-10 4.4-14.2 8-1.9 1.5-3.6 3.2-4.4 5.6-1.5 4.2 1 7.9 5.6 7.7 9.8-0.3 19.6-0.6 29.2-1.8 11.5-1.5 23.2-2.4 34.5-4.9 0.7-0.2 1.4 0 2.1 0-2.9 0.8-5.6 1.8-8.5 2.7-4.4 1.3-8.5 3.2-12.8 4.5-5.3 1.7-10.5 2.8-16 3.1-12.3 0.7-24.5 1-36.8 0.8-5.4 0-8.7-3.2-9-8.6q0-1.3 0-2.5c0.2-3.4 1.5-6.5 2.5-9.7 2.2-4.5 4.4-8.9 6.6-13.5 0.5-1.2 1.2-2.4 1.1-3.7 0.3-3.3-0.7-4.6-3.8-5.1-0.8-0.2-1.5-0.4-2.3-0.5 1.5-3.2 4.9-4.1 7.4-1.6 2.9 2.9 5.6 6.1 9 8.5 2 1.4 4 2.5 6.6 2.7 4.9 0.4 8.6-3 11.1-7.9 2.6-5.1 5.6-9.3 10.9-12.1 3-1.5 6.2-2.8 8.9-4.9 1-0.6 1.7-1.7 3.1-2.2 3.7-1.3 6.6-3.9 10-5.9 3.2-1.9 6-4.2 9.3-6.1 1-0.5 1.3-1.2 1.3-2.2 0.4 0 0.9 0 1.2 0.2 6.3 3 13 4.7 19.8 6.1 4.9 1 9.8 2.2 14.7 2.7 3.4 0.8 6.9 1.5 10.3 2 3.4 0.5 6.8 1.4 10 2.6 1.5 0.6 3.2 1.1 3.6 3.3 0.3 2.1-1.2 2.8-2.4 3.8-2 1.7-4.2 3.2-5.8 5.4-4 5.7-3.9 14.5 0.4 20.5-0.2 0.6 1.3 1.7-0.4 2-4.9 0.5-8.8 3.2-13.5 4.1z"/>
			<path id="Layer" class="s4" d="m556.7 359.8c-9.5-6.3-20-7.9-31.1-6.9-0.7-3.1 0.8-6.3 0.1-9.3 4.3-0.4 4.4-0.2 4.6-4.3 0.4-5 0.9-10.1 1-15.2q0.3-10.2 0.5-20.3c0.2-4.6-0.1-9.2-0.5-13.9-0.1-4.2 0-8.6-0.3-12.9q-0.8-10.9-1.5-21.8c-0.7-8.1-1.7-16.3-2.9-24.4-0.2-0.8-0.7-2 0.8-2.3 4.1 8.1 7.7 16.4 10.7 25 1.4 3.9 2.5 8 3.9 12 2.7 7.5 4.7 15.1 6.4 22.7 5.3 22.5 8.1 45.5 8.3 68.7 0 0.9 0 1.9 0 2.9z"/>
			<path id="Layer" class="s6" d="m527.4 228.3c-1.5 0.3-1 1.5-0.8 2.4 1.2 8.1 2.2 16.2 2.9 24.3 0.6 7.3 1 14.6 1.5 21.9 0.3 4.2 0.2 8.6 0.3 12.8 0.2 4.6 0.7 9.3 0.5 13.9q-0.2 10.2-0.5 20.3c-0.1 5.1-0.6 10.2-1 15.3-0.2 4-0.3 4-4.6 4.2-2.2 0.2-4.2 0.2-6.4 0.3 1-2.7 0.9-5.7 0.9-8.4 0.1-5.3 0.3-10.5 0.6-15.8 0.6-8.1 0.4-16.2 0.4-24.2q0-12.9-1-25.9c-0.9-10.5-1.9-21.1-3.2-31.6-1.7-12.2-3.6-24.2-6-36.3-0.1-0.8-0.5-1.8 0.9-2.2 2.7 6 7.1 11 9.5 17.1 1.8 4.3 4.7 7.7 6 11.9z"/>
			<path id="Layer" class="s1" d="m103.7 93.2c4.7 3.2 8.8 6.9 10.8 12.4 1.9 4.5 1.4 9.4 1 14.2-0.8 10 0.7 19.6 5.4 28.6 2.6 7.1 7.6 11.7 14.6 14.2 2.2 0.9 4.7 0.5 7.1 0.5 3.5 0 4.9 1.2 5.2 4.8 0.2 2.7 0 5.2-1 7.7-2-0.1-3.9 0.7-5.9 0.6-1-0.2-1.4-0.2-1.2-1.4 0.5-5.9-1.9-8.6-7.8-8.5-3 0-6.1-0.5-8.8-2-5.6-3.2-8.9-8.5-12.1-13.9 0-1.3-0.6-2.5-1.1-3.7-1.8-4.6-2.3-9.5-3.2-14.4-0.8-5.2 0.4-10.5 0.2-15.7-0.2-7-2.7-12.6-8.3-16.8-0.8-0.7-2-1-2.4-2.2 2.6-2 4.8-3.5 7.5-4.4z"/>
			<path id="Layer" class="s5" d="m-23.5 454.1c-1.2 2.2 0.3 4.2 0.6 6.3 1.4 5.5 3.8 11 5.8 16.4 0.8 2.2 0.2 3.4-2.4 3.4-6.9 0.1-13.8-0.5-20.8-0.9-5.4-12.8-9.1-26.2-12.2-39.9 4.6 3.4 9.3 6.4 14.2 9.3 3.8 2.2 8 3.2 12.1 4.6 0.8 0.1 1.8 0.5 2.7 0.8z"/>
			<path id="Layer" class="s6" d="m226 645.9c0.2 1.3-0.5 2.5-1 3.7-2.2 4.6-4.4 9-6.6 13.6-1.4 0-2.6 0-3.9 0.1-6.3 1.2-12.7 2.1-19.1 3.4-2.7 0.5-5.8-0.3-7.8 2.2-10.5-1.5-20.7-4.1-30.8-7.1 0.7-1.5 2.2-1.5 3.4-1.5 11.5-1 22.8-3.2 34.3-4.6 4.6-0.5 9-1.5 13.6-2.4 0.6-0.1 1.5 0 1.5-0.8 0.1-0.9-0.9-0.9-1.4-1.2-0.5-0.3-1.3-0.5-1.2-1.4 0-0.6 0.7-0.6 1.2-0.6 5.9-1.2 11.7-2.7 17.8-3.4z"/>
			<path id="Layer" class="s1" d="m384.3 84.4c-2.7 5.2-5.9 10.2-10 14.4-5.5 5.7-12.6 8.8-20.6 9.3-1.7 0.2-3.2 0.3-4.9 0.7-8.3 1.7-12.2 6.1-13.5 14.9-0.9 5.4-1.6 11-2.6 16.4-1.7 10.1-8.6 15.4-18.9 14.6-5.1-0.6-10-1.4-14.4-4.1-2.5-1.5-5.4-3.1-6.9-5.9 4.2 2.2 8.6 3.5 13.2 5 4.4 1.4 8.6 0.5 12.8-1 6.8-2.3 9.3-7.6 10.2-14 0.8-6.1 1.5-12.4 3-18.5 1.7-7.6 7.1-10.8 14.2-11.8 5.3-0.7 10.5-1 15.4-3.4 6.4-3.1 10.5-8.5 14.7-13.9 1.2-1.5 1.7-3.7 3.8-4.7q2.2 0.5 4.5 2z"/>
			<path id="Layer" class="s4" d="m187.6 668.9c2-2.5 5.2-1.7 7.8-2.2 6.2-1.3 12.7-2.2 19.1-3.4 1.3-0.1 2.5-0.1 3.9-0.1-1 3.2-2.4 6.2-2.6 9.6-9.4-1.2-18.9-1.9-28.2-3.9z"/>
			<path id="Layer" class="s5" d="m15.7 571.9c1.5-0.2 3.1 0 3.2 1.9-0.5 0-1.2 0-1.7 0.1-0.5-0.6-1.3-1.1-1.5-2z"/>
			<path id="Layer" class="s2" d="m17.4 573.9c0.5 0 1.2 0 1.7-0.1q0 1 0 2c-0.9-0.5-1.4-1-1.7-1.9z"/>
			<path id="Layer" class="s3" d="m334.9 661.6c0.2 0 0.5-0.1 0.7-0.1-0.2 0-0.3 0-0.7 0.1z"/>
			<path id="Layer" class="s5" d="m247.6 180.2c2.2 1.7 5.1 1.7 7.7 2.9 3 1.5 5.9 3.4 8.9 4.9 3.4 1.9 7.3 3.2 10.5 5.6 0.5 0.3 1.2 0.5 1.9 0.5-0.5 2-1.2 4.1-1.2 6.3 0.2 9.6 6.1 16.5 11 24 0.1 0.8 0.5 1.3 1.3 1.5q0 0.5 0.5 0.5 0 0.5 0.5 0.5c0 0.4 0.2 0.7 0.6 0.5-0.2 1.2 0.6 1.7 1.3 2.4 2.2 2.4 4.6 4.6 6.8 6.8 2.3 2.3 5.4 2.9 8.1 0.8 1.2-0.8 2.4-2 3.7-2.9 3.1-2.3 5.6-5.4 8.8-7.4 3.1 3 6.3 5.9 8.8 9.3 3.2 4.1 7.5 7.6 10.3 12.2 0.2 0.3 0.5 0.7 0.9 0.8 3.4 2.2 4.4 6.3 6.9 9 1 1 1.2 3.4 2.7 3.2 1.5 0 2-2 2.9-3.4 2.7-5 4.4-10.4 6.8-15.5 1.6 0 2.5 1.3 3 2.5 1 2 2.7 3.2 4.1 4.9 0.8 1 1.7 2.1 1.7 3.4q0 0.3 0 0.5c2.7 2.4 3.5 5.9 5.5 8.8 1.4 2 2.6 4.1 3.9 6.1 2.4 3.4 3.8 7.5 5.8 11 0.3 0.4 0.5 1 0.8 1.2 3.1 0.8 2.1 2.7 1.5 4.9-2.3 9.7-4.3 19.3-3.5 29.3 1 12.3 4.2 23.9 13.5 32.7 4.4 4.2 10 7.1 15.8 9.1 0.6 0.2 1.1 0.3 1.8 0.7 3.7 1.5 3.7 1.5 2.7 5.4-0.3 1.4 1 2.2 0.9 3.6-0.5 3.3 0.3 6.7 1 9.9 0.3 1.7-0.5 3.4-0.3 4.8 0.5 2.2 0.8 4.5 0.8 6.8 0 2.8 0.5 5.9-1.2 8.6-1.7 0.3-2.7-1.2-4-1.5-6.5-1.9-12.9-3.8-19.5-4.8-7.3-1.2-14.7-2.2-22.2-1.3-0.3 0-0.6-0.2-1 0-9.6 0.8-18.6 3.9-25.9 10.6-1.3 1-2.5 2.1-3.9 3.1-0.1-1.5 0-3.2-0.5-4.6-0.8-2.7 0.4-5.2-0.1-7.8-0.7-4-0.9-8.3-0.7-12.5 0.2-4.1 1-8 1.7-11.9 0.5-3 1.2-5.9 0.2-8.9-1.1-3.2-2.4-6.5-2.7-10-0.2-1.7-0.2-3.7-1.1-4.9-3-4.3-3.3-9.5-5.5-13.9-1.2-2.5-2.6-5.1-3.4-7.8-0.4-1-1.2-1.9-2.4-0.7-1.9 1.9-2.2 1.7-3.6-0.5-3.3-5.2-5.4-11.1-8.7-16.4-1.7-2.5-2.4-2.9-5-1.2-1.6 1.2-3.2 2.2-4.9 3.4-2 1.4-3 1-4.4-1-2.8-4.4-5.7-9-8.9-13-3.6-4.8-7.8-9-12-13.1-2.6-2.5-4.4-5.7-7.3-7.8-3.9-2.8-7.1-6.4-11.3-8.8-3.8-2.2-6.8-5.7-10.5-8.1-4.8-3-9.7-6.1-15.1-8.3-2-0.8-3.5-2-2.5-4.9 0.5-1.2 0.7-2.9-0.5-4.2 2-1.4 4.2-2.6 6.2-4.1 7-4.7 12.4-10.7 15.4-18.6 2.9-6.6 3.1-13.4 0.7-20.2-0.7-5-2.4-8.9-4.1-13z"/>
			<path id="Layer" fill-rule="evenodd" class="s3" d="m443.7 191.4c5.8-2.2 10.7 0.5 15.6 2.9 6.7 3.2 12.7 8.1 18.6 12.5 4.5 3.4 9.1 6.6 13.2 10.5 5.6 5.4 11.5 10.6 15.4 17.6 5 9.1 5 18.4 1.1 27.9-3.2 8.3-7.1 16.3-9.1 24.9-0.5 2.4-1 4.9-1.3 7.3-1.4 13.7-8.8 22.5-21.4 27.6-7.9 3.4-16.2 5.2-24.8 5.4-1.9 0-3.6-0.2-5.4-0.7-5.6-1.3-10.5-4.2-15.6-6.9-5.4-2.9-10-7-12.9-12.4-3.7-7.1-5-14.5-4.2-22.7 1.4-12.5 6.4-23.5 13.4-33.8 3-4.8 7.3-8.5 11.1-12.6 3.9-4.2 6.8-8.8 6-14.7-0.5-4.4-1.2-8.9-1.7-13.4-0.5-6.6-2.1-13.3 2-19.4zm9.1 129.8c1.2 0.4 2.7-0.5 4.4-0.5 6.3-0.2 12.4-1.5 18.1-4.2 6.8-3.2 10.9-8.8 12.6-16.1 1.3-5.9 0.6-12 1-17.9 0-2.4-0.2-4.6 0.1-7 0.9-5.9 3.8-11 6.8-16.1 4.6-7.9 5.4-16 1.2-24.2-5.1-9.8-13.9-15.7-23.7-20.3-7.4-3.4-12.2-1-16.1 3.7-4 4.9-6.6 10.9-7.9 17.1-2 9.3-6.8 17-13 23.7-3.4 3.6-6.8 7.1-8.7 11.7-2.7 6.6-2.3 13.6-0.8 20.5 0.8 3.7 2.4 7.1 4.2 10.5 2.9 5.6 5.3 11.5 10.2 15.9 1.2 1 2.3 2.4 4 2.7 2.4 0.2 4.8 0.3 7.6 0.5z"/>
			<path id="Layer" class="s1" d="m370.3 388.9c7.4-0.8 14.9 0.2 22.1 1.4 6.6 1.2 13.1 2.9 19.5 4.7 1.4 0.4 2.4 1.9 4.1 1.5 12.1 4.3 24 9.5 36.5 13.1 10.8 3 20.3-0.2 27.7-8.7 6.1-6.9 10-15 13.2-23.7 2.7-7.1 5.1-14.3 7.5-21.4 1.8-5.6 6.2-8.2 11.1-10.2 2.6-0.9 5.1-1.5 7.7-1.9 2.2-0.1 4.2-0.1 6.4-0.3 0.5 3-1 6.3-0.2 9.3-5.7 0.8-11.5 2-16.2 5.8-2.7 2.2-3.7 5.2-4.8 8.1-3.9 10.8-7.1 21.8-12.3 32-3.2 6.2-7.3 11.8-12.7 16.1-7.3 5.7-15.7 6.6-24.5 3.9-7.5-2.2-14.4-5.8-21.7-8.3-11.1-4.1-22.5-8-34.3-10.2-0.5-0.2-1.2-0.3-1.7-0.5-8.3-1.4-16.8-2-25.2-1.7-1.2 0-1-0.8-1-1.5-0.2-2.2 0-4.9-1.2-7.5z"/>
			<path id="Layer" class="s6" d="m357.3 242.7c-2.4 5.1-4.1 10.5-6.8 15.5-0.7 1.4-1.4 3.4-2.9 3.4-1.3 0-1.7-2.2-2.7-3.2-2.5-2.9-3.5-6.8-6.9-9-0.4-0.1-0.7-0.5-0.9-0.8-2.8-4.6-6.9-8-10.3-12.2-2.7-3.4-5.7-6.3-8.8-9.3 1.9-2 4.2-3.2 6.6-4.1 8.6-2.7 14.1-2 19 4.3 0.5 0.6 1.1 1.2 1.6 1.8 2.2 2.6 5.1 3.2 8.3 2.4 2.4-0.5 4.6-1.4 6.5-2.9 0 3.7-1.4 7.3-2.2 11 0.1 1-0.5 2.1-0.5 3.1z"/>
			<path id="Layer" class="s1" d="m443.7 191.4c-4.1 6.1-2.5 12.8-1.7 19.5 0.5 4.5 1.2 8.9 1.7 13.3 0.7 6.1-2 10.7-5.9 14.7-3.9 4.1-8 8-11.2 12.6-6.9 10.3-12 21.3-13.3 33.8-0.9 8.2 0.5 15.6 4.2 22.7 2.9 5.4 7.4 9.5 12.8 12.4 4.9 2.7 10 5.4 15.6 6.9 1.9 0.5 3.6 0.7 5.4 0.7-6.9 1.5-13.3 0-19.4-3.2-2.9-1.6-6-3.1-8.8-4.6-4.9-2.9-9-6.8-11.4-11.8-4-8.2-5-16.8-3.4-25.6 1.7-9.5 5.3-18.1 10.2-26.4 3.9-6.4 9-11.7 14-16.9 3.4-3.4 6.1-7.3 5.8-12.4-0.2-4.7-0.9-9.3-1.5-14-0.9-5.3-1.7-10.5-0.9-15.8 0.7-4.6 3.2-6.6 7.8-5.9z"/>
			<path id="Layer" class="s1" d="m360.3 228.6c-1.9 1.5-4.2 2.4-6.4 2.9-3.2 0.7-6.1 0.2-8.3-2.4-0.5-0.6-1.2-1.2-1.7-1.8-4.9-6.3-10.3-7-19-4.3-2.5 0.9-4.9 2.1-6.5 4.1-3.4 2-5.8 5.1-8.8 7.4-1.2 1.1-2.4 2.1-3.8 2.9-2.7 2.1-5.7 1.5-8.1-0.8-2.2-2.4-4.6-4.6-6.8-6.8-0.6-0.7-1.5-1.2-1.3-2.4 1.3 1.1 2.7 2.1 4.1 3.3 3.3 3 7.7 3 11.3 0 2-1.9 3.9-3.8 6.1-5.5 2.9-2.3 5.6-4.9 8.9-6.7 8.8-4.3 14.6-3.1 21 4.4 2.4 2.7 5.1 4.5 8.8 3.9 4.8-0.9 8.5-2.9 10.2-7.8 1-3.2 1.5-6.6 1.7-10 0.1-6.6-0.7-13.2-2.6-19.6-1-3.8-2.2-7.5-3.2-11.2 2.9 2.9 3.7 6.9 5.1 10.5 1.2 3 1.8 6.2 2.9 9.5 0.5 4 1.1 8.1 1.3 12.3-0.5 6.3-0.7 12.7-4.9 18.1z"/>
			<path id="Layer" class="s2" d="m230.2 235.2c1 1.4 0.9 3.1 0.5 4.3-1 2.8 0.5 4 2.6 4.9 5.2 2.3 10.1 5.2 15 8.3 3.7 2.3 6.8 5.7 10.5 8.1 4.2 2.5 7.4 6.1 11.3 8.8 2.9 2 4.8 5.2 7.3 7.8 4.2 4.2 8.3 8.4 12 13 3.2 4.2 6.1 8.6 9 13 1.3 2.1 2.4 2.4 4.4 1.1 1.7-1.1 3.2-2.2 4.9-3.4 2.5-1.7 3.2-1.4 4.9 1.2 3.4 5.2 5.6 11.1 8.8 16.4 1.3 2.2 1.7 2.3 3.5 0.5 1.2-1.2 2.2-0.4 2.4 0.7 0.9 2.7 2.2 5.2 3.4 7.7 2.2 4.5 2.5 9.7 5.6 13.9 0.8 1.2 0.8 3.4 1 4.9 0.3 3.6 1.7 6.8 2.7 10 1 3.1 0.3 6-0.2 9-0.6 3.9-1.5 8-1.7 11.8-0.1 4.1 0.2 8.3 0.7 12.6 0.4 2.7-0.8 5.2 0.2 7.8 0.5 1.3 0.3 3 0.5 4.5-5.9 5.4-12 10.7-18.6 15.3-8.5 5.9-17.4 11-26.1 16.4-8.8 4-17.6 7.9-26.7 11-0.3 0-0.8 0.2-1.2 0.2-4.4 1-8.8 2.2-13.2 3.2 2.1-2.6 3.6-5.6 4.3-8.7 1.6-6.4 3.2-12.8 4.4-19.3 0.3-2 0.3-3.8 0.5-5.9 0.5-4.9 0.8-10 0.6-14.9-0.1-3.9-0.6-7.6 0-11.5 0.2-0.8-0.3-1.3-0.8-1.8-8.1-9.5-11.5-20-7.4-32.2 0.1-0.7 0.5-1.2-0.2-1.9-2.2-1.8-3.2-4.5-4.4-7.1-2.2-4.7-5.1-9.1-8.3-13.4-5.1-6.6-10.7-13-17.3-18.2-2.3-1.9-4-4.8-7.6-4.6-1.3-8.1-4-15.8-6.7-23.5-1.7-4.8-3.8-9.2-6-13.6-2.7-5.2-6-10-11-13.5-2.8-2.1-6-2.9-9.4-1.5-3.6 1.5-7.3 2.8-11 4.4-1.4 0.5-2.7 0.8-4.1 0.5-3-0.9-6.2-1.6-9.1-3.1-5.8-2.9-10-7.6-14.4-12.2-5.8-6.9-9.3-15-11-23.8 0-3.1 0.2-6 0.2-9 1.2 0 2.5 0 3.7-0.2 3.2-0.7 6.6-0.8 9.8-0.5 5.6 0.7 11.2-0.2 16.6 0.7 0.2 1.2 0.5 2.4 0.7 3.5 1 7.5 3 14.4 9.4 19.3 0.2 1.9 1.6 3.1 3.1 3.9 6.6 4.1 13.7 4.8 21.1 4.1 10.7-1 20.8-3.2 29.8-9.3 0.5 0.3 0.8 0.3 1 0.3z"/>
			<path id="Layer" class="s7" d="m146 246.7c4.4 4.6 8.6 9.3 14.3 12.2 2.9 1.5 6.1 2.2 9.2 3.1 1.3 0.3 2.7 0 4-0.5 3.8-1.4 7.3-2.9 11-4.4 3.3-1.4 6.6-0.5 9.5 1.5 4.9 3.4 8.3 8.1 11 13.5 2.2 4.4 4.4 8.8 5.9 13.6 2.7 7.6 5.4 15.4 6.8 23.5-0.2 1 0.5 2 0 3-1 0.2-1.9-0.5-2.7-1-1.7-1-2.7-2.8-4.7-3.4-1.4-0.1-1.9-1-2.2-2q-2.6-7.9-5.1-15.7c-1-3.1-1.9-6.5-5.9-7.3-2.6-0.7-5.1-1.9-7.7-2.5-6.4-2.1-12.8-4.3-19.7-4.3-1.4 0-2.8-0.3-3.9-0.8-2.4-1.2-4.9-1.9-7.3-3.2-1.7-1.1-3.7-1.9-5.9-1.9-5.3 0-10.4 0.5-15.6 0.3-4.9 0-9.6 1.4-14 2.6-4.4 1.2-9.2 1.8-13.6 3.2-6.1 1.9-11.6 4.6-17.6 6.6-2.8 1-5.4 2.5-8.1 4.1-2.2 1.1-4.2 2.7-6.2 3.7-2.4 1.2-3.3 3.9-5.6 5.2-1 0.5-1.9 1.2-2.9 1.9-4.1 3.2-8.1 6.4-12.5 9.1-1.9 1.2-3.4 2.4-4.8 4.1-1 1.5-2.3 2.7-3.8 3.9-3.3 2.2-5.8 5.4-7.3 8.4-1.4 2.6-3.4 4.6-4.8 7.2-1.1 2.2-3 3.9-4.4 5.9-2.8 3.9-4 8.8-6.6 12.8-2.7 4.8-4.4 10.2-6.2 15.3-1.2 3.4-2.4 6.6-3.1 10-0.8 4.4-1.6 8.8-2.3 13.2-1 6.9-1.4 14-1.7 21 0 1.1 0.5 2.2 0.3 3.3-0.3 2.8-0.1 5.6 1.4 8.2 1 1.7 1 3-0.7 4.4-1 0.8-1.9 1.7-1.5 3.2 1.7 6.3 1.8 12.9 4.4 19 0.5 1.3 0.1 2-0.7 3-1.2 1.2-2.7 2.2-3.4 3.9-3.5 1.7-7.1 3.9-11.3 3.5-7-0.5-13.7-1.3-20.5-2.8 0.7-3.8-1.2-7.1-1.7-10.7-0.3-2.4-1.5-4.6-1.3-7.1 0.1-1-0.7-1.2-1.4-1.5-1.8-0.5-3.5-1-5.4-1.6-3.4-0.8-4.2-1.8-3.9-5.4 0.3-4-1.2-7.9-0.8-11.8 0.5-6.5-1.4-12.9 0.6-19.1 0.4-1.1 0.4-2.1 0-3.3-0.1-0.6-0.5-1.3-0.1-1.8 1.7-4.9 1.2-10 2.3-15.1 1.2-4.7 1.6-9.8 3.3-14.4 1.6-4.7 2.2-9.6 4.2-14.4 1.5-3.2 2.5-6.9 4-10.1 2.2-4.9 3.9-10.2 7.1-14.8 1.2-1.8 2.1-4 3.1-6 1.7-3.9 5.1-6.6 6.6-10.7 0.3-0.9 1.2-1.7 2.2-1.7 4.9-0.5 9.5-2.2 14-3.6 1.6-0.5 2.4-1.8 3.2-3 1.6-1.9 3.3-3.6 4.9-5.3 3.1-3.3 6-6.9 9.4-10.1 2.7-2.5 5.7-4.9 8.7-7.1 1.4-1 2.1-2.2 3.3-3.2 4.4-3.9 9.4-7 14.3-10.4 2.6-1.8 5.8-3.3 8.8-4.5 1.6-0.5 2.6-1.6 3.1-3.6 1.5-6.4 4.9-11 11-14.4 7.1-3.9 14.9-5.6 22.5-7.9 0.3-0.2 0.8-0.2 1.2-0.4 2.2-1.2 3.9-1.5 4.4 1.9 0.1 1.4 1.3 1 2.2 0.8q6.8-1.2 13.7-2.5c1.3-0.3 2.8 0.3 4.4 0 1-0.3 1 1 1.3 1.9 1.4 4.5 3.6 8.6 6.3 12.5 1 1.5 2 2.9 4.4 2 1.3-0.5 3-0.1 4.7-0.1 0.5-0.2 1.4 0 1.9-1.1z"/>
			<path id="Layer" class="s1" d="m135.1 224.9c0 3-0.1 5.9-0.1 9-2.1 0-4.1 0.5-6.1 0.5-1.9 0-2.4-0.7-2.2-2.4 0.3-3.4 0.8-6.8 1.8-10 1.9-5.9 3.4-11.8 5.5-17.8 0.8-2.5 0.3-3.2-2.4-2.8-4.2 0.5-8.6 1-12.9 1.7-1.3 0.1-2.5 0.5-3.9 0.6-1.8 0.2-3.3 0-4.7 2.2-0.7 1.2-3.5 1.6-5.4 1.7-3.9 0.4-7.4 1.7-11.2 2.6-4.2 0.8-7.9 2.7-12 3.9-4 1.1-8.1 2.7-12 4.5-2.4 1.2-5.1 1.9-7.4 2.9-3.3 1.4-6.3 3.2-9.3 4.6-3.9 1.7-7.3 4.2-11.2 6.1-3.7 1.7-7.1 4.4-10.7 6.6-2.8 1.7-5.4 3.7-8.1 5.7-0.8 0.7-2 1.2-2.5 2.4-0.9 1.9-3.1 1.9-4.4 3-4.9 4.1-10.3-3.2-14.6 1.6-2 2.3-4.4 4.4-6.4 6.6-2.9 3.2-5.7 17.2-8.6 20.5-4.8 5-8.5 10.8-12.7 16.2-2.4 3.2-4.7 6.3-6.3 9.8-0.5 1.4-2 1.9-3.4 1-3.3-1.8-6.9-3.7-9.8-6.6-0.5-0.5-0.5-1-0.5-1.5 0.2-0.7 0.4-1.3 0.5-1.8 1.2-2.4-6.3-5.1-5.4-7.5 4-16.4 10.8-43 18.2-58.1 2.4-4.2 12.8-8.4 15-12.6 2.7-5.1 5.9-9.9 9.1-14.8 5.3-7.9 10-16.4 17.3-23 2.7-2.5 6.1-3.9 8.9-6.3 3.4-2.7 7.8-3.2 11.4-5.5 1.5-1.1 3.4-1.2 4.7-2.4 5.2-4.4 12-5.9 18.3-8.5 3.4-1.3 6.9-2.3 10.3-4 2.4-1.2 4.9-2.6 7.4-2.2 2.2 0.3 3.6-0.6 5.3-1.4 2-0.8 3.9-1.7 5.9-2.4 3-1 6.3-1.7 9.3-2.5 1-0.3 1.9-1 3.1-1 1.1 2.3 2.5 4.7 3.7 7.1 0.3 0.7 0.8 1.3 1.8 1.2 4.3-0.7 8.5-1.9 12.7-1.9 3.2 5.4 6.5 10.7 12.2 13.9 2.7 1.5 5.6 2 8.8 2 5.9 0 8.3 2.6 7.8 8.5-0.2 1.2 0.3 1.3 1.2 1.3 2 0.2 3.9-0.6 5.9-0.5-0.4 1.2-0.5 2.4-0.9 3.6-2 6.3-4.2 23.3-6.1 29.4-1.6 6-3.2 11.4-4.9 16.8z"/>
			<path id="Layer" class="s8" d="m-56.4 416.5c-1 0-1.5-0.7-2-1.2-2.2-2.2-4.2-4.5-6.4-6.9-1.7-1.9-0.7-3.9-0.3-5.9 1-8.3 2.1-16.6 3.3-24.9 0.5-3.7 1-7.3 1.6-11 0-0.7 0.5-0.9 1-0.9 0 4.9-0.4 10 0.1 14.9 0.7 7.7 0.7 15.4 1.7 23.1 0.4 4.2 1.2 8.4 1 12.8z"/>
			<path id="Layer" class="s8" d="m-59.4 364.4q-0.5-0.3 0-0.5 0 0.2 0 0.5z"/>
			<path id="Layer" class="s9" d="m11.5 453.6c0.5-1.7 2.2-2.7 3.4-3.9 0.8-1 1.1-1.7 0.6-3.1-2.7-6-2.8-12.6-4.4-18.9-0.3-1.5 0.6-2.4 1.6-3.2 1.7-1.4 1.7-2.7 0.6-4.4-1.5-2.6-1.6-5.3-1.3-8.2 0.2-1.1-0.5-2.2-0.3-3.3 0.5-7 0.6-14.1 1.6-21 0.7-4.4 1.7-8.8 2.4-13.2 0.7-3.4 1.9-6.8 3.1-10 1.8-5.3 3.5-10.5 6.2-15.3 2.4-4.2 3.7-8.9 6.6-12.8 1.5-2 3.2-3.7 4.4-5.9 1.4-2.6 3.4-4.6 4.7-7.2 1.7-3.2 4.3-6.2 7.3-8.4 1.5-1 2.7-2.4 3.9-3.9 1.2-1.7 2.7-3.1 4.8-4.1 4.3-2.7 8.4-5.9 12.5-9.1 0.8-0.7 1.8-1.4 2.8-1.9 2.2-1.3 3.1-3.9 5.6-5.2 2.2-1.2 4.3-2.6 6.3-3.7 2.7-1.6 5.2-3.1 8.1-4.1 5.9-2 11.5-4.7 17.6-6.6 4.4-1.4 9.1-2 13.5-3.2 4.4-1.2 9.3-2.6 14.1-2.6 5.2 0 10.3-0.3 15.5-0.3 2.1 0 4.1 0.8 6 1.9 2.3 1.3 4.9 2 7.2 3.2 1.2 0.7 2.4 0.8 3.9 0.8 7-0.1 13.4 2.2 19.8 4.3 2.6 0.8 5.1 2 7.6 2.5 4.1 1 4.9 4.2 5.9 7.3 1.9 5.2 3.4 10.5 5.1 15.7 0.4 1 0.9 1.7 2.2 2 2.1 0.4 3.2 2.2 4.8 3.4 0.8 0.5 1.5 1.2 2.7 1-0.9 13.4-5.6 25.4-12.2 36.8-3.7-2.1-4.1-2.9-2.9-7 0.5-1.7 0.3-2.8-1-3.9-3.9-2.7-7.4-5.9-11.7-7.9-1.8-0.9-3-1-4.2 0.8-1.2 1.7-2.5 1.7-4.4 1.1-3.1-1.2-6.1-2.6-9.3-3.8-8-2.5-16.1-3.5-24.4-3.9-6.4-0.1-12.5 0.9-18.6 2.4-9.5 2.2-18.2 5.8-26.2 11-5.1 3.4-10.1 7.3-14.2 12-1.5 1.7-3.1 3.4-4.7 4.9-1.9 1.7-3.9 3.6-4.1 6.3 0 1-0.2 1.9-0.9 2.7-5.2 7.6-8.2 16.4-10.6 25.2-0.5 1.7-1.4 3.6-0.9 5.4 0.6 2.2 0 2.6-2.2 2.1-3.5-0.7-3.7 0.1-4 3-0.4 2.6 0.2 5.1-0.2 7.6-0.3 3.1-0.2 6 0.5 9 0.4 1.9 1 3.7 0.2 5.8-3.2-0.9-5.4-3.6-8.5-4.9-1.8-0.9-3.3-0.9-4.9 0.6-5 4.6-10 9-14 14.4-3.7 5.1-7.8 10-11.7 15.1-3.2 3.5-6.6 6.1-11.3 6.6z"/>
			<path id="Layer" fill-rule="evenodd" class="s9" d="m39.4 480c0.5-1.5 1.7-2.7 2.4-4.1 1.3-1.2 2.5-2.3 3.9-3.3 3.5-2.9 7.9-3.8 12-5.3 6.6-2.5 13.3-3 20.4-2.4 3.9 0.4 8 0.9 11.9 1.7 4.4 0.9 8.9 1.7 13.3 2.4 5.6 0.8 11 2 16.6 1.2 3.4-0.5 5.8 1 7.5 4.2 1.5 3.2 2.5 6.6 3.2 10.2 0.5 4.5 1.2 9.3 1.7 13.8 0.6 5.6 1.2 11.4 1.7 17-0.4 0-0.9 0-1.2-0.2-3.6-1-3.6-1-3.6 2.7 0 4.6 1.5 8.8 2.7 13.2 0.4 1.7 0.4 2.4-1.7 2-1.5-0.3-3-0.6-4.5-0.6-2.6-0.2-5.3-1.2-7 2-0.3 0.7-1.2 0.3-1.8 0.3-4.1-0.1-8.1-1.3-12-2.3-3.6-1-7-2.9-10.7-3.9-4.1-1-7.4-3.2-10.1-5.9-6.3-6.3-13.1-11.6-20.5-16.3-6.4-4.2-11.9-9.3-15.6-16.2-1.7-3.1-4.5-5-5.9-8.2-0.2-1.2-1.2-2.2-2.7-2zm83.7 10c2.6 0 3.1-0.5 2.4-2.9-0.3-1-0.7-2-0.8-3-0.2-3.4-1.4-6.5-3.3-9.4-1.3-2-3.3-3.5-6.1-3-4.2 0.9-8.4 0.2-12.6-0.5-4.3-0.5-8.5-1-12.7-2-0.5-0.2-1.5-0.4-1.9 0.3-0.3 0.7 0.5 1.2 0.9 1.5 3.2 2.9 6.4 5.8 10.8 7 6.8 1.7 12.7 4.9 17.7 9.8 1.7 1.2 3.6 2.2 5.6 2.2z"/>
			<path id="Layer" class="s7" d="m39.4 480c1.5-0.2 2.5 0.8 2.9 1.9 1.3 3.2 4.4 5 5.9 8.1 3.7 6.8 9.1 12 15.6 16.2 7.2 4.8 14.2 10 20.4 16.3 2.7 2.7 6.1 4.7 10.2 5.9 3.5 1 6.9 2.7 10.6 3.9 3.9 1.2 7.8 2.4 12 2.4 0.7 0 1.6 0.1 1.9-0.4 1.5-3.2 4.4-2.2 6.9-2 1.6 0.2 3.1 0.3 4.6 0.7 2 0.5 2-0.4 1.7-2-1.2-4.5-2.7-8.7-2.7-13.3 0-3.7 0.2-3.7 3.5-2.7 0.4 0.2 0.9 0.2 1.2 0.2 0.4 4.9 1.6 9.7 3.1 14.4 1.2 2.9 2.5 5.9 3.7 8.8 3.5 8.5 6.1 17.3 7.8 26.2-0.7 0.4-1.4 0.7-2.1 0.7-2.2 0.4-2.8 1.2-2.2 3.6 0.7 2.3 0.6 5 1.2 7.4 0.7 2.6-0.1 2.9-2.3 2.7-1.1 0-2.6-0.7-3.1 0.7-0.5 1.4-1.3 1.2-2.2 1.4-4.5 0.5-9.1-0.2-13.7-0.7-2-0.2-4-0.4-6.1-0.7-4.4-0.5-8.8-1.7-13.2-2.5-2.5-0.5-6.7 0.5-7.4-4.1 0-0.2-0.3-0.3-0.7-0.3-3.4-0.7-6.2-2.9-9.8-2.7 0.5-2.9 1.5-5.6 3-8 5.5-9.1 2.4-16.3-3.2-23.4-5.7-7.1-13.2-12.2-19.9-17.7-7.1-6-14.9-11.2-21.3-18-3.1-3.2-5.6-6.6-7.1-10.8-1.9-4.1-1.6-8.3 0.8-12.2z"/>
			<path id="Layer" class="s10" d="m90 466.6c-3.9-0.8-7.8-1.3-11.9-1.7-7.1-0.6-13.8-0.1-20.4 2.4-4.1 1.5-8.5 2.5-12 5.2-1.4 1.1-2.6 2.2-3.9 3.4-2.7-0.6-2.6-3.4-3.8-5-0.8-1.1-1-1.4-2.2-0.9-3.8 1.5-3 1.5-4.2-2-0.7-1.9-1.7-3.4-2.5-5.1-2.1-3.7-3.1-8-4.9-11.7-0.7-1.3-1.2-2.7-1.7-4 3.9-5 7.9-9.9 11.7-15.1 4-5.6 8.9-10 14-14.4 1.5-1.4 3-1.5 4.9-0.7 2.9 1.4 5.1 4.1 8.5 4.9 1 1.1 2.2 1.4 3.3 1.9 5.3 1.9 10.5 2.7 16.1 2.5 0 0.9-0.2 1.9 0.3 2.7 2.6 4.6 3.9 9.7 7 14.1 0.7 1 1 2.2-0.7 2.5-3.4 0.5-5.9 2.9-9.1 4.1-0.7 0.3-1.2 0.8-0.5 1.5 2.2 2.4 3.3 5.4 5.5 7.8 2.2 2.5 5.5 4.2 6.5 7.6z"/>
			<path id="Layer" class="s11" d="m87.1 570.4c3.6-0.2 6.6 2 9.8 2.7 0.2 0 0.5 0.2 0.7 0.3 0.7 4.6 4.7 3.6 7.4 4.1 4.4 0.8 8.8 1.9 13.2 2.5 2.1 0.4 4.1 0.4 6.1 0.7 4.6 0.5 9.2 1.2 13.7 0.7 1-0.2 1.9 0 2.2-1.4 0.5-1.3 2-0.6 3.1-0.6 2 0 3-0.2 2.3-2.7-0.6-2.4-0.5-5.1-1.2-7.5-0.6-2.2 0-3.2 2.2-3.5 0.7-0.2 1.4-0.6 2.1-0.7 1.2 5.2 2.2 10.3 2.9 15.5 0.3 3.3 0.8 6.5 0.5 9.9-4.1-1.2-4.3-0.9-4.6 3.2-0.2 3.2-0.7 6.4-1.2 9.6-1 5.4-3 10.2-7.1 13.9-0.2 0-0.3 0.2-0.3 0.2-7.5 3.5-14.8 1.7-21.9-1.2-2.7-1-5.4-2.4-7.6-4.4-0.5-0.5-1-0.9-1.7-0.7-3.5-3.7-7.2-7.3-10.6-11.2-7.8-8.4-11.9-17.9-10-29.4z"/>
			<path id="Layer" class="s12" d="m370.3 388.9c1.2 2.6 1 5.3 1 8 0 0.7-0.2 1.5 1 1.5 8.5-0.5 16.9 0.2 25.2 1.7-0.1 4.9-0.3 10-0.5 14.9 0 1.7-1 3.2-1 5.1 0 2.7 0.7 4.4 3.6 5.2 3 0.9 5.7 2.4 8.1 4.4 0.6 0.5 1.3 1 1.2 2.1-2.4 2.2-1.2 5.2-1.9 7.7-1.4 4.9-1 10.2-2.5 15.3-0.9 2.5-0.4 5.6-1.4 8.1-2.4 5.6-2.7 11.7-5.2 17.3-0.9 1.8-2.1 3.7-2.4 5.7-0.9 5.9-3.6 11-6.1 16.3-3.6 0-7.3-0.5-10.8-0.9-1.4-0.1-3.2-0.8-4.3 1-3 5.8-5.4 11.9-8.6 17.6-3.7 7-7.9 13.8-12 20.4-0.7 1-1 2.5-2.4 3-0.8 0.3-1.7 1-1 2.2 0.5 1 1.5 0.7 2.6 0.5 1.5-0.3 3-1.2 4.7-1.3 0.2 1.7-0.3 2.8-1.7 3.9-3.2 2.7-4.2 6.9-7.1 9.9-0.5 0.5-0.2 1.7-0.2 2.7-4.2 2.4-7.9 5.6-10.6 9.7-2.9 4.1-5.4 8.3-9 11.7-3.9 3.9-7.6 3.9-11.7 0.1-1.7-1.5-3.2-3.5-5.4-4.5-3.5-1.9-7.4-2.9-11.5-3.1-6.6-0.3-13.2 0.2-19.6 0.9-0.2-1.7 0.7-2.9 2.2-3.4 0.7-0.2 1.2-0.7 1.5-1.2 4.2-4.4 8.8-8.5 13.4-12.5 1-0.9 2.9-1.9 2.2-3.2-0.5-1.1-2.6-1.2-3.9-0.7-0.5 0.2-1.2 0.2-1.5-0.5-0.2-0.7-0.2-1.4 0.1-1.9 0.9-1 1.7-2.2 2.7-3.2 5.3-4.6 9.5-9.8 13.9-15.1 4.2-5 7.1-11.3 11.5-16.2 1.2-1.4 1-3.4 2.2-4.6 4.2-4.2 6.6-9.8 9.2-15.1 2.5-5.2 5-10.3 7.1-15.9 2.3-5.9 4.5-11.8 6.2-18.1 0.9-3.2 2.2-6.2 2.9-9.3 1.3-5.4 2.9-10.7 3.4-16.2 0.5-5.5 1.7-10.9 2.5-16.3 0.2-1 0.5-1.3 1.5-1.5 3.4-0.3 6.6-1.2 10-1 1.4 0 1.9-0.5 1.9-1.9 0-3.4 1.2-6.8 0.7-10.1-0.4-2.6 0.6-5.1 0.1-7.7-0.1-0.6 0.4-1.7-1-1.5-1.7 0.4-3.5 0.2-5.4 0.7-7.3 1.9-13.7 5.4-19.5 10.3-1.1 1-1.7 0.2-1.8-0.8-0.2-1.6-0.4-3.2 0-4.8 0.3-1.8 0.3-3.5-0.4-5.4 7.3-6.8 16.3-9.6 25.9-10.6 1.2 0.6 1.5 0.6 1.9 0.6z"/>
			<path id="Layer" class="s1" d="m357.8 545c-1.7 0-3.2 0.8-4.8 1.4-0.8 0.1-1.8 0.5-2.5-0.6-0.7-1 0.2-1.6 1-2.2 1.4-0.6 1.7-2 2.4-3 4-6.8 8.3-13.4 12-20.3 3-5.8 5.6-11.9 8.6-17.6 1-1.9 2.7-1.2 4.2-1 3.6 0.3 7.1 0.8 10.9 0.8 1.7 1 3.5 0.3 5.2 0.7 7.3 1.3 13.4-1.2 18.1-6.8 3.7-4.2 6.1-9.1 8.5-14 3.4-7 7.8-13.2 12.7-19 2 0.9 3.3 2.7 5.4 3.9 5.6 3.4 11.6 5.8 17.6 8.3 3.7 1.7 7.4 3.2 10.3 6.1 3.5 3.4 6.2 9.6 4.2 16.6-2.2 7.4-6.8 13.5-11.5 19.3-7.8 9.5-18.4 13.9-29.8 16.6-9.9 2.3-19.9 4.9-30.1 7.2-4.7 1.2-9.4 1.6-14.4 1.9-8.4 0.7-17-0.2-25.5 1.4-0.8 0-1.7 0.1-2.5 0.3z"/>
			<path id="Layer" class="s8" d="m555.9 396.7c-0.4 13.6-3.1 26.6-8.3 39.1-2.2 5.3-6.6 7.8-12.4 8-5.4 0.1-10.6-1.2-15.9-1.7-5.9-0.7-11.8-0.2-17.6 0.8-3.9 0.7-7.4 2.7-11.5 2.7-6.9 0-11.1-6.6-8.3-12.8 1.7-4.1 4.4-7.3 7.3-10.5 2.2-2.4 4.6-4.8 6.6-7.5 4.9-6.4 7.6-13.9 9.5-21.8 1.7-6.9 3.4-13.9 6.7-20.3 4.1-7.3 10.5-11.4 18.8-11.9 4.6-0.3 9 1.6 12.5 4.6 3.4 2.9 6.5 6.1 8.3 10.2 1.9 3.8 2.7 8.1 3.6 12.1 0.7 3.1 0.7 6.1 0.7 9z"/>
			<path id="Layer" class="s6" d="m312.3 578.3c2.2 1.1 3.7 3.1 5.4 4.6 4 3.7 7.8 3.7 11.6-0.2 3.6-3.5 6.1-7.6 9-11.6 2.7-4.1 6.4-7.3 10.7-9.7 5.9-2.4 11.8-2 17.6 0.4 12.5 5 25.2 3.5 37.7 0 6.2-1.7 12.5-3.4 18.4-5.6 0.5-0.2 1.2-0.2 1.7-0.4 0 1-0.3 1.9-1.2 2.6-6.7 5.6-13.5 11.3-20.3 16.9-4.5 3.9-9.8 6.9-14.5 10.5-8 5.9-16.4 11-24.7 16.2-0.7 0.6-1.7 0.7-1.5 1.7 0.1 1.1 1.1 0.9 2 1.2 0.8 0.4 1.9 0.5 2 1.5 0.2 1.2-1 1.4-1.7 1.9-4 2.4-8.3 4.7-12.5 6.9-1.5 0.9-3-0.3-4.6-0.1-0.8 0-1.6-0.2-2.5-0.4-2.4-0.5-4.6-1.5-7.1-1.1-3.4-1.4-7.1-1.4-10.5-2.4 0.4-0.4 0.5-0.9 1-1 3.9-2.4 8-4.8 11.9-7.1 0.5-0.4 1.7-0.5 1.3-1.4-0.1-0.7-1.2-0.8-1.8-0.8-7.1-0.4-14.2-1.1-21.5-0.9-3.2 0-6.6 0-9.8 0.4-3.6 0.3-7.1 0-10.5 1-2-0.4-3.6-1.7-4.8-3.4 0.9-3.2 3.9-4.4 6.3-6.1 0.3-0.2 0.8-0.2 1-0.5 2.9-4.6 8.3-6.6 11.4-11 0.1-0.7 0.5-1.4 0.5-2.1z"/>
			<path id="Layer" class="s8" d="m434.2 463.1c-4.9 5.9-9.3 12-12.7 18.9-2.3 4.9-4.9 9.8-8.4 14.1-4.9 5.6-10.8 8.1-18.1 6.7-1.7-0.3-3.6 0.6-5.3-0.6 2.4-5.3 5.1-10.5 6.1-16.3 0.4-2 1.6-3.9 2.4-5.7 2.5-5.6 2.9-11.7 5.2-17.3 1.1-2.4 0.5-5.6 1.4-8.1 1.7-4.9 1.3-10.4 2.5-15.3 0.7-2.5-0.5-5.5 1.9-7.7 2.9 1.1 4.1 3.8 5.9 6 4.6 5.1 7.3 11.6 11.5 17 2 3 4.6 5.9 7.6 8.3z"/>
			<path id="Layer" class="s12" d="m337.5 613.7c2.5-0.3 4.7 0.7 7.1 1.2 0.8 0.2 1.7 0.3 2.5 0.3 0.3 1.6-1 1.6-1.9 2.1-0.8 0.5-2.2 0.7-2 2.3-3.5-0.5-6.9-1.1-10.3-2 0-1 0.8-1.2 1.5-1.5 1.4-0.7 2.7-0.9 3.1-2.4z"/>
			<path id="Layer" class="s11" d="m343.4 399.4c0.5 1.7 0.7 3.6 0.3 5.4-0.3 1.6-0.1 3.1 0 4.8 0.2 0.8 0.5 1.8 1.9 0.8 5.7-4.9 12.2-8.3 19.4-10.3 1.9-0.5 3.6-0.2 5.5-0.7 1.3-0.3 0.8 0.9 1 1.5 0.3 2.6-0.7 5.1-0.2 7.7 0.5 3.3-0.7 6.7-0.7 10.1 0 1.4-0.5 1.9-1.8 1.9-3.4-0.2-6.8 0.5-10 1-1 0.2-1.4 0.5-1.5 1.5-0.9 5.4-2.1 10.9-2.6 16.3-0.7 5.6-2.2 10.8-3.4 16.2-0.8 3.2-2 6.3-2.8 9.3-1.7 6.1-3.9 12.2-6.3 18.1-2 5.5-4.6 10.7-7.1 16-2.5 5.2-4.9 10.6-9.1 15-1.2 1.2-1.1 3.2-2.2 4.6-4.4 4.9-7.1 11.2-11.5 16.2-4.4 5.3-8.7 10.7-13.9 15.1-1 0.9-1.9 2-2.7 3.2-0.5 0.5-0.5 1.2-0.2 1.9 0.4 0.7 0.9 0.7 1.5 0.5 1.6-0.5 3.6-0.3 3.9 0.7 0.5 1.2-1.3 2.3-2.2 3.2-4.5 4-9.1 8.1-13.3 12.5-0.5 0.5-0.9 0.9-1.6 1.2-1.5 0.5-2.3 1.7-2.2 3.4q-12.6 2-25.3 4c-8.7 1.4-17.3 3.1-25.9 4.3-9.7 1.3-19.5 2.7-29.3 1.2-2.5-0.4-4.9-1.2-7.4-1.9q-1.5-1-3.1-2c0.5-0.7 1-1.6 1.7-1.7 3.9-1.2 7.6-2.4 11.5-3.2 3.1-0.7 5.8-2.2 8.7-3.6 0.5-0.2 1-0.5 0.8-1-0.2-0.7-0.8-0.5-1.2-0.5-2.7 0.3-5.1-1.2-7.6-1.4-0.7 0-1.5 0-1.7-1 0-1 0.7-1.5 1.5-1.7 6-1.8 11.4-4.7 17-7.4 6.5-3.1 12.5-7 18.7-10.7 4.4-2.5 8.3-5.4 12.2-8.8 2.5-2.2 5.9-3.4 8-6.3 1.1-1.8 3-3 4.5-4.4 5.6-5 10.7-10.8 15.8-16.4 4.9-5.4 8.4-12 12.3-18.1 2.5-4.2 5.3-8.3 7.5-12.7 3-5.9 5.7-12 7.9-18.4 1.7-4.9 4.1-9.7 5.1-14.8 0.7-3 1.8-5.4 4.5-6.9 4.3-2.4 6-6.1 5.8-10.8 0-0.7 0.3-1.7-0.3-2.1-0.9-0.5-1.6 0.5-2.1 1-7.9 5.6-16.4 10.5-25.3 14.4-0.7 0.4-1.6 1.2-2.2 0.4-0.6-0.7-0.2-1.6 0.1-2.4 0.9-2.9 2.1-5.8 2.1-8.8 8.6-5.4 17.5-10.5 26-16.4 6.6-4.6 12.7-10 18.6-15.3 0.2-1.6 1.5-2.7 2.9-3.7z"/>
			<path id="Layer" class="s12" d="m297.4 608.5c0 1-0.4 1.7-1.4 2.2-3.2 1.7-6.1 4.2-9.3 6.1-3.4 1.8-6.2 4.5-10 5.9-1.1 0.3-2 1.3-3 2.2-2.7 2-5.9 3.4-9 4.9-5.2 2.7-8.3 7.1-10.8 12-2.5 4.9-6.3 8.3-11.2 8-2.5-0.2-4.5-1.4-6.6-2.7-3.3-2.4-6.1-5.6-8.9-8.5-2.6-2.4-6-1.7-7.5 1.5-4.9-0.5-10-1.2-14.9-1.7-6.4-0.6-12.6-1.7-19.1-2.8-1.3-0.4-2.7-0.7-3.9-1.4-3.3-2.2-3.3-2.5-0.5-5.4 0.2-0.2 0.7-0.5 0.7-0.7 0.2-4.7 4.1-5.7 7.3-7.3 10.6-4.5 21.5-8.8 32.1-13.7 10.3-4.9 21-8.6 32-11.7 4.1-1.1 8.3-2.2 12.5-2.7 0.2 1.4-0.8 2.1-1.9 2.6-0.5 0.3-1.5 0.5-1.1 1.2 0.3 0.8 1.3 0.6 1.8 0.3 4.3-1.2 8.3 0.3 12.5 0.3 1.7 0 3.6 0.2 5.3 0.9 5.9 2.4 9.8 7.3 14.9 10.5z"/>
			<path id="Layer" class="s2" d="m190.1 581.9q1.5 1 3.1 2c0 1.4-0.9 1.7-1.9 1.9-2.7 0.2-5.1 1.7-7.9 1.7-2.1 0.2-3.9 1.3-6.3 0.8-2.4-0.5-3.2 1.9-2 3.9 2.8 4.6 6.9 8.2 11.5 11 0.5 0.4 1.3 0.5 1.3 1.4-0.1 0.8-0.8 0.7-1.5 1-7.6 2.5-15.6 3-23.3 4.2-4.6 0.7-4.4 0.7-6-3.7-1-2.9-2.2-5.2-5.7-5.1 0.5-3.5 0.7-7.3 0.5-10.8 0.3-3.2-0.2-6.6-0.5-9.8-0.7-5.3-1.7-10.5-2.9-15.6-1.7-9-4.4-17.8-7.8-26.2-1.2-3.1-2.5-6-3.7-8.8q1.3 0 2.5 0c2.2 0.1 4.3 0 4.1-3.3 0-0.6 0.3-1.1 1-1.1 3.7 0.1 7.3-0.5 11-0.7 5.9-0.5 11.9-1.5 17.6-2.9 1.2-0.3 1.7-0.2 1.5 1-0.1 2.7 0.4 5.6-0.3 8.3-0.5 2.2 0.2 2.9 2.2 2 3.9-1.5 7.9-1.5 11.7-3.5-0.2 0.7-0.4 1.5-0.5 2.2-2.1 8.8-4.8 17.4-6.5 26.4-0.8 4.2-0.7 8.5 2.4 12.2 1 1.3 1.9 2.9 2.2 4.9 0.3 2.7 2 4.9 4.2 6.6z"/>
			<path id="Layer" class="s1" d="m297.4 608.5c-5.1-3.4-9-8.1-14.7-10.5-1.7-0.7-3.6-0.9-5.3-0.9-4.2 0-8.3-1.5-12.5-0.3-0.7 0.2-1.7 0.5-1.9-0.3-0.3-0.9 0.7-1.1 1.2-1.2 1-0.5 2-1.2 1.9-2.6 6.1-0.8 12.3-1.3 18.4 0.4 3.2 0.8 5.8 2.7 8.3 4.7 1.2 1.5 2.7 2.9 4.7 3.4 1.9 1.9 4.3 2.5 6.5 3.4 5.7 2.5 11.6 4.7 17.9 5.4 0.3 0.8 0.8 1.2 1.7 0.7 1.2 0.1 2.2 0.1 3.4 0.3 3.4 1 7.1 1 10.5 2.4-0.4 1.5-1.9 1.7-2.9 2.2-0.9 0.3-1.5 0.5-1.5 1.5-5.1-0.5-9.8-1.7-14.7-2.7-6.8-1.4-13.6-3-19.8-6.1-0.4 0.3-0.9 0.3-1.2 0.2z"/>
			<path id="Layer" class="s12" d="m152.1 590.2c0.1 3.7 0 7.3-0.5 10.8-1.1 3.8-1.6 7.6-4.1 10.7-2.2 2.9-4.7 4.9-8.5 5.2 4.1-3.7 6.3-8.6 7.1-13.8 0.5-3.3 1.1-6.5 1.2-9.7 0.5-4.1 0.7-4.2 4.8-3.2z"/>
			<path id="Layer" class="s12" d="m138.7 617.1c0.2 0 0.2-0.2 0.3-0.2 0 0.2-0.1 0.4-0.3 0.2z"/>
			<path id="Layer" class="s1" d="m318.7 58c5.7 0.8 11.7 1.5 17.2 3.4 5 1.5 9.9 2.5 14.4 4.9 2.4 1.2 4.8 2.5 7 4.2 2.3 1.9 3 3.6 2.2 6.5-0.9 3.3-2.7 6.2-4.9 8.8-2.9 3.2-6.1 5.9-9.5 8.8-7.3 6.1-15.4 11.1-21.5 18.4-3.6 4.2-7.4 7.8-12.4 10.2-4.7 2.3-9.6 2.8-14.8 2.3-6.6-0.6-12.9-2.3-19.2-4.5-7.4-2.6-14.2-6.6-19.9-11.9-3.4-3-6.3-6.8-8.8-10.6-0.5-0.7-0.5-1.6-0.5-2.4 1.2-2.4 2.2-4.8 4.4-6.4 4.4-3.6 8.5-6.3 13.7-6.9 6.3-0.5 12.8 0.5 19 1.2 3.2 0.3 6.6 0.2 9.8 0.7 4.1 0.7 8.4 1.1 10.3-3.3 0.8-2.2 2.2-4.1 3.3-6.1 3.6-6 6.8-11.5 10.2-17.3z"/>
			<path id="Layer" class="s8" d="m318.7 58c-3.2 5.8-6.6 11.3-9.8 17.1-1.2 2-2.6 3.9-3.4 6.1-1.9 4.4-5.4 5.2-9.5 4.6-3.2-0.6-6.6-0.4-9.8-0.7-6.3-0.7-12.5-1-18.8-0.5-5.2 0.5-10.5 1.3-14.7 4.9-2.2 1.7-3.2 4.2-4.4 6.4-2.4-1.5-3.4-4.1-5.2-6.1-2.9-3.2-6-6.2-9.5-9-6.3-4.9-13.4-5.9-20.8-6.2-9.8-0.5-19.6 2.4-29.1 4.8-7.1 1.7-14 2.3-21.3 2.1-5.9-0.1-11.2-2.2-15.4-6.7-1-1.2-1.2-1.9 0.3-2.8 2.4-1.5 4.8-3.3 7.1-4.9 1.4-1 3.1-0.8 4.6-1.1 7.8-1.4 15.6-2.6 23.2-4.5 5.4-1.3 10.8-2.3 16.2-3.2 5.8-0.8 11.3-1.5 17.1-2.2 8.8-1 17.8-1.2 26.6-1.7 10.3-0.5 20.6-0.3 30.9-0.1 6.8 0.1 13.5 0.3 20.1 0.8 8.5 0.9 17.1 1.4 25.6 2.9z"/>
			<path id="Layer" class="s8" d="m226.8 158.7c-3.2-0.8-6.4-1.5-9.6-2.4-4.1-1-8.1-2.3-12.4-2.7-3.3-0.3-6.6-1.5-9.8-2-3.7-0.7-7.6-1.2-11.3-1.7-2.2-0.3-3.4-1.3-3.4-3.5 0-4.1 0.9-7.8 1.9-11.7 0.1-0.9 0.3-1.7 0.6-2.7 2.4-6.6 6-12.7 10.7-18 4.2-4.9 9.8-8.3 15.7-10.6 4.6-1.9 9.3-3.1 14.1-3.1 7.4 0 14.7 1.9 19.6 8.1 3.2 4.3 2.5 9.2 0.7 13.8-2.7 6.7-6.6 13-10.5 19.2-3.6 5.5-6.3 10.9-6.3 17.3z"/>
			<path id="Layer" class="s8" d="m224.6 175.5c0.3 7.3 0.5 14.7-0.6 21.9-0.6 4.9-2.5 9.5-7.4 11.6-7.4 2.9-14.6 0.9-21.1-2.8-4.1-2.4-7.6-5.8-10.6-9.7-3.9-5-7.1-10.7-8.3-17.1-1.5-6.9-1.5-13.9-0.2-20.8 0.2-1.1 0.5-1.9 0.7-2.7 1.1-3.9 3.4-17.1 5.4-20.6 1.1-1.9 1.5 7.3 3.6 8.1 3.4 1.5 7.1 3 10.6 4.3 3.1 1.1 6.4 1.7 9.5 3.1 3.9 1.8 8.1 2.7 12.1 3.8 3.2 0.9 5.4-2.9 8.6-2 0 8-2.7 16.4-2.3 22.9z"/>
			<path id="Layer" class="s1" d="m247.3 209c1.7-2.4 2.2-5.3 2.4-8.1 0.8-8.3-1.9-15.9-5.4-23.2-2.2-4.4-3.9-9-4.1-14.1-0.3-5.2 0.2-10.5 2-15.5 1.7-5 5.3-8.3 9.3-11.2 4.6-3.2 9.5-5.8 14.9-6.6 5.3-0.9 10.8-1.5 15.4 2.5 1 1 2.2 1.9 2.5 3.2-12.3-4.2-28.2 1.9-35 11.7-5.6 8.1-6.2 16.9-3.7 26.2 0.5 2.1 1 4.3 2.2 6.1 1.5 4.1 3.4 8 4.7 12.2 2.4 6.8 2.2 13.6-0.6 20.2-1.9-0.2-3.4-1.4-5.1-2.1 0.2-0.3 0.3-0.8 0.5-1.3z"/>
			<path id="Layer" class="s1" d="m198.2 97.8c-12.5-1.4-24.8 0.1-37.3 0-4.3 0-8.7 0.1-12.9-1-4.4-1.1-8.8-1.9-12.5-4.8-1-0.8-2-1.5-2.4-2.7 2.2 0.2 4.1 1.4 6.1 1.9 4.4 0.8 8.8 1.5 13.2 1.7 12.2 0.3 24.4-0.9 36.7-0.5 2.4 0 4.7 0.3 6.9 1.1 1.7 0.7 3.3 1.9 2.2 4.3z"/>
			<path id="Layer" class="s1" d="m291.8 144c-0.5 0.2-0.7-0.2-0.9-0.7 0.4 0.2 0.7 0.2 0.9 0.7z"/>
			<path id="Layer" class="s1" d="m292.3 144.5q-0.5 0-0.5-0.5 0.2 0.2 0.5 0.5z"/>
			<path id="Layer" class="s3" d="m356.4 177.6c1 3.8 2.3 7.6 3.3 11.4 1.9 6.6 2.8 13.4 2.6 20.1 0 3.5-0.5 7-1.7 10.3-1.8 5-5.6 7.1-10.5 8-3.8 0.6-6.6-1.4-9-4-6.6-7.7-40.4 12.4-49.6 16.8 0.3-2.1 17.9-22.8 16.7-23.7-3.5-2.9-5.6-6.4-1.8-8.6v-6.3c3.7-0.9 19.6-3.6 23.6-2.9 3.5 0.5 1.8 1.9 5.2 1.7 3.5-0.2-8.6-2.5-7.2-5.8 1.6-3.8 9.7 1.7 9-2.3-0.9-5-3.2-0.2-9-1.1-3.5-0.5-5 7-8.5 7.5-6.6 1-6.5-6.6-13.1-5.3-5.4 1-9.4 3-13.8 7-1.7 0.7-2.7-8.6-3.7-7-0.6 0.7-1.3 2.2-2.3 1.2-1.7-1.8-3.5-3.3-5.6-4.5-0.5-0.4-0.5-1.1-0.5-1.6 6.4-4.3 13.6-6.8 21.1-8.1 7.6-1.4 15.5-2.3 23.3-3.3 5.4-0.7 11-1.6 16.2-3.3 2.2-0.7 4.3-1.6 6.1-3 1.7-1.5 3.4-1 4.8 0.4 1.8 1.7 2.8 4.1 4.4 6.4z"/>
			<path id="Layer" class="s12" d="m317.7 209.5l-0.2 0.2c-3.7 2.2-3.7 2.2-0.3 5 1.2 1.1 2.7 1.7 2.3 3.6-3.3 1.9-6.1 4.4-8.9 6.8-2.1 1.7-4.1 3.7-6.1 5.4-3.6 3-8 3-11.4 0-1.3-1.2-2.7-2.2-4-3.2q-0.3-0.3-0.5-0.5-0.3-0.3-0.5-0.5-0.3-0.3-0.5-0.6c0-1-0.5-1.5-1.4-1.5-4.9-7.4-10.8-14.4-11-24 0-2.2 0.7-4.2 1.2-6.3 1.2-2 2.5-4 4.9-5.4 0 0.5 0 1.4 0.5 1.5 2 1.2 3.7 2.7 5.4 4.4 1 1 1.7-0.5 2.2-1.2 1-1.5 2.2-2.7 3.7-3.3 1.4 0.8 2.8 1.5 3.9 2.5 4.4 4.1 9.8 6.8 13.6 11.2 0.5 0.5 1.3 1 2 1.2 2.5 1 4.1 2.5 5.1 4.7z"/>
			<path id="Layer" class="s1" d="m92.9 143.8c-1.2-0.2-2.1 0.7-3.1 1-3 0.9-6.3 1.6-9.3 2.6-2 0.6-4.1 1.5-5.9 2.3-1.7 0.7-3.1 1.6-5.3 1.4-2.5-0.3-5 1-7.4 2.2-3.4 1.5-6.9 2.7-10.3 4.1-6.3 2.5-12.9 4-18.3 8.4-1.5 1.2-3.2 1.4-4.7 2.4-3.6 2.4-8 2.9-11.4 5.6-2.8 2.2-6.1 3.7-8.9 6.2-7.3 6.6-12 15.1-17.3 23.1-3.2 4.7-6.4 9.6-9.1 14.7-2.4 4.2-4.8 8.5-7 12.7-0.8-0.9 0-1.4 0.2-2 4.2-8.5 8.5-17 13-25.3 6.5-11.6 13.7-22.8 21.4-33.7 8.2-11.6 17.5-22.3 27.9-32.1 8.3-7.8 16.9-14.9 28-18.1 6-1.7 11.9-2.2 17.3 1.8 3.4 2.6 5.2 6.5 6.4 10.4 1.2 4 2.7 8.3 3.8 12.3z"/>
			<path id="Layer" class="s11" d="m-43.5 277.4c-0.8 2.5-1.2 5.1-2.5 7.4-0.2-2.7 0.3-5.4 2.5-7.4z"/>
			<path id="Layer" class="s5" d="m167.3 169.2c0.3 6.4-0.4 12.9-1.4 19.3q-0.5 3.8-0.5 7.6c-0.8 5.9-0.7 11.9-0.1 18-5.6-0.9-11.2 0-16.6-0.7-3.1-0.3-6.5-0.2-9.8 0.5-1.2 0.2-2.4 0.2-3.8 0.2 1.6-5.4 3.3-10.7 4.9-16.1 2.1-6.3 4.1-12.4 6.1-18.5 0.4-1.1 0.5-2.3 0.9-3.5 1-2.6 1.2-5.1 1-7.8-0.3-3.6-1.7-4.9-5.2-4.7-2.4 0-5 0.3-7.1-0.6-7-2.5-12.2-6.9-14.6-14.2q3.8 0 7.6 0c3.4 0 5.9 2.2 8.8 3.8 6.1 3.3 10.8 8.4 16.8 12.1 3.8 2.1 7.9 4.6 13 4.6z"/>
			<path id="Layer" class="s12" d="m246.8 210.3c1.7 0.7 3.2 1.9 5.1 2.1-2.9 7.9-8.5 13.9-15.4 18.6-2.1 1.3-4.1 2.7-6.3 4.1-0.3 0-0.5 0.1-0.8 0.1-0.4-1-1.4-1.2-2.1-1.7-0.6-0.5-1.8-0.5-1.8-1.7 0-1 1-1.1 1.7-1.5 8.1-5.1 15.2-11.2 19.6-20z"/>
			<path id="Layer" class="s1" d="m286.4 224.4c1 0 1.3 0.5 1.3 1.5-0.6-0.2-1.2-0.7-1.3-1.5z"/>
			<path id="Layer" class="s1" d="m287.9 225.9q0.3 0.3 0.5 0.5-0.8 0-0.5-0.5z"/>
			<path id="Layer" class="s1" d="m288.4 226.3q0.3 0.2 0.5 0.5-0.7 0.2-0.5-0.5z"/>
			<path id="Layer" class="s1" d="m288.7 226.8q0.3 0.2 0.6 0.5-0.6 0.2-0.6-0.5z"/>
			<path id="Layer" class="s8" d="m452.8 321.2c-2.8-0.2-5.2-0.3-7.6-0.7-1.7-0.1-2.9-1.7-4-2.7-5.1-4.2-7.3-10.3-10.2-15.9-1.7-3.4-3.4-6.8-4.2-10.5-1.5-6.9-2-13.9 0.8-20.5 1.9-4.5 5.3-8.1 8.7-11.6 6.2-6.8 11-14.4 13-23.7 1.3-6.3 3.9-12.2 7.9-17.1 3.9-4.8 8.8-7.1 16.1-3.8 9.8 4.4 18.6 10.4 23.7 20.4 4.2 8.1 3.4 16.4-1.2 24.2-2.9 5-5.9 10.1-6.8 16-0.3 2.4-0.1 4.6-0.1 7-0.2 5.9 0.5 12-1 17.9-1.7 7.3-5.8 12.9-12.6 16.1-5.7 2.7-11.8 4.1-18.1 4.2-1.7 0.2-3.2 0.9-4.4 0.7z"/>
			<path id="Layer" class="s10" d="m188.3 529.6c-3.8 1.9-8 2-11.7 3.5-2 0.9-2.7 0.2-2.2-2 0.7-2.7 0.2-5.6 0.3-8.3 0-1.3-0.3-1.3-1.5-1-5.7 1.4-11.7 2.5-17.6 2.9-3.7 0.3-7.3 1-11 0.7-0.7 0-1 0.5-1 1.1 0.2 3.1-1.7 3.3-4.1 3.3q-1.2 0-2.5 0c-1.7-4.8-2.7-9.5-3-14.4-0.5-5.6-1.1-11.4-1.7-17-0.5-4.5-1.2-9.3-1.7-13.8 6.9-0.2 13.5 2.3 20.6 1 5.3-1 10.7-1.2 15.7-3.2 0.9-0.4 1.9-0.9 1.1-2.1-1.6-2.3 0.1-3.2 2-3.9 4.9-1.5 9.3-3.9 13.9-6.2 3.3-1.9 5.9-4.9 9.1-7 3-1.8 5.4-4.5 7.8-6.9 3.7-3.9 6.9-8.3 9.6-13 1.9-3.3 4.1-6.5 5.3-10.2 1-3.4 2-6.8 3.2-10.1 1.2-3.8 1.8-7.7 2.2-11.4 0.5-5.1 0.5-10.3 0-15.4-0.5-4.7-1.7-9.5-3.1-13.9-1.7-5.2-3.9-10.3-6.7-15.2-2.6-4.2-5.1-8.5-8.7-12 0.7-2.2 2.7-3.6 3.1-6 6.6-11.3 11.3-23.5 12.2-36.7 0.5-1-0.4-2 0-3 3.5-0.2 5.2 2.8 7.6 4.5 6.6 5.3 12.2 11.7 17.2 18.3 3.2 4.1 6.1 8.5 8.3 13.4 1.2 2.5 2.4 5.1 4.4 7.1 0.7 0.7 0.4 1.2 0.2 1.9-4.1 12.2-0.9 22.8 7.4 32.1 0.5 0.5 1 1 0.9 1.9-0.7 3.9-0.2 7.6 0 11.5 0.1 4.9-0.2 10-0.7 14.9-0.2 2-0.2 3.9-0.5 5.9-1.2 6.6-2.7 13.1-4.4 19.3-0.8 3.1-2.2 6.1-4.2 8.7-3.8 0.6-7.5 1-11.4 1-2.8 0-5.7-0.4-8.6 0.3-7.8 1.5-13.5 6.1-18.1 12-5.2 6.8-9.3 14.4-12.5 22.4-4.2 10.3-7.8 21-10.8 31.8-1.9 4.2-2.7 9-4.4 13.2z"/>
			<path id="Layer" class="s7" d="m188.3 529.6c1.7-4.4 2.5-9 3.9-13.4 1.8-0.3 3.3-1.8 5-2.5 0.9-0.4 1.7-0.7 2.4-0.2 0.8 0.5 0 1.4-0.2 2-1.5 5.5-3 10.9-4.5 16.1-0.2 0.5-0.4 1.2 0 1.7 0.5 0.5 1.1 0.4 1.5 0 3-2.3 7.9-2.5 9.1-7.3 0.2-0.8 1-1 1.7-1.3 2-1 4.2-1.7 5.9-3.1 4.8-3.7 10.2-6.6 14.9-10.5 5.3-4.4 10.7-8.3 15.2-13.3 5.3-6 10.5-11.9 14.6-19 1-1.7 2.4-3 4.6-3.4 1.5-0.3 3-0.8 4.5-1.3 2.4-0.9 5.3-1.2 6.6-3.2 3.4-5 5.6-10.7 7.5-16.5 0.1-0.5 0.8-1.5 0.1-2-0.8-0.7-1.7 0-2.5 0.2-3.6 1.2-7.3 2.3-10.8 3.4-0.7 0.1-1.7 0.5-2.4-0.4-0.5-0.7 0.3-1.2 0.5-1.7 0.5-3 2.4-5.6 2.2-8.8 9.1-3 17.9-6.9 26.7-11 0 3.1-1.1 5.9-2 8.8-0.2 0.9-0.7 1.7-0.2 2.4 0.7 0.8 1.6 0 2.2-0.3 9-3.9 17.5-8.7 25.4-14.4 0.7-0.5 1.2-1.4 2-1 0.7 0.3 0.4 1.3 0.4 2 0.3 4.7-1.5 8.4-5.8 10.8-2.7 1.5-3.9 3.9-4.5 7-1.1 5-3.4 9.8-5.1 14.7-2 6.4-4.9 12.5-8 18.4-2.2 4.4-4.9 8.5-7.4 12.7-3.9 6.3-7.5 12.7-12.4 18.1-5 5.6-10.1 11.4-15.7 16.5-1.5 1.3-3.4 2.7-4.6 4.4-2 2.8-5.4 4-7.9 6.2-3.7 3.4-7.8 6.3-12.2 8.8-6.2 3.8-12.2 7.6-18.8 10.7-5.5 2.5-11 5.6-16.9 7.4-0.8 0.2-1.5 0.7-1.5 1.7 0 1.2 1 1.1 1.7 1.1 2.5 0.1 4.9 1.6 7.6 1.3 0.5 0 1-0.2 1.2 0.5 0.2 0.5-0.4 0.9-0.9 1-2.8 1.2-5.4 2.9-8.6 3.6-3.9 0.8-7.8 2-11.5 3.2-0.7 0.2-1.2 1.2-1.7 1.7-2.2-1.7-3.7-3.7-4-6.4-0.2-1.9-1.1-3.6-2.2-4.9-3.1-3.8-3.1-8-2.4-12.2 1.7-9 4.2-17.6 6.4-26.4 0.7-0.4 0.7-1.1 0.9-1.9z"/>
			<path id="Layer" class="s9" d="m267.9 445.1c0.2 3.2-1.7 5.8-2.2 8.8-0.1 0.5-1 1-0.5 1.7 0.5 0.9 1.6 0.5 2.4 0.4 3.6-1.1 7.3-2.2 10.8-3.4 0.9-0.4 1.7-0.9 2.6-0.2 0.6 0.5 0 1.5-0.2 2-2 5.8-4.1 11.4-7.4 16.5-1.4 1.8-4.3 2.2-6.6 3.2-1.6 0.5-2.9 1-4.6 1.3-2.2 0.4-3.6 1.9-4.6 3.4-4 7-9.3 12.9-14.5 19-4.6 5-10.2 9.1-15.3 13.3-4.7 3.9-10.1 6.8-14.8 10.5-1.7 1.4-3.9 2.1-6 3.1-0.6 0.3-1.5 0.5-1.7 1.3-1.1 4.8-5.9 4.9-9.1 7.3-0.5 0.4-1.2 0.5-1.5 0-0.5-0.5-0.2-1 0-1.7 1.5-5.4 3-10.8 4.6-16.1 0.1-0.6 1-1.5 0.1-2-0.6-0.5-1.5-0.2-2.3 0.2-1.7 0.7-3.1 2.2-5.1 2.5 3-10.8 6.6-21.5 10.8-31.8 3.2-8 7.3-15.6 12.5-22.3 4.6-6.1 10.5-10.5 18.1-12.1 2.9-0.5 5.8-0.3 8.7-0.3 3.7 0 7.6-0.3 11.3-1 4.4-1 8.8-2.2 13.2-3.2 0.5-0.2 1-0.2 1.3-0.4z"/>
			<path id="Layer" class="s11" d="m246.8 210.3c-4.4 8.8-11.5 14.8-19.6 20-0.7 0.5-1.7 0.5-1.7 1.5 0 1.2 1 1.4 1.8 1.7 0.9 0.5 1.7 0.7 2.1 1.7-9 6.1-19.1 8.5-29.8 9.3-7.4 0.7-14.7 0-21.2-4-1.5-0.9-2.8-2.1-3-3.9 1 0.1 1.7 1.2 2.7 1.5 7.3 2.9 14.6 2.5 22.2 1.7 6.2-0.7 11.8-3.2 17.6-5.4 1.2-0.5 3.3-1 3.3-2.1-0.1-1.3-1.8-2.5-3.5-2.8-0.5-0.2-1-0.4-1.4-0.5-3-0.9-6-2.1-9.1-2.7-3-0.7-5.9-1.9-8.8-2.9-5.1-1.7-10.5-1.5-15.6-3.7-0.3-0.2-0.6-0.2-1-0.2-2.7 0.2-5-0.4-7.7-0.9-2.8-0.3-5.3-1.1-8-1.3-0.2-1.2-0.5-2.4-0.7-3.6-0.5-5.9-0.7-12 0.2-17.9 4.6-0.2 9.1 0.5 13.5 1 1.5 0.2 1.7 0.8 1.7 2 0 1.7 0.2 3.4 0.4 5.1 0.3 2.7 2 3.2 4 3.7 3.1 0.7 6.4 0.5 9.3 1.7 5.6 2.1 11.7 2.2 17.3 4.8 4.5 2.2 8.8-0.4 12.3-3.4 2.6-2.2 4.6-4.8 5.6-8 0.3-1.3 1.2-1.8 2.4-1.2 5 2.4 10.1 4.9 15.2 7.3q-0.3 1-0.5 1.5z"/>
			<path id="Layer" class="s7" d="m165.9 217.5c2.7 0.1 5.3 1 8 1.3 2.5 0.3 5.1 1 7.8 0.9 0.3 0 0.6 0.1 1 0.1 4.9 2.2 10.3 2.1 15.5 3.7 3.1 1.1 6 2.2 8.8 2.9 3.1 0.7 6.1 1.9 9.2 2.7 0.5 0.2 1 0.4 1.3 0.5 1.7 0.5 3.4 1.6 3.6 2.9 0.1 1.2-2.1 1.7-3.4 2-5.8 2.2-11.3 4.8-17.6 5.5-7.4 0.8-14.9 1.2-22.2-1.7-1-0.4-1.7-1.4-2.7-1.6-6.2-4.9-8.3-11.8-9.3-19.2z"/>
			<path id="Layer" class="s13" d="m205.5 349c-0.3 2.3-2.4 3.7-3 5.9-2.4 3-4.3 6.4-6.6 9.5q-7.1 9.4-15.3 17.8c-5.4 5.5-11.5 9.9-17.7 14.5-10.5 8-22.8 12.7-34.7 18.1-4.1 1.9-8.4 3.1-12.8 4.6-11.2 3.7-22.5 6.6-34.6 7.1-5.4 0.2-10.8-0.7-16-2.5-1.2-0.5-2.6-0.9-3.4-1.9 0.8-1.9 0.2-3.9-0.2-5.7-0.7-3.1-0.7-6-0.5-9 0.2-2.6-0.2-5.1 0.2-7.6 0.3-2.9 0.5-3.8 4-3.1 2.2 0.5 2.7 0 2.2-2-0.5-1.9 0.5-3.7 0.9-5.4 2.4-8.8 5.4-17.6 10.6-25.3 0.6-0.8 0.9-1.5 0.9-2.7 0-2.7 2-4.5 4-6.2 1.7-1.6 3.4-3.2 4.8-4.9 4-4.9 9.1-8.7 14.2-12.1 7.9-5.4 16.7-8.9 26.2-11 6.3-1.3 12.4-2.5 18.6-2.3 8.3 0.1 16.4 1.2 24.4 3.9 3.2 1 6.2 2.3 9.3 3.7 1.7 0.7 3.2 0.7 4.4-1 1.2-1.7 2.5-1.5 4.2-0.9 4.4 2.1 7.8 5.3 11.7 8 1.3 1 1.5 2.2 1 3.9-0.8 3.7-0.5 4.4 3.2 6.6z"/>
			<path id="Layer" class="s14" d="m81 426.3c11.9-0.5 23.2-3.3 34.5-7.1 4.2-1.5 8.6-2.7 12.9-4.5 12-5.3 24.2-10.2 34.7-18.2 6-4.5 12.3-9.1 17.7-14.5q8.1-8.4 15.2-17.8c2.4-3 4.3-6.4 6.6-9.5 3.6 3.6 6.1 7.8 8.7 12.1 2.8 4.9 5 9.9 6.7 15.2 1.4 4.4 2.7 9.1 3.1 13.9 0.5 5.2 0.5 10.3 0 15.4-0.4 3.7-0.9 7.6-2.2 11.3-1.2 3.4-2.2 6.8-3.2 10.2-1 3.7-3.2 6.9-5.3 10.1-2.7 4.6-5.9 9.2-9.6 13.1-2.4 2.5-4.8 5-7.8 6.9-3.2 2-5.8 5.1-9.1 6.9-4.4 2.4-9 4.9-13.9 6.3-1.9 0.5-3.6 1.4-2 3.9 0.6 1.2-0.2 1.7-1.1 2-5 2.1-10.4 2.2-15.7 3.2-6.9 1.2-13.7-1.1-20.6-1-0.7-3.5-1.7-6.7-3.2-10.1-1.6-3.2-4.1-4.8-7.5-4.3-5.7 0.9-11.1-0.3-16.6-1.1-4.4-0.7-8.9-1.6-13.3-2.4-1-3.4-4.3-5.1-6.5-7.5-2.2-2.3-3.3-5.4-5.5-7.7-0.7-0.7-0.2-1.2 0.5-1.6 3-1.2 5.7-3.5 9.1-4 1.9-0.4 1.5-1.6 0.7-2.6-3.1-4.2-4.6-9.5-7-14-0.5-0.7-0.3-1.5-0.3-2.6z"/>
			<path id="Layer" class="s13" d="m123.1 490c-2 0-3.9-0.9-5.4-2.2-5.1-4.8-11-8.1-17.7-9.8-4.6-1-7.7-4.1-10.9-7-0.5-0.3-1.3-0.8-0.8-1.5 0.3-0.7 1.2-0.5 1.8-0.3 4.3 1 8.5 1.5 12.7 2 4.3 0.5 8.5 1.4 12.7 0.5 2.7-0.5 4.8 1 6.1 3.1 1.9 2.7 3.1 5.9 3.2 9.3 0 1.1 0.5 2 0.9 3 0.3 2.4 0 2.9-2.6 2.9z"/>
			<path id="Layer" class="s0" d="m327 611.2c-1.2-0.2-2.2-0.2-3.4-0.4-0.3-1-1-0.8-1.7-0.6-6.3-0.7-12.2-2.9-17.9-5.4-2.2-1.1-4.6-1.7-6.5-3.4 3.4-1 7-0.7 10.5-1 3.2-0.4 6.6-0.4 9.8-0.4 7.1-0.2 14.3 0.5 21.5 0.9 0.7 0 1.7 0.1 1.9 0.8 0.3 1-0.9 1-1.4 1.4-3.9 2.3-7.9 4.7-11.8 7.1-0.5 0.1-0.7 0.6-1 1z"/>
			<path id="Layer" class="s6" d="m321.9 610.2c0.7 0 1.5-0.2 1.7 0.6-0.9 0.4-1.4 0.2-1.7-0.6z"/>
			<path id="Layer" class="s8" d="m317.7 209.5c-1-2-2.6-3.6-4.8-4.4-0.6-0.2-1.5-0.7-2-1.2-3.9-4.6-9.3-7.3-13.5-11.2-1.2-1-2.6-1.7-3.9-2.5 4-3.9 9.3-4.6 14.7-5.6 6.6-1.2 13.2-1 19.6-2.2 3.4-0.5 7-0.5 10.3 0 5.6 0.9 7.8 5.3 8.7 10.2 0.6 3.9 0.5 7.8-1 11.6-1.4 3.3-3.8 4.8-7.1 5-3.4 0.1-6.8-0.4-10-0.9-3.9-0.8-7.5 0.4-11 1.2z"/>
		</g>
	</g>
</svg>