<svg width="109" height="211" viewBox="0 0 109 211" fill="none" xmlns="http://www.w3.org/2000/svg">
<path d="M34.7363 189.251L35.3981 192.612C35.7938 194.642 37.5779 196.108 39.6475 196.108H65.8252C67.8948 196.108 69.6789 194.642 70.0747 192.612L70.7364 189.251" fill="#A5A4A4"/>
<g opacity="0.25">
<path d="M70.7329 189.251L70.0776 192.605C69.6754 194.636 67.8977 196.102 65.8282 196.102H58.043C60.1125 196.102 61.8902 194.636 62.2924 192.605L62.9477 189.251H70.7329Z" fill="#371A45"/>
</g>
<g opacity="0.6">
<path d="M42.2043 196.102H39.6481C37.5721 196.102 35.7944 194.636 35.3922 192.605L34.7305 189.251H37.2931L37.9548 192.605C38.3571 194.636 40.1347 196.102 42.2043 196.102Z" fill="white"/>
</g>
<path d="M104.695 194.554C104.708 196.539 102.47 197.72 100.841 196.584C99.2064 195.449 97.0461 193.86 94.3991 191.725C86.1208 185.049 74.2549 188.488 74.2549 188.488L84.0967 160.974C85.0374 161.24 85.9457 161.538 86.815 161.869C98.2333 166.209 103.547 176.155 104.526 190.084C104.63 191.537 104.689 193.023 104.695 194.554Z" fill="#5D5FEF"/>
<path d="M31.682 188.488C31.682 188.488 31.189 188.345 30.3456 188.176C27.0174 187.508 18.1358 186.405 11.5378 191.725C9.99377 192.971 8.61189 194.035 7.41167 194.924C6.54881 195.559 5.78326 196.111 5.09557 196.584C3.46068 197.713 1.22243 196.539 1.23541 194.554C1.35219 177.167 7.24948 165.08 21.8338 160.974L31.682 188.488Z" fill="#5D5FEF"/>
<g opacity="0.6">
<path d="M3.18764 196.065C3.18764 196.403 3.24603 196.721 3.36281 197C2.22098 196.837 1.22836 195.871 1.24134 194.554C1.35811 177.167 7.25541 165.08 21.8397 160.974L22.5209 162.868C8.85786 167.312 3.30442 179.191 3.18764 196.065Z" fill="white"/>
</g>
<g opacity="0.25">
<path d="M30.3452 188.176C27.017 187.507 18.1354 186.404 11.5375 191.724C9.9934 192.97 8.61153 194.034 7.41131 194.923C6.0489 187.001 12.329 180.754 17.7786 175.687C23.5332 170.341 22.4238 164.041 21.9372 162.212L26.3618 176.906L30.3452 188.176Z" fill="#371A45"/>
</g>
<path d="M83.8113 162.126C81.878 169.872 79.6073 177.566 77.0447 185.15C76.2142 187.603 73.9111 189.251 71.3225 189.251H34.7321C32.15 189.251 29.8469 187.603 29.01 185.15C26.4473 177.566 24.1766 169.872 22.2433 162.126C12.5637 123.355 11.1624 83.3263 21.7567 49.4088C27.1285 32.21 35.5949 16.5812 47.6361 3.49558C50.549 0.329598 55.5121 0.329598 58.425 3.49558C70.557 16.685 79.0558 32.4436 84.4212 49.8046C94.8858 83.6313 93.4585 123.504 83.8113 162.126Z" fill="white"/>
<path d="M83.8092 162.128C81.8759 169.874 79.6052 177.569 77.0426 185.153C76.2121 187.605 73.909 189.253 71.3204 189.253H34.73C32.1479 189.253 29.8448 187.605 29.0078 185.153C26.4452 177.569 24.1745 169.874 22.2412 162.128H83.8092Z" fill="#5D5FEF"/>
<path d="M84.4203 49.8111C64.6977 54.333 43.8594 54.333 21.9116 49.8111L21.7559 49.4088C27.1277 32.21 35.5941 16.5812 47.6352 3.49558C50.5481 0.329598 55.5112 0.329598 58.4242 3.49558C70.5561 16.685 79.055 32.45 84.4203 49.8111Z" fill="#5D5FEF"/>
<g opacity="0.25">
<path d="M32.4072 188.785L40.7958 189.252H34.7363C33.9189 189.252 33.1274 189.084 32.4072 188.785Z" fill="#371A45"/>
</g>
<g opacity="0.25">
<path d="M83.8092 162.126C81.8759 169.872 79.6053 177.566 77.0426 185.15C76.2122 187.603 73.9091 189.251 71.3205 189.251H60.2525L59.2015 189.121L57.612 188.933L58.0337 175.685L56.7557 165.83C56.7557 165.83 60.285 171.649 62.8216 175.892C63.4899 177.008 65.1507 176.84 65.5919 175.62C67.0062 171.669 68.3362 167.686 69.5753 163.683C81.3569 125.658 85.003 85.9279 76.4393 51.5757C72.0471 33.9422 64.4371 17.7295 53.0642 3.88486C52.2403 2.89225 51.2217 2.16563 50.1123 1.72446C52.8761 0.524246 56.2302 1.11462 58.4165 3.4956C70.5485 16.685 79.0473 32.4436 84.4126 49.8046C94.8837 83.6313 93.4564 123.504 83.8092 162.126Z" fill="#371A45"/>
</g>
<g opacity="0.25">
<path d="M60.2531 189.253H59.001C59.0723 189.214 59.1372 189.175 59.2021 189.123L60.2531 189.253Z" fill="#371A45"/>
</g>
<g opacity="0.25">
<path d="M59.0009 189.251C58.0018 189.841 56.8211 190.146 55.6014 190.075L40.79 189.251H59.0009Z" fill="#371A45"/>
</g>
<g opacity="0.25">
<path d="M58.4949 121.58C69.7098 121.58 78.8013 112.488 78.8013 101.273C78.8013 90.0583 69.7098 80.9668 58.4949 80.9668C47.28 80.9668 38.1885 90.0583 38.1885 101.273C38.1885 112.488 47.28 121.58 58.4949 121.58Z" fill="#371A45"/>
</g>
<path d="M53.0339 115.955C64.2489 115.955 73.3404 106.863 73.3404 95.6482C73.3404 84.4333 64.2489 75.3418 53.0339 75.3418C41.819 75.3418 32.7275 84.4333 32.7275 95.6482C32.7275 106.863 41.819 115.955 53.0339 115.955Z" fill="#5D5FEF"/>
<g opacity="0.25">
<path d="M73.3406 95.649C73.3406 106.866 64.2514 115.955 53.0342 115.955C48.0063 115.955 43.4065 114.132 39.8643 111.103C42.8875 112.9 46.4233 113.931 50.1991 113.931C61.4163 113.931 70.5055 104.842 70.5055 93.6249C70.5055 87.4421 67.7418 81.9017 63.3821 78.1777C69.3442 81.7135 73.3406 88.2142 73.3406 95.649Z" fill="#371A45"/>
</g>
<g opacity="0.7">
<path d="M69.1234 83.2701C65.4449 79.5332 60.3196 77.2106 54.6559 77.2106C43.4387 77.2106 34.3495 86.2998 34.3495 97.517C34.3495 102.169 35.913 106.457 38.5535 109.883C34.9528 106.217 32.7275 101.196 32.7275 95.655C32.7275 84.4444 41.8168 75.3486 53.0339 75.3486C59.5865 75.3422 65.4124 78.4497 69.1234 83.2701Z" fill="white"/>
</g>
<g opacity="0.6">
<path d="M58.4958 3.57371C55.7775 2.49676 52.5466 3.11958 50.4122 5.42919C38.3775 18.5148 29.9111 34.1436 24.5328 51.3424C13.9385 85.2535 15.3398 125.289 25.0259 164.053C26.9592 171.799 29.2299 179.493 31.7925 187.077C32.0196 187.765 32.3699 188.381 32.8046 188.92C31.0529 188.33 29.6322 186.954 29.0158 185.138C26.4532 177.554 24.1825 169.859 22.2492 162.113C12.5696 123.343 11.1682 83.3137 21.7626 49.3961C27.1344 32.1973 35.6008 16.5685 47.6419 3.48289C50.5549 0.316903 55.5179 0.316903 58.4309 3.48289C58.4504 3.52181 58.4763 3.54776 58.4958 3.57371Z" fill="white"/>
</g>
<path d="M53.0335 117.089C41.213 117.089 31.5918 107.467 31.5918 95.6468C31.5918 83.8263 41.213 74.2051 53.0335 74.2051C64.8541 74.2051 74.4753 83.8263 74.4753 95.6468C74.4753 107.474 64.8541 117.089 53.0335 117.089ZM53.0335 76.4758C42.4651 76.4758 33.8625 85.0784 33.8625 95.6468C33.8625 106.215 42.4651 114.818 53.0335 114.818C63.602 114.818 72.2046 106.222 72.2046 95.6468C72.2046 85.0719 63.602 76.4758 53.0335 76.4758Z" fill="#371A45"/>
<g opacity="0.7">
<path d="M68.1565 97.126C68.1565 104.561 62.123 110.594 54.6881 110.594C54.3313 110.594 53.981 110.581 53.6371 110.555C51.36 110.38 49.245 109.641 47.4284 108.473C46.7148 108.019 46.053 107.5 45.4367 106.922C44.3014 105.845 43.3477 104.574 42.6405 103.166C41.7323 101.349 41.2197 99.3058 41.2197 97.1325C41.2197 89.6976 47.2533 83.6641 54.6881 83.6641C55.7456 83.6641 56.7707 83.7873 57.7568 84.0144C59.3074 84.3777 60.7606 85.007 62.0581 85.8569C62.7653 86.3175 63.427 86.843 64.0304 87.4269C65.6069 88.945 66.8136 90.8459 67.5013 92.9804C67.9295 94.2844 68.1565 95.6792 68.1565 97.126Z" fill="white"/>
</g>
<path d="M66.5026 95.6491C66.5026 103.09 60.469 109.117 53.0342 109.117C52.6774 109.117 52.327 109.104 51.9832 109.072C49.706 108.897 47.591 108.157 45.7745 106.99C45.0673 106.535 44.3991 106.01 43.7893 105.439C42.6539 104.362 41.7002 103.09 40.9996 101.683C40.0848 99.8661 39.5723 97.8224 39.5723 95.6491C39.5723 88.2142 45.6058 82.1807 53.0407 82.1807C54.0982 82.1807 55.1232 82.3039 56.1093 82.531C57.6599 82.8943 59.1131 83.5301 60.4107 84.38C61.1178 84.8406 61.7796 85.3661 62.3894 85.95C63.9659 87.4681 65.1726 89.3755 65.8603 91.5034C66.2755 92.8075 66.5026 94.2023 66.5026 95.6491Z" fill="#1D1D23"/>
<g opacity="0.25">
<path d="M65.9235 91.7494C65.3266 90.7827 64.613 89.8939 63.802 89.1154C63.1987 88.5315 62.5305 88.006 61.8233 87.5453C60.5323 86.6955 59.079 86.0661 57.522 85.6964C56.5358 85.4693 55.5108 85.346 54.4533 85.346C47.0119 85.346 40.9849 91.3796 40.9849 98.8144C40.9849 100.17 41.186 101.481 41.5623 102.714C41.3547 102.383 41.1601 102.039 40.9849 101.688C40.0701 99.8719 39.5576 97.8283 39.5576 95.6549C39.5576 88.2201 45.5911 82.1865 53.026 82.1865C54.0835 82.1865 55.1086 82.3098 56.0947 82.5369C57.6452 82.9002 59.0985 83.536 60.396 84.3858C61.1032 84.8465 61.7649 85.372 62.3747 85.9559C63.9513 87.474 65.158 89.3813 65.8457 91.5093C65.8716 91.5872 65.8976 91.665 65.9235 91.7494Z" fill="#371A45"/>
</g>
<g opacity="0.6">
<path d="M65.845 91.502L51.9743 109.077C49.6971 108.902 47.5822 108.162 45.7656 106.995L62.3741 85.9551C63.9506 87.4732 65.1573 89.3741 65.845 91.502Z" fill="white"/>
</g>
<g opacity="0.6">
<path d="M60.4043 84.3786L43.7829 105.444C42.6475 104.367 41.6938 103.096 40.9932 101.688L56.1094 82.5361C57.6535 82.893 59.1067 83.5287 60.4043 84.3786Z" fill="white"/>
</g>
<path d="M53.0324 110.09C45.072 110.09 38.5908 103.609 38.5908 95.6486C38.5908 87.6882 45.072 81.207 53.0324 81.207C60.9927 81.207 67.4739 87.6882 67.4739 95.6486C67.4739 103.609 60.9927 110.09 53.0324 110.09ZM53.0324 83.1533C46.1425 83.1533 40.5371 88.7587 40.5371 95.6486C40.5371 102.538 46.1425 108.144 53.0324 108.144C59.9223 108.144 65.5276 102.538 65.5276 95.6486C65.5276 88.7587 59.9223 83.1533 53.0324 83.1533Z" fill="#371A45"/>
<path d="M71.3201 190.387H34.7296C31.648 190.387 28.9167 188.428 27.937 185.521C16.4149 151.474 11.5232 117.219 13.7809 86.4547C14.9876 69.9695 18.2574 54.6586 23.493 40.9437C29.0724 26.3399 36.9095 13.4814 46.7967 2.7378C48.3991 0.9991 50.6698 0 53.0248 0C55.3799 0 57.6505 0.9991 59.253 2.7378C69.1402 13.4879 76.9838 26.3399 82.5567 40.9437C87.7923 54.6586 91.062 69.9695 92.2688 86.4547C94.5265 117.219 89.6283 151.474 78.1127 185.521C77.133 188.428 74.4017 190.387 71.3201 190.387ZM53.0313 2.2642C51.2797 2.2642 49.6642 2.97784 48.4705 4.26889C12.0941 43.8112 5.22369 111.296 30.0909 184.788C30.7656 186.78 32.6276 188.11 34.7361 188.11H71.3266C73.4286 188.11 75.297 186.774 75.9717 184.788C100.839 111.296 93.9685 43.8112 57.5922 4.26889C56.3984 2.97784 54.7765 2.2642 53.0313 2.2642Z" fill="#371A45"/>
<path d="M65.8208 197.237H39.643C37.035 197.237 34.7838 195.381 34.2777 192.825L33.616 189.464C33.4927 188.848 33.8949 188.251 34.5113 188.135C35.1276 188.011 35.7245 188.413 35.8412 189.03L36.503 192.39C36.7949 193.883 38.1119 194.973 39.6365 194.973H65.8143C67.3389 194.973 68.6559 193.889 68.9478 192.39L69.6096 189.03C69.7328 188.413 70.3297 188.011 70.9395 188.135C71.5559 188.258 71.9581 188.855 71.8348 189.464L71.1731 192.825C70.68 195.381 68.4288 197.237 65.8208 197.237Z" fill="#371A45"/>
<path d="M83.8101 163.262H22.2486C21.6193 163.262 21.1133 162.756 21.1133 162.127C21.1133 161.497 21.6193 160.991 22.2486 160.991H83.8101C84.4394 160.991 84.9455 161.497 84.9455 162.127C84.9455 162.756 84.4394 163.262 83.8101 163.262Z" fill="#371A45"/>
<path d="M102.236 198.16C101.515 198.16 100.808 197.946 100.192 197.518C98.1808 196.123 95.9879 194.469 93.6848 192.607C85.9775 186.391 74.6824 189.544 74.5721 189.577C73.9688 189.752 73.3395 189.402 73.1643 188.798C72.9892 188.195 73.3395 187.566 73.9363 187.391C74.4424 187.241 86.464 183.868 95.1056 190.835C97.3698 192.659 99.5172 194.28 101.483 195.649C101.892 195.935 102.404 195.967 102.852 195.734C103.3 195.5 103.559 195.059 103.559 194.559C103.436 176.4 96.9676 165.774 83.7911 162.063C83.1878 161.894 82.8374 161.265 83.0061 160.661C83.1748 160.058 83.8041 159.708 84.4075 159.876C91.7385 161.939 97.2595 166.092 100.808 172.209C104.078 177.854 105.771 185.366 105.836 194.54C105.843 195.883 105.11 197.109 103.922 197.738C103.384 198.024 102.813 198.16 102.236 198.16Z" fill="#371A45"/>
<path d="M3.70079 198.16C3.12987 198.16 2.55247 198.024 2.02048 197.745C0.826746 197.116 0.0936394 195.89 0.106615 194.547C0.171491 185.367 1.85829 177.854 5.13456 172.216C8.68331 166.098 14.2043 161.946 21.5354 159.883C22.1387 159.714 22.768 160.065 22.9367 160.668C23.1054 161.272 22.7551 161.901 22.1517 162.069C8.97526 165.78 2.50706 176.407 2.38379 194.566C2.37731 195.066 2.64329 195.507 3.09094 195.741C3.53859 195.974 4.04464 195.942 4.45985 195.656C6.42561 194.287 8.57302 192.672 10.8372 190.842C19.4788 183.875 31.5005 187.255 32.0065 187.397C32.6098 187.573 32.9537 188.202 32.7785 188.805C32.6034 189.409 31.9741 189.752 31.3707 189.577C31.2604 189.545 19.9654 186.392 12.258 192.607C9.9549 194.469 7.76206 196.117 5.75089 197.518C5.13456 197.946 4.42092 198.16 3.70079 198.16Z" fill="#371A45"/>
<path d="M54.0004 54.321C43.4839 54.321 32.6884 53.1857 21.6853 50.9215C21.069 50.7917 20.6732 50.1949 20.803 49.5786C20.9327 48.9622 21.5296 48.573 22.1459 48.6962C43.8342 53.1598 64.6985 53.1597 84.168 48.7027C84.7779 48.56 85.3877 48.9428 85.5304 49.5526C85.6732 50.1624 85.2904 50.7723 84.6806 50.915C74.7804 53.1857 64.5299 54.321 54.0004 54.321Z" fill="#371A45"/>
<path d="M55.5627 199.294C58.6313 190.724 59.0984 171.663 55.5302 161.166C54.6609 158.61 51.3976 158.61 50.5282 161.166C46.96 171.663 47.4271 190.724 50.4958 199.294C51.4041 201.831 54.6544 201.831 55.5627 199.294Z" fill="#5D5FEF"/>
<g opacity="0.6">
<path d="M52.6237 162.542C49.0555 173.039 49.5226 192.106 52.5913 200.676C52.6562 200.864 52.734 201.04 52.8313 201.195C51.8582 201.117 50.9175 200.488 50.4958 199.294C47.4271 190.724 46.96 171.663 50.5282 161.16C51.3327 158.798 54.1873 158.617 55.2967 160.628C54.2067 160.556 53.0844 161.192 52.6237 162.542Z" fill="white"/>
</g>
<path d="M53.0337 202.331C51.4247 202.331 50.0104 201.287 49.433 199.671C46.3708 191.108 45.6961 171.859 49.459 160.797C50.0169 159.162 51.4182 158.111 53.0337 158.111C54.6491 158.111 56.0569 159.169 56.6084 160.797C60.3712 171.859 59.6965 191.114 56.6343 199.671C56.0569 201.293 54.6426 202.331 53.0337 202.331ZM53.0337 160.382C52.3849 160.382 51.8529 160.81 51.6064 161.53C48.0901 171.885 48.6415 190.738 51.5675 198.912C51.827 199.632 52.3719 200.067 53.0337 200.067C53.6954 200.067 54.2404 199.639 54.4999 198.912C57.4258 190.738 57.9838 171.885 54.461 161.53C54.2144 160.81 53.6824 160.382 53.0337 160.382Z" fill="#371A45"/>
<g opacity="0.25">
<path d="M62.0384 189.251C61.98 189.381 61.954 189.452 61.954 189.452L60.2607 189.251H62.0384Z" fill="#371A45"/>
</g>
<path d="M21.9305 162.178L21.8008 161.737C21.8202 161.802 21.8721 161.958 21.9305 162.178Z" fill="white"/>
<g opacity="0.25">
<path d="M104.695 194.554C104.708 196.539 102.47 197.72 100.841 196.584C99.2064 195.449 97.0461 193.86 94.3991 191.725C86.1208 185.049 74.2549 188.488 74.2549 188.488C78.5757 183.655 80.9047 172.548 84.0967 160.974C85.0374 161.24 85.9457 161.538 86.815 161.869L86.7631 162.122C86.7631 162.122 82.7797 169.92 89.4685 178.996C96.1702 188.073 104.52 190.084 104.52 190.084C104.63 191.537 104.689 193.023 104.695 194.554Z" fill="#371A45"/>
</g>
</svg>
