<svg width="790" height="119" viewBox="0 0 790 119" fill="none" xmlns="http://www.w3.org/2000/svg">
<path d="M0.786251 21.08L-0.17889 20.8183L-0.521053 22.08H0.786251V21.08ZM11.0263 21.08V22.08H11.8998L12.0172 21.2144L11.0263 21.08ZM13.5863 2.2L14.5772 2.33436L14.731 1.2H13.5863V2.2ZM5.90625 2.2V1.2H5.14132L4.94111 1.93826L5.90625 2.2ZM13.5863 21.08L12.6211 20.8183L12.2789 22.08H13.5863V21.08ZM23.8262 21.08V22.08H24.6998L24.8172 21.2144L23.8262 21.08ZM26.3863 2.2L27.3772 2.33436L27.531 1.2H26.3863V2.2ZM18.7063 2.2V1.2H17.9413L17.7411 1.93826L18.7063 2.2ZM0.786251 22.08H11.0263V20.08H0.786251V22.08ZM12.0172 21.2144L14.5772 2.33436L12.5953 2.06563L10.0353 20.9456L12.0172 21.2144ZM13.5863 1.2H5.90625V3.2H13.5863V1.2ZM4.94111 1.93826L-0.17889 20.8183L1.75139 21.3417L6.87139 2.46173L4.94111 1.93826ZM13.5863 22.08H23.8262V20.08H13.5863V22.08ZM24.8172 21.2144L27.3772 2.33436L25.3953 2.06563L22.8353 20.9456L24.8172 21.2144ZM26.3863 1.2H18.7063V3.2H26.3863V1.2ZM17.7411 1.93826L12.6211 20.8183L14.5514 21.3417L19.6714 2.46173L17.7411 1.93826ZM79.2012 2.2H80.2012V1.2H79.2012V2.2ZM45.9212 2.2V1.2H44.9212V2.2H45.9212ZM45.9212 12.056H44.9212V13.056H45.9212V12.056ZM57.4413 12.056H58.4413V11.056H57.4413V12.056ZM57.4413 47H56.4413V48H57.4413V47ZM67.6813 47V48H68.6813V47H67.6813ZM67.6813 12.056V11.056H66.6813V12.056H67.6813ZM79.2012 12.056V13.056H80.2012V12.056H79.2012ZM79.2012 1.2H45.9212V3.2H79.2012V1.2ZM44.9212 2.2V12.056H46.9212V2.2H44.9212ZM45.9212 13.056H57.4413V11.056H45.9212V13.056ZM56.4413 12.056V47H58.4413V12.056H56.4413ZM57.4413 48H67.6813V46H57.4413V48ZM68.6813 47V12.056H66.6813V47H68.6813ZM67.6813 13.056H79.2012V11.056H67.6813V13.056ZM80.2012 12.056V2.2H78.2012V12.056H80.2012ZM100.846 15V14H99.8457V15H100.846ZM100.846 18.008L100.091 18.6637L101.846 20.6846V18.008H100.846ZM100.846 43.992H101.846V41.3154L100.091 43.3363L100.846 43.992ZM100.846 47H99.8457V48H100.846V47ZM110.446 47V48H111.446V47H110.446ZM110.446 15H111.446V14H110.446V15ZM99.8457 15V18.008H101.846V15H99.8457ZM101.601 17.3523C99.274 14.673 95.8473 13.104 91.3098 13.104V15.104C95.3482 15.104 98.1935 16.479 100.091 18.6637L101.601 17.3523ZM91.3098 13.104C82.2923 13.104 75.0137 20.9966 75.0137 31H77.0137C77.0137 21.9314 83.5592 15.104 91.3098 15.104V13.104ZM75.0137 31C75.0137 41.0034 82.2923 48.896 91.3098 48.896V46.896C83.5592 46.896 77.0137 40.0686 77.0137 31H75.0137ZM91.3098 48.896C95.8473 48.896 99.274 47.327 101.601 44.6477L100.091 43.3363C98.1935 45.521 95.3482 46.896 91.3098 46.896V48.896ZM99.8457 43.992V47H101.846V43.992H99.8457ZM100.846 48H110.446V46H100.846V48ZM111.446 47V15H109.446V47H111.446ZM110.446 14H100.846V16H110.446V14ZM93.2298 37.808C91.253 37.808 89.6146 37.1386 88.4729 35.9969C87.3328 34.8569 86.6138 33.1715 86.6138 31H84.6138C84.6138 33.6285 85.4947 35.8471 87.0586 37.4111C88.6209 38.9734 90.7905 39.808 93.2298 39.808V37.808ZM86.6138 31C86.6138 28.8285 87.3328 27.1431 88.4729 26.0031C89.6146 24.8614 91.253 24.192 93.2298 24.192V22.192C90.7905 22.192 88.6209 23.0266 87.0586 24.5889C85.4947 26.1529 84.6138 28.3715 84.6138 31H86.6138ZM93.2298 24.192C95.2065 24.192 96.8449 24.8614 97.9866 26.0031C99.1267 27.1431 99.8457 28.8285 99.8457 31H101.846C101.846 28.3715 100.965 26.1529 99.4009 24.5889C97.8386 23.0266 95.669 22.192 93.2298 22.192V24.192ZM99.8457 31C99.8457 33.1715 99.1267 34.8569 97.9866 35.9969C96.8449 37.1386 95.2065 37.808 93.2298 37.808V39.808C95.669 39.808 97.8386 38.9734 99.4009 37.4111C100.965 35.8471 101.846 33.6285 101.846 31H99.8457ZM148.209 47V48H150.206L149.01 46.401L148.209 47ZM136.241 31L135.432 30.4114L134.998 31.008L135.44 31.599L136.241 31ZM147.889 15L148.697 15.5886L149.854 14H147.889V15ZM136.689 15V14H136.162L135.864 14.4349L136.689 15ZM127.089 29.016H126.089V32.2456L127.914 29.5811L127.089 29.016ZM127.089 2.2H128.089V1.2H127.089V2.2ZM117.489 2.2V1.2H116.489V2.2H117.489ZM117.489 47H116.489V48H117.489V47ZM127.089 47V48H128.089V47H127.089ZM127.089 32.856L127.899 32.2696L126.089 29.7695V32.856H127.089ZM137.329 47L136.519 47.5864L136.818 48H137.329V47ZM149.01 46.401L137.042 30.401L135.44 31.599L147.408 47.599L149.01 46.401ZM137.049 31.5886L148.697 15.5886L147.08 14.4114L135.432 30.4114L137.049 31.5886ZM147.889 14H136.689V16H147.889V14ZM135.864 14.4349L126.264 28.4509L127.914 29.5811L137.514 15.5651L135.864 14.4349ZM128.089 29.016V2.2H126.089V29.016H128.089ZM127.089 1.2H117.489V3.2H127.089V1.2ZM116.489 2.2V47H118.489V2.2H116.489ZM117.489 48H127.089V46H117.489V48ZM128.089 47V32.856H126.089V47H128.089ZM126.279 33.4424L136.519 47.5864L138.139 46.4136L127.899 32.2696L126.279 33.4424ZM137.329 48H148.209V46H137.329V48ZM151.739 47H150.739V48H151.739V47ZM161.339 47V48H162.339V47H161.339ZM161.339 15H162.339V14H161.339V15ZM151.739 15V14H150.739V15H151.739ZM156.539 13.184C160.227 13.184 163.299 10.1123 163.299 6.424H161.299C161.299 9.00771 159.122 11.184 156.539 11.184V13.184ZM163.299 6.424C163.299 2.73571 160.227 -0.336002 156.539 -0.336002V1.664C159.122 1.664 161.299 3.84028 161.299 6.424H163.299ZM156.539 -0.336002C152.85 -0.336002 149.779 2.73571 149.779 6.424H151.779C151.779 3.84028 153.955 1.664 156.539 1.664V-0.336002ZM149.779 6.424C149.779 10.1123 152.85 13.184 156.539 13.184V11.184C153.955 11.184 151.779 9.00771 151.779 6.424H149.779ZM151.739 48H161.339V46H151.739V48ZM162.339 47V15H160.339V47H162.339ZM161.339 14H151.739V16H161.339V14ZM150.739 15V47H152.739V15H150.739ZM177.964 18.008H176.964V21.0748L178.772 18.5975L177.964 18.008ZM177.964 15H178.964V14H177.964V15ZM168.364 15V14H167.364V15H168.364ZM168.364 47H167.364V48H168.364V47ZM177.964 47V48H178.964V47H177.964ZM189.484 47H188.484V48H189.484V47ZM199.084 47V48H200.084V47H199.084ZM187.116 13.104C182.66 13.104 179.118 14.7294 177.156 17.4185L178.772 18.5975C180.265 16.5506 183.124 15.104 187.116 15.104V13.104ZM178.964 18.008V15H176.964V18.008H178.964ZM177.964 14H168.364V16H177.964V14ZM167.364 15V47H169.364V15H167.364ZM168.364 48H177.964V46H168.364V48ZM178.964 47V29.528H176.964V47H178.964ZM178.964 29.528C178.964 27.4284 179.523 26.0632 180.337 25.2244C181.148 24.3885 182.347 23.936 183.916 23.936V21.936C181.964 21.936 180.187 22.5075 178.902 23.8316C177.62 25.1528 176.964 27.0836 176.964 29.528H178.964ZM183.916 23.936C185.255 23.936 186.38 24.3388 187.162 25.0841C187.935 25.8198 188.484 26.9934 188.484 28.76H190.484C190.484 26.5586 189.785 24.8202 188.541 23.6359C187.308 22.4612 185.648 21.936 183.916 21.936V23.936ZM188.484 28.76V47H190.484V28.76H188.484ZM189.484 48H199.084V46H189.484V48ZM200.084 47V27.352H198.084V47H200.084ZM200.084 27.352C200.084 22.8135 198.633 19.2361 196.238 16.7886C193.847 14.3447 190.588 13.104 187.116 13.104V15.104C190.108 15.104 192.832 16.1673 194.809 18.1874C196.782 20.2039 198.084 23.2505 198.084 27.352H200.084ZM229.164 15V14H228.164V15H229.164ZM229.164 18.264L228.385 18.891L230.164 21.1013V18.264H229.164ZM229.164 42.456H230.164V39.6187L228.385 41.829L229.164 42.456ZM214.636 48.216L215.515 47.7389L215.025 46.8361L214.136 47.3503L214.636 48.216ZM206.444 52.952L205.944 52.0863L205.089 52.5803L205.572 53.4412L206.444 52.952ZM238.508 15H239.508V14H238.508V15ZM228.164 15V18.264H230.164V15H228.164ZM229.943 17.637C227.626 14.7586 224.258 13.104 219.82 13.104V15.104C223.702 15.104 226.478 16.5214 228.385 18.891L229.943 17.637ZM219.82 13.104C210.128 13.104 203.076 21.0288 203.076 30.36H205.076C205.076 22.0272 211.336 15.104 219.82 15.104V13.104ZM203.076 30.36C203.076 39.6912 210.128 47.616 219.82 47.616V45.616C211.336 45.616 205.076 38.6928 205.076 30.36H203.076ZM219.82 47.616C224.258 47.616 227.626 45.9614 229.943 43.083L228.385 41.829C226.478 44.1986 223.702 45.616 219.82 45.616V47.616ZM228.164 42.456V45.4H230.164V42.456H228.164ZM228.164 45.4C228.164 47.4656 227.545 48.881 226.553 49.7908C225.546 50.7136 224.012 51.248 221.932 51.248V53.248C224.333 53.248 226.415 52.6304 227.904 51.2652C229.407 49.887 230.164 47.8784 230.164 45.4H228.164ZM221.932 51.248C219.965 51.248 218.642 50.8324 217.693 50.2283C216.741 49.6223 216.075 48.7698 215.515 47.7389L213.757 48.6931C214.414 49.9022 215.284 51.0657 216.619 51.9157C217.958 52.7676 219.675 53.248 221.932 53.248V51.248ZM214.136 47.3503L205.944 52.0863L206.945 53.8177L215.137 49.0817L214.136 47.3503ZM205.572 53.4412C208.743 59.0946 214.711 61.696 221.612 61.696V59.696C215.202 59.696 210.033 57.3054 207.316 52.4627L205.572 53.4412ZM221.612 61.696C226.03 61.696 230.49 60.519 233.87 57.8667C237.283 55.1881 239.508 51.0682 239.508 45.4H237.508C237.508 50.4838 235.542 54.0119 232.635 56.2933C229.694 58.601 225.707 59.696 221.612 59.696V61.696ZM239.508 45.4V15H237.508V45.4H239.508ZM238.508 14H229.164V16H238.508V14ZM221.42 36.784C219.371 36.784 217.693 36.1087 216.534 35.0042C215.38 33.9035 214.676 32.3164 214.676 30.36H212.676C212.676 32.8196 213.573 34.9445 215.154 36.4518C216.731 37.9552 218.925 38.784 221.42 38.784V36.784ZM214.676 30.36C214.676 28.4036 215.38 26.8165 216.534 25.7158C217.693 24.6112 219.371 23.936 221.42 23.936V21.936C218.925 21.936 216.731 22.7648 215.154 24.2682C213.573 25.7755 212.676 27.9004 212.676 30.36H214.676ZM221.42 23.936C223.469 23.936 225.147 24.6112 226.306 25.7158C227.461 26.8165 228.164 28.4036 228.164 30.36H230.164C230.164 27.9004 229.268 25.7755 227.686 24.2682C226.109 22.7648 223.915 21.936 221.42 21.936V23.936ZM228.164 30.36C228.164 32.3164 227.461 33.9035 226.306 35.0042C225.147 36.1087 223.469 36.784 221.42 36.784V38.784C223.915 38.784 226.109 37.9552 227.686 36.4518C229.268 34.9445 230.164 32.8196 230.164 30.36H228.164ZM281.711 15V14H280.972L280.755 14.7064L281.711 15ZM275.695 34.584L274.755 34.925L275.774 37.7334L276.651 34.8776L275.695 34.584ZM268.591 15L269.531 14.659L269.292 14H268.591V15ZM258.031 15V14H256.531L257.108 15.385L258.031 15ZM270.767 45.528L271.708 45.8673L271.84 45.5017L271.69 45.143L270.767 45.528ZM262.767 50.84V49.84H261.767V50.84H262.767ZM262.767 59.8H261.767V60.7513L262.717 60.7988L262.767 59.8ZM281.007 46.04L280.064 45.7075L280.064 45.7078L281.007 46.04ZM291.951 15L292.894 15.3325L293.364 14H291.951V15ZM280.755 14.7064L274.739 34.2904L276.651 34.8776L282.667 15.2936L280.755 14.7064ZM276.635 34.243L269.531 14.659L267.651 15.341L274.755 34.925L276.635 34.243ZM268.591 14H258.031V16H268.591V14ZM257.108 15.385L269.844 45.913L271.69 45.143L258.954 14.615L257.108 15.385ZM269.827 45.1887C269.161 47.0333 268.383 48.1395 267.366 48.8151C266.337 49.4985 264.919 49.84 262.767 49.84V51.84C265.095 51.84 266.973 51.4775 268.473 50.4809C269.984 49.4766 270.965 47.9267 271.708 45.8673L269.827 45.1887ZM261.767 50.84V59.8H263.767V50.84H261.767ZM262.717 60.7988C267.363 61.0311 271.275 60.1037 274.5 57.7066C277.709 55.3214 280.121 51.5675 281.95 46.3722L280.064 45.7078C278.31 50.6885 276.082 54.0386 273.307 56.1014C270.548 58.1523 267.131 59.0169 262.817 58.8012L262.717 60.7988ZM281.95 46.3725L292.894 15.3325L291.008 14.6675L280.064 45.7075L281.95 46.3725ZM291.951 14H281.711V16H291.951V14ZM309.599 48.896C319.549 48.896 327.559 41.0982 327.559 31H325.559C325.559 39.9738 318.464 46.896 309.599 46.896V48.896ZM327.559 31C327.559 20.9018 319.549 13.104 309.599 13.104V15.104C318.464 15.104 325.559 22.0262 325.559 31H327.559ZM309.599 13.104C299.648 13.104 291.639 20.9018 291.639 31H293.639C293.639 22.0262 300.733 15.104 309.599 15.104V13.104ZM291.639 31C291.639 41.0982 299.648 48.896 309.599 48.896V46.896C300.733 46.896 293.639 39.9738 293.639 31H291.639ZM309.599 37.552C305.991 37.552 303.239 34.9917 303.239 31H301.239C301.239 36.0963 304.886 39.552 309.599 39.552V37.552ZM303.239 31C303.239 27.0083 305.991 24.448 309.599 24.448V22.448C304.886 22.448 301.239 25.9037 301.239 31H303.239ZM309.599 24.448C313.206 24.448 315.959 27.0083 315.959 31H317.959C317.959 25.9037 314.311 22.448 309.599 22.448V24.448ZM315.959 31C315.959 34.9917 313.206 37.552 309.599 37.552V39.552C314.311 39.552 317.959 36.0963 317.959 31H315.959ZM352.661 15V14H351.661V15H352.661ZM341.141 15H342.141V14H341.141V15ZM331.541 15V14H330.541V15H331.541ZM352.661 43.992H353.661V40.9252L351.853 43.4025L352.661 43.992ZM352.661 47H351.661V48H352.661V47ZM362.261 47V48H363.261V47H362.261ZM362.261 15H363.261V14H362.261V15ZM351.661 15V32.472H353.661V15H351.661ZM351.661 32.472C351.661 34.5716 351.101 35.9368 350.287 36.7756C349.476 37.6115 348.277 38.064 346.709 38.064V40.064C348.66 40.064 350.438 39.4925 351.722 38.1684C353.004 36.8472 353.661 34.9164 353.661 32.472H351.661ZM346.709 38.064C345.369 38.064 344.245 37.6612 343.462 36.9159C342.69 36.1802 342.141 35.0066 342.141 33.24H340.141C340.141 35.4414 340.84 37.1798 342.083 38.3641C343.316 39.5388 344.976 40.064 346.709 40.064V38.064ZM342.141 33.24V15H340.141V33.24H342.141ZM341.141 14H331.541V16H341.141V14ZM330.541 15V34.648H332.541V15H330.541ZM330.541 34.648C330.541 39.1865 331.991 42.7639 334.386 45.2114C336.777 47.6553 340.037 48.896 343.509 48.896V46.896C340.517 46.896 337.792 45.8327 335.815 43.8126C333.842 41.7961 332.541 38.7495 332.541 34.648H330.541ZM343.509 48.896C347.965 48.896 351.506 47.2706 353.469 44.5815L351.853 43.4025C350.359 45.4494 347.501 46.896 343.509 46.896V48.896ZM351.661 43.992V47H353.661V43.992H351.661ZM352.661 48H362.261V46H352.661V48ZM363.261 47V15H361.261V47H363.261ZM362.261 14H352.661V16H362.261V14ZM404.053 24.216V25.216H405.053V24.216H404.053ZM404.053 15H405.053V14H404.053V15ZM397.461 15H396.461V16H397.461V15ZM397.461 6.04H398.461V4.69597L397.174 5.08217L397.461 6.04ZM387.861 8.92L387.574 7.96217L386.861 8.17597V8.92H387.861ZM387.861 15V16H388.861V15H387.861ZM382.741 15V14H381.741V15H382.741ZM382.741 24.216H381.741V25.216H382.741V24.216ZM387.861 24.216H388.861V23.216H387.861V24.216ZM404.053 47L404.155 47.9948L405.053 47.9032V47H404.053ZM404.053 38.296H405.053V37.2336L403.993 37.2978L404.053 38.296ZM397.461 24.216V23.216H396.461V24.216H397.461ZM405.053 24.216V15H403.053V24.216H405.053ZM404.053 14H397.461V16H404.053V14ZM398.461 15V6.04H396.461V15H398.461ZM397.174 5.08217L387.574 7.96217L388.149 9.87782L397.749 6.99782L397.174 5.08217ZM386.861 8.92V15H388.861V8.92H386.861ZM387.861 14H382.741V16H387.861V14ZM381.741 15V24.216H383.741V15H381.741ZM382.741 25.216H387.861V23.216H382.741V25.216ZM386.861 24.216V35.544H388.861V24.216H386.861ZM386.861 35.544C386.861 40.112 387.783 43.7084 390.644 45.9052C393.449 48.0585 397.841 48.639 404.155 47.9948L403.952 46.0052C397.721 46.6409 394.018 45.9735 391.862 44.3188C389.764 42.7076 388.861 39.936 388.861 35.544H386.861ZM405.053 47V38.296H403.053V47H405.053ZM403.993 37.2978C401.852 37.4276 400.398 37.4044 399.492 37.1C399.073 36.9595 398.847 36.7821 398.714 36.5934C398.578 36.4018 398.461 36.0905 398.461 35.544H396.461C396.461 36.3735 396.641 37.1262 397.081 37.7486C397.523 38.3739 398.154 38.7605 398.855 38.996C400.188 39.4436 402.031 39.4204 404.114 39.2942L403.993 37.2978ZM398.461 35.544V24.216H396.461V35.544H398.461ZM397.461 25.216H404.053V23.216H397.461V25.216ZM424.224 48.896C434.174 48.896 442.184 41.0982 442.184 31H440.184C440.184 39.9738 433.089 46.896 424.224 46.896V48.896ZM442.184 31C442.184 20.9018 434.174 13.104 424.224 13.104V15.104C433.089 15.104 440.184 22.0262 440.184 31H442.184ZM424.224 13.104C414.273 13.104 406.264 20.9018 406.264 31H408.264C408.264 22.0262 415.358 15.104 424.224 15.104V13.104ZM406.264 31C406.264 41.0982 414.273 48.896 424.224 48.896V46.896C415.358 46.896 408.264 39.9738 408.264 31H406.264ZM424.224 37.552C420.616 37.552 417.864 34.9917 417.864 31H415.864C415.864 36.0963 419.511 39.552 424.224 39.552V37.552ZM417.864 31C417.864 27.0083 420.616 24.448 424.224 24.448V22.448C419.511 22.448 415.864 25.9037 415.864 31H417.864ZM424.224 24.448C427.831 24.448 430.584 27.0083 430.584 31H432.584C432.584 25.9037 428.936 22.448 424.224 22.448V24.448ZM430.584 31C430.584 34.9917 427.831 37.552 424.224 37.552V39.552C428.936 39.552 432.584 36.0963 432.584 31H430.584ZM497.814 15V14H497.047L496.848 14.7405L497.814 15ZM493.206 32.152L492.246 32.4314L493.244 35.8628L494.172 32.4115L493.206 32.152ZM488.214 15L489.174 14.7206L488.964 14H488.214V15ZM479.254 15V14H478.503L478.294 14.7206L479.254 15ZM474.262 32.152L473.296 32.4115L474.223 35.8628L475.222 32.4314L474.262 32.152ZM469.654 15L470.62 14.7405L470.421 14H469.654V15ZM459.414 15V14H458.044L458.461 15.3048L459.414 15ZM469.654 47L468.701 47.3048L468.924 48H469.654V47ZM478.614 47V48H479.358L479.572 47.287L478.614 47ZM483.734 29.912L484.692 29.625L483.734 26.4279L482.776 29.625L483.734 29.912ZM488.854 47L487.896 47.287L488.109 48H488.854V47ZM497.814 47V48H498.544L498.766 47.3048L497.814 47ZM508.054 15L509.006 15.3048L509.424 14H508.054V15ZM496.848 14.7405L492.24 31.8925L494.172 32.4115L498.779 15.2595L496.848 14.7405ZM494.166 31.8726L489.174 14.7206L487.254 15.2794L492.246 32.4314L494.166 31.8726ZM488.214 14H479.254V16H488.214V14ZM478.294 14.7206L473.302 31.8726L475.222 32.4314L480.214 15.2794L478.294 14.7206ZM475.227 31.8925L470.62 14.7405L468.688 15.2595L473.296 32.4115L475.227 31.8925ZM469.654 14H459.414V16H469.654V14ZM458.461 15.3048L468.701 47.3048L470.606 46.6952L460.366 14.6952L458.461 15.3048ZM469.654 48H478.614V46H469.654V48ZM479.572 47.287L484.692 30.199L482.776 29.625L477.656 46.713L479.572 47.287ZM482.776 30.199L487.896 47.287L489.812 46.713L484.692 29.625L482.776 30.199ZM488.854 48H497.814V46H488.854V48ZM498.766 47.3048L509.006 15.3048L507.101 14.6952L496.861 46.6952L498.766 47.3048ZM508.054 14H497.814V16H508.054V14ZM521.464 18.008H520.464V21.0748L522.272 18.5975L521.464 18.008ZM521.464 2.2H522.464V1.2H521.464V2.2ZM511.864 2.2V1.2H510.864V2.2H511.864ZM511.864 47H510.864V48H511.864V47ZM521.464 47V48H522.464V47H521.464ZM532.984 47H531.984V48H532.984V47ZM542.584 47V48H543.584V47H542.584ZM530.616 13.104C526.16 13.104 522.618 14.7294 520.656 17.4185L522.272 18.5975C523.765 16.5506 526.624 15.104 530.616 15.104V13.104ZM522.464 18.008V2.2H520.464V18.008H522.464ZM521.464 1.2H511.864V3.2H521.464V1.2ZM510.864 2.2V47H512.864V2.2H510.864ZM511.864 48H521.464V46H511.864V48ZM522.464 47V29.528H520.464V47H522.464ZM522.464 29.528C522.464 27.4284 523.023 26.0632 523.837 25.2244C524.648 24.3885 525.847 23.936 527.416 23.936V21.936C525.464 21.936 523.687 22.5075 522.402 23.8316C521.12 25.1528 520.464 27.0836 520.464 29.528H522.464ZM527.416 23.936C528.755 23.936 529.88 24.3388 530.662 25.0841C531.435 25.8198 531.984 26.9934 531.984 28.76H533.984C533.984 26.5586 533.285 24.8202 532.041 23.6359C530.808 22.4612 529.148 21.936 527.416 21.936V23.936ZM531.984 28.76V47H533.984V28.76H531.984ZM532.984 48H542.584V46H532.984V48ZM543.584 47V27.352H541.584V47H543.584ZM543.584 27.352C543.584 22.8135 542.133 19.2361 539.739 16.7886C537.347 14.3447 534.088 13.104 530.616 13.104V15.104C533.608 15.104 536.332 16.1673 538.309 18.1874C540.282 20.2039 541.584 23.2505 541.584 27.352H543.584ZM557.752 34.84V33.84H556.322L556.813 35.1832L557.752 34.84ZM580.472 34.84V35.84H581.284L581.451 35.046L580.472 34.84ZM579.256 41.304L580.068 41.8886L580.715 40.9895L579.755 40.4371L579.256 41.304ZM571.576 36.888L572.075 36.0211L571.377 35.6201L570.836 36.2153L571.576 36.888ZM557.56 27.672L556.596 27.4073L556.249 28.672H557.56V27.672ZM571.32 27.672V28.672H572.633L572.284 27.4061L571.32 27.672ZM557.752 35.84H580.472V33.84H557.752V35.84ZM581.451 35.046C581.722 33.757 581.856 32.4076 581.856 31H579.856C579.856 32.2803 579.734 33.491 579.494 34.634L581.451 35.046ZM581.856 31C581.856 20.8224 574.534 13.104 564.6 13.104V15.104C573.354 15.104 579.856 21.8496 579.856 31H581.856ZM564.6 13.104C553.923 13.104 546.576 20.9243 546.576 31H548.576C548.576 22.0037 555.053 15.104 564.6 15.104V13.104ZM546.576 31C546.576 36.0098 548.362 40.4979 551.633 43.7348C554.906 46.9737 559.601 48.896 565.304 48.896V46.896C560.063 46.896 555.895 45.1383 553.04 42.3132C550.183 39.4861 548.576 35.5262 548.576 31H546.576ZM565.304 48.896C571.657 48.896 576.717 46.5388 580.068 41.8886L578.445 40.7194C575.524 44.7732 571.112 46.896 565.304 46.896V48.896ZM579.755 40.4371L572.075 36.0211L571.078 37.7549L578.758 42.1709L579.755 40.4371ZM570.836 36.2153C569.77 37.3881 567.813 38.32 565.432 38.32V40.32C568.3 40.32 570.822 39.2039 572.316 37.5607L570.836 36.2153ZM565.432 38.32C563.77 38.32 562.332 38.0462 561.197 37.4445C560.087 36.8562 559.215 35.9287 558.692 34.4968L556.813 35.1832C557.506 37.0793 558.714 38.3918 560.26 39.2115C561.781 40.0178 563.575 40.32 565.432 40.32V38.32ZM558.525 27.9367C558.922 26.4888 559.639 25.4314 560.605 24.7285C561.575 24.0223 562.876 23.616 564.536 23.616V21.616C562.548 21.616 560.81 22.1057 559.428 23.1115C558.041 24.1206 557.094 25.5912 556.596 27.4073L558.525 27.9367ZM564.536 23.616C565.827 23.616 567.063 23.9176 568.072 24.5857C569.066 25.2437 569.904 26.2991 570.356 27.9379L572.284 27.4061C571.712 25.3329 570.599 23.8603 569.176 22.9183C567.769 21.9864 566.125 21.616 564.536 21.616V23.616ZM571.32 26.672H557.56V28.672H571.32V26.672ZM595.901 20.696H594.901L596.859 20.982L595.901 20.696ZM595.901 15H596.901V14H595.901V15ZM586.301 15V14H585.301V15H586.301ZM586.301 47H585.301V48H586.301V47ZM595.901 47V48H596.901V47H595.901ZM605.501 25.24L605.342 26.2272L606.501 26.4142V25.24H605.501ZM605.501 14.36H606.501V13.36H605.501V14.36ZM596.901 20.696V15H594.901V20.696H596.901ZM595.901 14H586.301V16H595.901V14ZM585.301 15V47H587.301V15H585.301ZM586.301 48H595.901V46H586.301V48ZM596.901 47V32.536H594.901V47H596.901ZM596.901 32.536C596.901 29.7214 598.122 28.0672 599.718 27.1355C601.376 26.1667 603.529 25.9349 605.342 26.2272L605.66 24.2528C603.505 23.9051 600.858 24.1533 598.709 25.4085C596.496 26.7008 594.901 29.0146 594.901 32.536H596.901ZM606.501 25.24V14.36H604.501V25.24H606.501ZM605.501 13.36C601.199 13.36 596.393 15.5538 594.943 20.41L596.859 20.982C597.97 17.2622 601.739 15.36 605.501 15.36V13.36ZM617.627 34.84V33.84H616.197L616.688 35.1832L617.627 34.84ZM640.347 34.84V35.84H641.159L641.326 35.046L640.347 34.84ZM639.131 41.304L639.943 41.8886L640.59 40.9895L639.63 40.4371L639.131 41.304ZM631.451 36.888L631.95 36.0211L631.252 35.6201L630.711 36.2153L631.451 36.888ZM617.435 27.672L616.471 27.4073L616.124 28.672H617.435V27.672ZM631.195 27.672V28.672H632.508L632.159 27.4061L631.195 27.672ZM617.627 35.84H640.347V33.84H617.627V35.84ZM641.326 35.046C641.597 33.757 641.731 32.4076 641.731 31H639.731C639.731 32.2803 639.609 33.491 639.369 34.634L641.326 35.046ZM641.731 31C641.731 20.8224 634.409 13.104 624.475 13.104V15.104C633.229 15.104 639.731 21.8496 639.731 31H641.731ZM624.475 13.104C613.798 13.104 606.451 20.9243 606.451 31H608.451C608.451 22.0037 614.928 15.104 624.475 15.104V13.104ZM606.451 31C606.451 36.0098 608.237 40.4979 611.508 43.7348C614.781 46.9737 619.476 48.896 625.179 48.896V46.896C619.938 46.896 615.77 45.1383 612.915 42.3132C610.058 39.4861 608.451 35.5262 608.451 31H606.451ZM625.179 48.896C631.532 48.896 636.592 46.5388 639.943 41.8886L638.32 40.7194C635.399 44.7732 630.987 46.896 625.179 46.896V48.896ZM639.63 40.4371L631.95 36.0211L630.953 37.7549L638.633 42.1709L639.63 40.4371ZM630.711 36.2153C629.645 37.3881 627.688 38.32 625.307 38.32V40.32C628.175 40.32 630.697 39.2039 632.191 37.5607L630.711 36.2153ZM625.307 38.32C623.645 38.32 622.207 38.0462 621.072 37.4445C619.962 36.8562 619.09 35.9287 618.567 34.4968L616.688 35.1832C617.381 37.0793 618.589 38.3918 620.135 39.2115C621.656 40.0178 623.45 40.32 625.307 40.32V38.32ZM618.4 27.9367C618.797 26.4888 619.514 25.4314 620.48 24.7285C621.45 24.0223 622.751 23.616 624.411 23.616V21.616C622.423 21.616 620.685 22.1057 619.303 23.1115C617.916 24.1206 616.969 25.5912 616.471 27.4073L618.4 27.9367ZM624.411 23.616C625.702 23.616 626.938 23.9176 627.947 24.5857C628.941 25.2437 629.779 26.2991 630.231 27.9379L632.159 27.4061C631.587 25.3329 630.474 23.8603 629.051 22.9183C627.644 21.9864 626 21.616 624.411 21.616V23.616ZM631.195 26.672H617.435V28.672H631.195V26.672ZM682.336 15V14H681.597L681.38 14.7064L682.336 15ZM676.32 34.584L675.38 34.925L676.399 37.7334L677.276 34.8776L676.32 34.584ZM669.216 15L670.156 14.659L669.917 14H669.216V15ZM658.656 15V14H657.156L657.733 15.385L658.656 15ZM671.392 45.528L672.333 45.8673L672.465 45.5017L672.315 45.143L671.392 45.528ZM663.392 50.84V49.84H662.392V50.84H663.392ZM663.392 59.8H662.392V60.7513L663.342 60.7988L663.392 59.8ZM681.632 46.04L680.689 45.7075L680.689 45.7078L681.632 46.04ZM692.576 15L693.519 15.3325L693.989 14H692.576V15ZM681.38 14.7064L675.364 34.2904L677.276 34.8776L683.292 15.2936L681.38 14.7064ZM677.26 34.243L670.156 14.659L668.276 15.341L675.38 34.925L677.26 34.243ZM669.216 14H658.656V16H669.216V14ZM657.733 15.385L670.469 45.913L672.315 45.143L659.579 14.615L657.733 15.385ZM670.452 45.1887C669.786 47.0333 669.008 48.1395 667.991 48.8151C666.963 49.4985 665.544 49.84 663.392 49.84V51.84C665.72 51.84 667.598 51.4775 669.098 50.4809C670.609 49.4766 671.59 47.9267 672.333 45.8673L670.452 45.1887ZM662.392 50.84V59.8H664.392V50.84H662.392ZM663.342 60.7988C667.988 61.0311 671.9 60.1037 675.125 57.7066C678.334 55.3214 680.746 51.5675 682.575 46.3722L680.689 45.7078C678.935 50.6885 676.707 54.0386 673.932 56.1014C671.173 58.1523 667.756 59.0169 663.442 58.8012L663.342 60.7988ZM682.575 46.3725L693.519 15.3325L691.633 14.6675L680.689 45.7075L682.575 46.3725ZM692.576 14H682.336V16H692.576V14ZM710.224 48.896C720.174 48.896 728.184 41.0982 728.184 31H726.184C726.184 39.9738 719.089 46.896 710.224 46.896V48.896ZM728.184 31C728.184 20.9018 720.174 13.104 710.224 13.104V15.104C719.089 15.104 726.184 22.0262 726.184 31H728.184ZM710.224 13.104C700.273 13.104 692.264 20.9018 692.264 31H694.264C694.264 22.0262 701.358 15.104 710.224 15.104V13.104ZM692.264 31C692.264 41.0982 700.273 48.896 710.224 48.896V46.896C701.358 46.896 694.264 39.9738 694.264 31H692.264ZM710.224 37.552C706.616 37.552 703.864 34.9917 703.864 31H701.864C701.864 36.0963 705.511 39.552 710.224 39.552V37.552ZM703.864 31C703.864 27.0083 706.616 24.448 710.224 24.448V22.448C705.511 22.448 701.864 25.9037 701.864 31H703.864ZM710.224 24.448C713.831 24.448 716.584 27.0083 716.584 31H718.584C718.584 25.9037 714.936 22.448 710.224 22.448V24.448ZM716.584 31C716.584 34.9917 713.831 37.552 710.224 37.552V39.552C714.936 39.552 718.584 36.0963 718.584 31H716.584ZM753.286 15V14H752.286V15H753.286ZM741.766 15H742.766V14H741.766V15ZM732.166 15V14H731.166V15H732.166ZM753.286 43.992H754.286V40.9252L752.478 43.4025L753.286 43.992ZM753.286 47H752.286V48H753.286V47ZM762.886 47V48H763.886V47H762.886ZM762.886 15H763.886V14H762.886V15ZM752.286 15V32.472H754.286V15H752.286ZM752.286 32.472C752.286 34.5716 751.726 35.9368 750.912 36.7756C750.101 37.6115 748.902 38.064 747.334 38.064V40.064C749.285 40.064 751.062 39.4925 752.347 38.1684C753.63 36.8472 754.286 34.9164 754.286 32.472H752.286ZM747.334 38.064C745.994 38.064 744.87 37.6612 744.087 36.9159C743.315 36.1802 742.766 35.0066 742.766 33.24H740.766C740.766 35.4414 741.465 37.1798 742.708 38.3641C743.942 39.5388 745.601 40.064 747.334 40.064V38.064ZM742.766 33.24V15H740.766V33.24H742.766ZM741.766 14H732.166V16H741.766V14ZM731.166 15V34.648H733.166V15H731.166ZM731.166 34.648C731.166 39.1865 732.616 42.7639 735.011 45.2114C737.402 47.6553 740.662 48.896 744.134 48.896V46.896C741.142 46.896 738.417 45.8327 736.44 43.8126C734.467 41.7961 733.166 38.7495 733.166 34.648H731.166ZM744.134 48.896C748.59 48.896 752.131 47.2706 754.094 44.5815L752.478 43.4025C750.984 45.4494 748.126 46.896 744.134 46.896V48.896ZM752.286 43.992V47H754.286V43.992H752.286ZM753.286 48H762.886V46H753.286V48ZM763.886 47V15H761.886V47H763.886ZM762.886 14H753.286V16H762.886V14ZM779.526 20.696H778.526L780.484 20.982L779.526 20.696ZM779.526 15H780.526V14H779.526V15ZM769.926 15V14H768.926V15H769.926ZM769.926 47H768.926V48H769.926V47ZM779.526 47V48H780.526V47H779.526ZM789.126 25.24L788.967 26.2272L790.126 26.4142V25.24H789.126ZM789.126 14.36H790.126V13.36H789.126V14.36ZM780.526 20.696V15H778.526V20.696H780.526ZM779.526 14H769.926V16H779.526V14ZM768.926 15V47H770.926V15H768.926ZM769.926 48H779.526V46H769.926V48ZM780.526 47V32.536H778.526V47H780.526ZM780.526 32.536C780.526 29.7214 781.747 28.0672 783.343 27.1355C785.001 26.1667 787.154 25.9349 788.967 26.2272L789.285 24.2528C787.13 23.9051 784.483 24.1533 782.334 25.4085C780.121 26.7008 778.526 29.0146 778.526 32.536H780.526ZM790.126 25.24V14.36H788.126V25.24H790.126ZM789.126 13.36C784.824 13.36 780.018 15.5538 778.568 20.41L780.484 20.982C781.595 17.2622 785.364 15.36 789.126 15.36V13.36ZM132.563 110.64L133.438 111.123L133.914 110.261L133.06 109.772L132.563 110.64ZM124.179 105.84L124.676 104.972L123.725 104.428L123.269 105.424L124.179 105.84ZM124.179 98.16L123.279 98.5969L123.75 99.5651L124.681 99.025L124.179 98.16ZM132.563 93.296L133.065 94.161L133.915 93.6673L133.436 92.8084L132.563 93.296ZM118.099 119.896C124.721 119.896 130.504 116.446 133.438 111.123L131.687 110.157C129.117 114.818 124.02 117.896 118.099 117.896V119.896ZM133.06 109.772L124.676 104.972L123.682 106.708L132.066 111.508L133.06 109.772ZM123.269 105.424C122.439 107.24 120.477 108.424 117.971 108.424V110.424C121.097 110.424 123.87 108.92 125.088 106.256L123.269 105.424ZM117.971 108.424C116.138 108.424 114.593 107.765 113.506 106.665C112.42 105.565 111.739 103.97 111.739 102H109.739C109.739 104.446 110.594 106.563 112.083 108.071C113.573 109.579 115.643 110.424 117.971 110.424V108.424ZM111.739 102C111.739 100.03 112.42 98.4345 113.506 97.3347C114.593 96.2346 116.138 95.576 117.971 95.576V93.576C115.643 93.576 113.573 94.4214 112.083 95.9293C110.594 97.4375 109.739 99.5539 109.739 102H111.739ZM117.971 95.576C120.46 95.576 122.382 96.7488 123.279 98.5969L125.078 97.7231C123.8 95.0912 121.114 93.576 117.971 93.576V95.576ZM124.681 99.025L133.065 94.161L132.061 92.431L123.677 97.295L124.681 99.025ZM133.436 92.8084C130.5 87.5508 124.654 84.104 118.099 84.104V86.104C123.96 86.104 129.122 89.1852 131.69 93.7836L133.436 92.8084ZM118.099 84.104C107.816 84.104 100.139 91.9142 100.139 102H102.139C102.139 93.0138 108.926 86.104 118.099 86.104V84.104ZM100.139 102C100.139 112.086 107.816 119.896 118.099 119.896V117.896C108.926 117.896 102.139 110.986 102.139 102H100.139ZM159.033 86V85H158.033V86H159.033ZM159.033 89.008L158.278 89.6637L160.033 91.6846V89.008H159.033ZM159.033 114.992H160.033V112.315L158.278 114.336L159.033 114.992ZM159.033 118H158.033V119H159.033V118ZM168.633 118V119H169.633V118H168.633ZM168.633 86H169.633V85H168.633V86ZM158.033 86V89.008H160.033V86H158.033ZM159.788 88.3523C157.462 85.673 154.035 84.104 149.497 84.104V86.104C153.536 86.104 156.381 87.479 158.278 89.6637L159.788 88.3523ZM149.497 84.104C140.48 84.104 133.201 91.9966 133.201 102H135.201C135.201 92.9314 141.747 86.104 149.497 86.104V84.104ZM133.201 102C133.201 112.003 140.48 119.896 149.497 119.896V117.896C141.747 117.896 135.201 111.069 135.201 102H133.201ZM149.497 119.896C154.035 119.896 157.462 118.327 159.788 115.648L158.278 114.336C156.381 116.521 153.536 117.896 149.497 117.896V119.896ZM158.033 114.992V118H160.033V114.992H158.033ZM159.033 119H168.633V117H159.033V119ZM169.633 118V86H167.633V118H169.633ZM168.633 85H159.033V87H168.633V85ZM151.417 108.808C149.44 108.808 147.802 108.139 146.66 106.997C145.52 105.857 144.801 104.171 144.801 102H142.801C142.801 104.629 143.682 106.847 145.246 108.411C146.808 109.973 148.978 110.808 151.417 110.808V108.808ZM144.801 102C144.801 99.8285 145.52 98.1431 146.66 97.0031C147.802 95.8614 149.44 95.192 151.417 95.192V93.192C148.978 93.192 146.808 94.0266 145.246 95.5889C143.682 97.1529 142.801 99.3715 142.801 102H144.801ZM151.417 95.192C153.394 95.192 155.032 95.8614 156.174 97.0031C157.314 98.1431 158.033 99.8285 158.033 102H160.033C160.033 99.3715 159.152 97.1529 157.588 95.5889C156.026 94.0266 153.856 93.192 151.417 93.192V95.192ZM158.033 102C158.033 104.171 157.314 105.857 156.174 106.997C155.032 108.139 153.394 108.808 151.417 108.808V110.808C153.856 110.808 156.026 109.973 157.588 108.411C159.152 106.847 160.033 104.629 160.033 102H158.033ZM185.276 91.696H184.276L186.234 91.982L185.276 91.696ZM185.276 86H186.276V85H185.276V86ZM175.676 86V85H174.676V86H175.676ZM175.676 118H174.676V119H175.676V118ZM185.276 118V119H186.276V118H185.276ZM194.876 96.24L194.717 97.2272L195.876 97.4142V96.24H194.876ZM194.876 85.36H195.876V84.36H194.876V85.36ZM186.276 91.696V86H184.276V91.696H186.276ZM185.276 85H175.676V87H185.276V85ZM174.676 86V118H176.676V86H174.676ZM175.676 119H185.276V117H175.676V119ZM186.276 118V103.536H184.276V118H186.276ZM186.276 103.536C186.276 100.721 187.497 99.0672 189.093 98.1355C190.751 97.1667 192.904 96.9349 194.717 97.2272L195.035 95.2528C192.88 94.9051 190.233 95.1533 188.084 96.4085C185.871 97.7008 184.276 100.015 184.276 103.536H186.276ZM195.876 96.24V85.36H193.876V96.24H195.876ZM194.876 84.36C190.574 84.36 185.768 86.5537 184.318 91.41L186.234 91.982C187.345 88.2622 191.114 86.36 194.876 86.36V84.36ZM207.002 105.84V104.84H205.572L206.063 106.183L207.002 105.84ZM229.722 105.84V106.84H230.534L230.701 106.046L229.722 105.84ZM228.506 112.304L229.318 112.889L229.965 111.99L229.005 111.437L228.506 112.304ZM220.826 107.888L221.325 107.021L220.627 106.62L220.086 107.215L220.826 107.888ZM206.81 98.672L205.846 98.4073L205.499 99.672H206.81V98.672ZM220.57 98.672V99.672H221.883L221.534 98.4061L220.57 98.672ZM207.002 106.84H229.722V104.84H207.002V106.84ZM230.701 106.046C230.972 104.757 231.106 103.408 231.106 102H229.106C229.106 103.28 228.984 104.491 228.744 105.634L230.701 106.046ZM231.106 102C231.106 91.8224 223.784 84.104 213.85 84.104V86.104C222.604 86.104 229.106 92.8496 229.106 102H231.106ZM213.85 84.104C203.173 84.104 195.826 91.9243 195.826 102H197.826C197.826 93.0037 204.303 86.104 213.85 86.104V84.104ZM195.826 102C195.826 107.01 197.612 111.498 200.883 114.735C204.156 117.974 208.851 119.896 214.554 119.896V117.896C209.313 117.896 205.145 116.138 202.29 113.313C199.433 110.486 197.826 106.526 197.826 102H195.826ZM214.554 119.896C220.907 119.896 225.967 117.539 229.318 112.889L227.695 111.719C224.774 115.773 220.362 117.896 214.554 117.896V119.896ZM229.005 111.437L221.325 107.021L220.328 108.755L228.008 113.171L229.005 111.437ZM220.086 107.215C219.02 108.388 217.063 109.32 214.682 109.32V111.32C217.55 111.32 220.072 110.204 221.566 108.561L220.086 107.215ZM214.682 109.32C213.02 109.32 211.582 109.046 210.447 108.444C209.337 107.856 208.465 106.929 207.942 105.497L206.063 106.183C206.756 108.079 207.964 109.392 209.51 110.212C211.031 111.018 212.825 111.32 214.682 111.32V109.32ZM207.775 98.9367C208.172 97.4888 208.889 96.4314 209.855 95.7285C210.825 95.0223 212.126 94.616 213.786 94.616V92.616C211.798 92.616 210.06 93.1057 208.678 94.1115C207.291 95.1206 206.344 96.5912 205.846 98.4073L207.775 98.9367ZM213.786 94.616C215.077 94.616 216.313 94.9176 217.322 95.5857C218.316 96.2437 219.154 97.2991 219.606 98.9379L221.534 98.4061C220.962 96.3329 219.849 94.8603 218.426 93.9183C217.019 92.9864 215.375 92.616 213.786 92.616V94.616ZM220.57 97.672H206.81V99.672H220.57V97.672ZM243.815 105.84V104.84H242.385L242.875 106.183L243.815 105.84ZM266.535 105.84V106.84H267.346L267.513 106.046L266.535 105.84ZM265.319 112.304L266.13 112.889L266.778 111.99L265.817 111.437L265.319 112.304ZM257.639 107.888L258.137 107.021L257.44 106.62L256.899 107.215L257.639 107.888ZM243.623 98.672L242.658 98.4073L242.311 99.672H243.623V98.672ZM257.383 98.672V99.672H258.696L258.347 98.4061L257.383 98.672ZM243.815 106.84H266.535V104.84H243.815V106.84ZM267.513 106.046C267.785 104.757 267.919 103.408 267.919 102H265.919C265.919 103.28 265.797 104.491 265.556 105.634L267.513 106.046ZM267.919 102C267.919 91.8224 260.597 84.104 250.663 84.104V86.104C259.417 86.104 265.919 92.8496 265.919 102H267.919ZM250.663 84.104C239.986 84.104 232.639 91.9243 232.639 102H234.639C234.639 93.0037 241.116 86.104 250.663 86.104V84.104ZM232.639 102C232.639 107.01 234.424 111.498 237.695 114.735C240.968 117.974 245.664 119.896 251.367 119.896V117.896C246.126 117.896 241.957 116.138 239.102 113.313C236.245 110.486 234.639 106.526 234.639 102H232.639ZM251.367 119.896C257.719 119.896 262.779 117.539 266.13 112.889L264.507 111.719C261.586 115.773 257.174 117.896 251.367 117.896V119.896ZM265.817 111.437L258.137 107.021L257.14 108.755L264.82 113.171L265.817 111.437ZM256.899 107.215C255.833 108.388 253.875 109.32 251.495 109.32V111.32C254.362 111.32 256.885 110.204 258.379 108.561L256.899 107.215ZM251.495 109.32C249.832 109.32 248.394 109.046 247.259 108.444C246.149 107.856 245.277 106.929 244.754 105.497L242.875 106.183C243.568 108.079 244.776 109.392 246.322 110.212C247.843 111.018 249.637 111.32 251.495 111.32V109.32ZM244.587 98.9367C244.985 97.4888 245.702 96.4314 246.667 95.7285C247.637 95.0223 248.939 94.616 250.599 94.616V92.616C248.611 92.616 246.872 93.1057 245.49 94.1115C244.104 95.1206 243.157 96.5912 242.658 98.4073L244.587 98.9367ZM250.599 94.616C251.89 94.616 253.126 94.9176 254.135 95.5857C255.128 96.2437 255.967 97.2991 256.419 98.9379L258.347 98.4061C257.775 96.3329 256.661 94.8603 255.239 93.9183C253.832 92.9864 252.188 92.616 250.599 92.616V94.616ZM257.383 97.672H243.623V99.672H257.383V97.672ZM281.964 91.696H280.964L282.922 91.982L281.964 91.696ZM281.964 86H282.964V85H281.964V86ZM272.364 86V85H271.364V86H272.364ZM272.364 118H271.364V119H272.364V118ZM281.964 118V119H282.964V118H281.964ZM291.564 96.24L291.405 97.2272L292.564 97.4142V96.24H291.564ZM291.564 85.36H292.564V84.36H291.564V85.36ZM282.964 91.696V86H280.964V91.696H282.964ZM281.964 85H272.364V87H281.964V85ZM271.364 86V118H273.364V86H271.364ZM272.364 119H281.964V117H272.364V119ZM282.964 118V103.536H280.964V118H282.964ZM282.964 103.536C282.964 100.721 284.185 99.0672 285.78 98.1355C287.439 97.1667 289.592 96.9349 291.405 97.2272L291.723 95.2528C289.568 94.9051 286.921 95.1533 284.771 96.4085C282.559 97.7008 280.964 100.015 280.964 103.536H282.964ZM292.564 96.24V85.36H290.564V96.24H292.564ZM291.564 84.36C287.262 84.36 282.455 86.5537 281.006 91.41L282.922 91.982C284.032 88.2622 287.802 86.36 291.564 86.36V84.36ZM341.875 110.64L342.751 111.123L343.226 110.261L342.372 109.772L341.875 110.64ZM333.491 105.84L333.988 104.972L333.037 104.428L332.582 105.424L333.491 105.84ZM333.491 98.16L332.592 98.5969L333.062 99.5651L333.993 99.025L333.491 98.16ZM341.875 93.296L342.377 94.161L343.228 93.6673L342.748 92.8084L341.875 93.296ZM327.411 119.896C334.034 119.896 339.817 116.446 342.751 111.123L341 110.157C338.43 114.818 333.333 117.896 327.411 117.896V119.896ZM342.372 109.772L333.988 104.972L332.994 106.708L341.378 111.508L342.372 109.772ZM332.582 105.424C331.752 107.24 329.789 108.424 327.283 108.424V110.424C330.409 110.424 333.183 108.92 334.401 106.256L332.582 105.424ZM327.283 108.424C325.451 108.424 323.905 107.765 322.819 106.665C321.732 105.565 321.051 103.97 321.051 102H319.051C319.051 104.446 319.906 106.563 321.396 108.071C322.885 109.579 324.956 110.424 327.283 110.424V108.424ZM321.051 102C321.051 100.03 321.732 98.4345 322.819 97.3347C323.905 96.2346 325.451 95.576 327.283 95.576V93.576C324.956 93.576 322.885 94.4214 321.396 95.9293C319.906 97.4375 319.051 99.5539 319.051 102H321.051ZM327.283 95.576C329.772 95.576 331.694 96.7488 332.592 98.5969L334.391 97.7231C333.112 95.0912 330.426 93.576 327.283 93.576V95.576ZM333.993 99.025L342.377 94.161L341.373 92.431L332.989 97.295L333.993 99.025ZM342.748 92.8084C339.812 87.5508 333.966 84.104 327.411 84.104V86.104C333.272 86.104 338.434 89.1852 341.002 93.7836L342.748 92.8084ZM327.411 84.104C317.128 84.104 309.451 91.9142 309.451 102H311.451C311.451 93.0138 318.238 86.104 327.411 86.104V84.104ZM309.451 102C309.451 112.086 317.128 119.896 327.411 119.896V117.896C318.238 117.896 311.451 110.986 311.451 102H309.451ZM368.346 86V85H367.346V86H368.346ZM368.346 89.008L367.591 89.6637L369.346 91.6846V89.008H368.346ZM368.346 114.992H369.346V112.315L367.591 114.336L368.346 114.992ZM368.346 118H367.346V119H368.346V118ZM377.946 118V119H378.946V118H377.946ZM377.946 86H378.946V85H377.946V86ZM367.346 86V89.008H369.346V86H367.346ZM369.101 88.3523C366.774 85.673 363.347 84.104 358.81 84.104V86.104C362.848 86.104 365.693 87.479 367.591 89.6637L369.101 88.3523ZM358.81 84.104C349.792 84.104 342.514 91.9966 342.514 102H344.514C344.514 92.9314 351.059 86.104 358.81 86.104V84.104ZM342.514 102C342.514 112.003 349.792 119.896 358.81 119.896V117.896C351.059 117.896 344.514 111.069 344.514 102H342.514ZM358.81 119.896C363.347 119.896 366.774 118.327 369.101 115.648L367.591 114.336C365.693 116.521 362.848 117.896 358.81 117.896V119.896ZM367.346 114.992V118H369.346V114.992H367.346ZM368.346 119H377.946V117H368.346V119ZM378.946 118V86H376.946V118H378.946ZM377.946 85H368.346V87H377.946V85ZM360.73 108.808C358.753 108.808 357.115 108.139 355.973 106.997C354.833 105.857 354.114 104.171 354.114 102H352.114C352.114 104.629 352.995 106.847 354.559 108.411C356.121 109.973 358.29 110.808 360.73 110.808V108.808ZM354.114 102C354.114 99.8285 354.833 98.1431 355.973 97.0031C357.115 95.8614 358.753 95.192 360.73 95.192V93.192C358.29 93.192 356.121 94.0266 354.559 95.5889C352.995 97.1529 352.114 99.3715 352.114 102H354.114ZM360.73 95.192C362.707 95.192 364.345 95.8614 365.487 97.0031C366.627 98.1431 367.346 99.8285 367.346 102H369.346C369.346 99.3715 368.465 97.1529 366.901 95.5889C365.339 94.0266 363.169 93.192 360.73 93.192V95.192ZM367.346 102C367.346 104.171 366.627 105.857 365.487 106.997C364.345 108.139 362.707 108.808 360.73 108.808V110.808C363.169 110.808 365.339 109.973 366.901 108.411C368.465 106.847 369.346 104.629 369.346 102H367.346ZM394.589 89.008H393.589V92.0748L395.397 89.5975L394.589 89.008ZM394.589 86H395.589V85H394.589V86ZM384.989 86V85H383.989V86H384.989ZM384.989 118H383.989V119H384.989V118ZM394.589 118V119H395.589V118H394.589ZM406.109 118H405.109V119H406.109V118ZM415.709 118V119H416.709V118H415.709ZM403.741 84.104C399.285 84.104 395.743 85.7294 393.781 88.4185L395.397 89.5975C396.89 87.5506 399.749 86.104 403.741 86.104V84.104ZM395.589 89.008V86H393.589V89.008H395.589ZM394.589 85H384.989V87H394.589V85ZM383.989 86V118H385.989V86H383.989ZM384.989 119H394.589V117H384.989V119ZM395.589 118V100.528H393.589V118H395.589ZM395.589 100.528C395.589 98.4284 396.148 97.0632 396.962 96.2244C397.773 95.3885 398.972 94.936 400.541 94.936V92.936C398.589 92.936 396.812 93.5074 395.527 94.8316C394.245 96.1528 393.589 98.0836 393.589 100.528H395.589ZM400.541 94.936C401.88 94.936 403.005 95.3388 403.787 96.0841C404.56 96.8198 405.109 97.9934 405.109 99.76H407.109C407.109 97.5586 406.41 95.8202 405.166 94.6359C403.933 93.4612 402.273 92.936 400.541 92.936V94.936ZM405.109 99.76V118H407.109V99.76H405.109ZM406.109 119H415.709V117H406.109V119ZM416.709 118V98.352H414.709V118H416.709ZM416.709 98.352C416.709 93.8135 415.258 90.2361 412.863 87.7886C410.472 85.3447 407.213 84.104 403.741 84.104V86.104C406.733 86.104 409.457 87.1673 411.434 89.1874C413.407 91.2039 414.709 94.2505 414.709 98.352H416.709ZM482.973 93.04H483.973V92.04H482.973V93.04ZM460.509 93.04V92.04H459.509V93.04H460.509ZM460.509 102H459.509V103H460.509V102ZM472.477 102L473.414 102.35L473.918 101H472.477V102ZM471.069 87.536L470.223 88.0693L470.735 88.8806L471.567 88.4035L471.069 87.536ZM479.773 82.544L480.271 83.4115L481.173 82.8937L480.62 82.0124L479.773 82.544ZM482.973 92.04H460.509V94.04H482.973V92.04ZM459.509 93.04V102H461.509V93.04H459.509ZM460.509 103H472.477V101H460.509V103ZM471.54 101.65C470.114 105.472 466.642 107.912 461.021 107.912V109.912C467.305 109.912 471.64 107.104 473.414 102.35L471.54 101.65ZM461.021 107.912C456.886 107.912 453.629 106.593 451.411 104.456C449.195 102.32 447.941 99.2939 447.941 95.728H445.941C445.941 99.7781 447.375 103.344 450.023 105.896C452.67 108.447 456.452 109.912 461.021 109.912V107.912ZM447.941 95.728C447.941 88.3987 453.135 83.288 460.125 83.288V81.288C452.011 81.288 445.941 87.3133 445.941 95.728H447.941ZM460.125 83.288C464.896 83.288 468.58 85.462 470.223 88.0693L471.915 87.0027C469.847 83.722 465.466 81.288 460.125 81.288V83.288ZM471.567 88.4035L480.271 83.4115L479.276 81.6765L470.572 86.6685L471.567 88.4035ZM480.62 82.0124C476.653 75.6915 469.093 71.304 460.189 71.304V73.304C468.437 73.304 475.342 77.3645 478.926 83.0756L480.62 82.0124ZM460.189 71.304C446.455 71.304 435.701 82.1179 435.701 95.664H437.701C437.701 83.2261 447.556 73.304 460.189 73.304V71.304ZM435.701 95.664C435.701 109.1 446.281 119.896 460.893 119.896V117.896C447.346 117.896 437.701 107.956 437.701 95.664H435.701ZM460.893 119.896C467.387 119.896 473.167 117.74 477.33 113.746C481.499 109.745 483.973 103.971 483.973 96.88H481.973C481.973 103.485 479.68 108.719 475.945 112.302C472.204 115.892 466.943 117.896 460.893 117.896V119.896ZM483.973 96.88V93.04H481.973V96.88H483.973ZM498.026 91.696H497.026L498.984 91.982L498.026 91.696ZM498.026 86H499.026V85H498.026V86ZM488.426 86V85H487.426V86H488.426ZM488.426 118H487.426V119H488.426V118ZM498.026 118V119H499.026V118H498.026ZM507.626 96.24L507.467 97.2272L508.626 97.4142V96.24H507.626ZM507.626 85.36H508.626V84.36H507.626V85.36ZM499.026 91.696V86H497.026V91.696H499.026ZM498.026 85H488.426V87H498.026V85ZM487.426 86V118H489.426V86H487.426ZM488.426 119H498.026V117H488.426V119ZM499.026 118V103.536H497.026V118H499.026ZM499.026 103.536C499.026 100.721 500.247 99.0672 501.843 98.1355C503.501 97.1667 505.654 96.9349 507.467 97.2272L507.785 95.2528C505.63 94.9051 502.983 95.1533 500.834 96.4085C498.621 97.7008 497.026 100.015 497.026 103.536H499.026ZM508.626 96.24V85.36H506.626V96.24H508.626ZM507.626 84.36C503.324 84.36 498.518 86.5537 497.068 91.41L498.984 91.982C500.095 88.2622 503.864 86.36 507.626 86.36V84.36ZM526.536 119.896C536.487 119.896 544.496 112.098 544.496 102H542.496C542.496 110.974 535.402 117.896 526.536 117.896V119.896ZM544.496 102C544.496 91.9018 536.487 84.104 526.536 84.104V86.104C535.402 86.104 542.496 93.0262 542.496 102H544.496ZM526.536 84.104C516.586 84.104 508.576 91.9018 508.576 102H510.576C510.576 93.0262 517.671 86.104 526.536 86.104V84.104ZM508.576 102C508.576 112.098 516.586 119.896 526.536 119.896V117.896C517.671 117.896 510.576 110.974 510.576 102H508.576ZM526.536 108.552C522.929 108.552 520.176 105.992 520.176 102H518.176C518.176 107.096 521.824 110.552 526.536 110.552V108.552ZM520.176 102C520.176 98.0083 522.929 95.448 526.536 95.448V93.448C521.824 93.448 518.176 96.9037 518.176 102H520.176ZM526.536 95.448C530.144 95.448 532.896 98.0083 532.896 102H534.896C534.896 96.9037 531.249 93.448 526.536 93.448V95.448ZM532.896 102C532.896 105.992 530.144 108.552 526.536 108.552V110.552C531.249 110.552 534.896 107.096 534.896 102H532.896ZM582.876 86V85H582.109L581.911 85.7405L582.876 86ZM578.268 103.152L577.308 103.431L578.307 106.863L579.234 103.411L578.268 103.152ZM573.276 86L574.236 85.7206L574.027 85H573.276V86ZM564.316 86V85H563.566L563.356 85.7206L564.316 86ZM559.324 103.152L558.359 103.411L559.286 106.863L560.284 103.431L559.324 103.152ZM554.716 86L555.682 85.7405L555.483 85H554.716V86ZM544.476 86V85H543.106L543.524 86.3048L544.476 86ZM554.716 118L553.764 118.305L553.986 119H554.716V118ZM563.676 118V119H564.421L564.634 118.287L563.676 118ZM568.796 100.912L569.754 100.625L568.796 97.4279L567.838 100.625L568.796 100.912ZM573.916 118L572.958 118.287L573.172 119H573.916V118ZM582.876 118V119H583.606L583.829 118.305L582.876 118ZM593.116 86L594.069 86.3048L594.486 85H593.116V86ZM581.911 85.7405L577.302 102.893L579.234 103.411L583.842 86.2595L581.911 85.7405ZM579.228 102.873L574.236 85.7206L572.316 86.2794L577.308 103.431L579.228 102.873ZM573.276 85H564.316V87H573.276V85ZM563.356 85.7206L558.364 102.873L560.284 103.431L565.276 86.2794L563.356 85.7206ZM560.29 102.893L555.682 85.7405L553.75 86.2595L558.359 103.411L560.29 102.893ZM554.716 85H544.476V87H554.716V85ZM543.524 86.3048L553.764 118.305L555.669 117.695L545.429 85.6952L543.524 86.3048ZM554.716 119H563.676V117H554.716V119ZM564.634 118.287L569.754 101.199L567.838 100.625L562.718 117.713L564.634 118.287ZM567.838 101.199L572.958 118.287L574.874 117.713L569.754 100.625L567.838 101.199ZM573.916 119H582.876V117H573.916V119ZM583.829 118.305L594.069 86.3048L592.164 85.6952L581.924 117.695L583.829 118.305ZM593.116 85H582.876V87H593.116V85ZM660.286 92.08L659.321 91.8183L658.979 93.08H660.286V92.08ZM670.526 92.08V93.08H671.4L671.517 92.2144L670.526 92.08ZM673.086 73.2L674.077 73.3344L674.231 72.2H673.086V73.2ZM665.406 73.2V72.2H664.641L664.441 72.9383L665.406 73.2ZM673.086 92.08L672.121 91.8183L671.779 93.08H673.086V92.08ZM683.326 92.08V93.08H684.2L684.317 92.2144L683.326 92.08ZM685.886 73.2L686.877 73.3344L687.031 72.2H685.886V73.2ZM678.206 73.2V72.2H677.441L677.241 72.9383L678.206 73.2ZM660.286 93.08H670.526V91.08H660.286V93.08ZM671.517 92.2144L674.077 73.3344L672.095 73.0656L669.535 91.9456L671.517 92.2144ZM673.086 72.2H665.406V74.2H673.086V72.2ZM664.441 72.9383L659.321 91.8183L661.251 92.3417L666.371 73.4617L664.441 72.9383ZM673.086 93.08H683.326V91.08H673.086V93.08ZM684.317 92.2144L686.877 73.3344L684.895 73.0656L682.335 91.9456L684.317 92.2144ZM685.886 72.2H678.206V74.2H685.886V72.2ZM677.241 72.9383L672.121 91.8183L674.051 92.3417L679.171 73.4617L677.241 72.9383Z" fill="white" fill-opacity="0.31"/>
</svg>
